solid body-side
facet normal 0.0 0.0 -1.0
  outer loop
    vertex 28.10781749959253 109.38939523670035 0.0
    vertex 27.39585250026643 103.17739385063663 0.0
    vertex 20.885425644400158 112.78658015227431 0.0
  endloop
endfacet
facet normal 0.0 0.0 -1.0
  outer loop
    vertex 27.39585250026643 103.17739385063663 0.0
    vertex 28.10781749959253 109.38939523670035 0.0
    vertex 29.09342976319818 106.7884326372343 0.0
  endloop
endfacet
facet normal 0.0 0.0 -1.0
  outer loop
    vertex 29.09342976319818 106.7884326372343 0.0
    vertex 28.10781749959253 109.38939523670035 0.0
    vertex 28.493188391788056 109.1520210354421 0.0
  endloop
endfacet
facet normal 0.0 0.0 -1.0
  outer loop
    vertex 29.09342976319818 106.7884326372343 0.0
    vertex 28.493188391788056 109.1520210354421 0.0
    vertex 28.80606186470341 108.84485703059995 0.0
  endloop
endfacet
facet normal 0.0 0.0 -1.0
  outer loop
    vertex 29.09342976319818 106.7884326372343 0.0
    vertex 28.80606186470341 108.84485703059995 0.0
    vertex 29.041022541856297 108.48293872744826 0.0
  endloop
endfacet
facet normal 0.0 0.0 -1.0
  outer loop
    vertex 29.09342976319818 106.7884326372343 0.0
    vertex 29.041022541856297 108.48293872744826 0.0
    vertex 29.192655046764603 108.08130163126138 0.0
  endloop
endfacet
facet normal 0.0 0.0 -1.0
  outer loop
    vertex 29.09342976319818 106.7884326372343 0.0
    vertex 29.192655046764603 108.08130163126138 0.0
    vertex 29.224274033917737 107.21901308088005 0.0
  endloop
endfacet
facet normal 0.0 0.0 -1.0
  outer loop
    vertex 29.224274033917737 107.21901308088005 0.0
    vertex 29.192655046764603 108.08130163126138 0.0
    vertex 29.25554400294582 107.6549812473139 0.0
  endloop
endfacet
facet normal 0.0 0.0 -1.0
  outer loop
    vertex 16.534200133732963 108.27900052848582 0.0
    vertex 7.716829796320762 80.60822692435467 0.0
    vertex 2.6097539421339726 114.80139783050008 0.0
  endloop
endfacet
facet normal 0.0 0.0 -1.0
  outer loop
    vertex 7.716829796320762 80.60822692435467 0.0
    vertex 16.534200133732963 108.27900052848582 0.0
    vertex 11.391956667970996 80.60822692435467 0.0
  endloop
endfacet
facet normal 0.0 0.0 -1.0
  outer loop
    vertex 11.391956667970996 80.60822692435467 0.0
    vertex 16.534200133732963 108.27900052848582 0.0
    vertex 11.391956667970996 68.25849192731728 0.0
  endloop
endfacet
facet normal 0.0 0.0 -1.0
  outer loop
    vertex 11.391956667970996 68.25849192731728 0.0
    vertex 16.534200133732963 108.27900052848582 0.0
    vertex 11.574758031658611 60.8140774848591 0.0
  endloop
endfacet
facet normal 0.0 0.0 -1.0
  outer loop
    vertex 11.391956667970996 68.25849192731728 0.0
    vertex 11.574758031658611 60.8140774848591 0.0
    vertex 11.391956667970996 19.23039693969936 0.0
  endloop
endfacet
facet normal 0.0 0.0 -1.0
  outer loop
    vertex 11.391956667970996 19.23039693969936 0.0
    vertex 11.574758031658611 60.8140774848591 0.0
    vertex 11.391956667970996 6.880661942661867 0.0
  endloop
endfacet
facet normal 0.0 0.0 -1.0
  outer loop
    vertex 11.574758031658611 60.8140774848591 0.0
    vertex 16.534200133732963 108.27900052848582 0.0
    vertex 32.325013348364905 60.8140774848591 0.0
  endloop
endfacet
facet normal 0.0 0.0 -1.0
  outer loop
    vertex 32.325013348364905 60.8140774848591 0.0
    vertex 16.534200133732963 108.27900052848582 0.0
    vertex 18.267308152372447 111.95325326008941 0.0
  endloop
endfacet
facet normal 0.0 0.0 -1.0
  outer loop
    vertex 32.325013348364905 60.8140774848591 0.0
    vertex 18.267308152372447 111.95325326008941 0.0
    vertex 18.526150213831865 112.31843564123929 0.0
  endloop
endfacet
facet normal 0.0 0.0 -1.0
  outer loop
    vertex 32.325013348364905 60.8140774848591 0.0
    vertex 18.526150213831865 112.31843564123929 0.0
    vertex 18.850477773402996 112.60958117652055 0.0
  endloop
endfacet
facet normal 0.0 0.0 -1.0
  outer loop
    vertex 32.325013348364905 60.8140774848591 0.0
    vertex 18.850477773402996 112.60958117652055 0.0
    vertex 19.22525793862506 112.8212752603888 0.0
  endloop
endfacet
facet normal 0.0 0.0 -1.0
  outer loop
    vertex 32.325013348364905 60.8140774848591 0.0
    vertex 19.22525793862506 112.8212752603888 0.0
    vertex 19.63545781703713 112.9481032872996 0.0
  endloop
endfacet
facet normal 0.0 0.0 -1.0
  outer loop
    vertex 32.325013348364905 60.8140774848591 0.0
    vertex 19.63545781703713 112.9481032872996 0.0
    vertex 20.066044516178128 112.98465065170853 0.0
  endloop
endfacet
facet normal 0.0 0.0 -1.0
  outer loop
    vertex 32.325013348364905 60.8140774848591 0.0
    vertex 20.066044516178128 112.98465065170853 0.0
    vertex 20.501985143587117 112.92550274807111 0.0
  endloop
endfacet
facet normal 0.0 0.0 -1.0
  outer loop
    vertex 32.325013348364905 60.8140774848591 0.0
    vertex 20.501985143587117 112.92550274807111 0.0
    vertex 20.885425644400158 112.78658015227431 0.0
  endloop
endfacet
facet normal 0.0 0.0 -1.0
  outer loop
    vertex 32.325013348364905 60.8140774848591 0.0
    vertex 20.885425644400158 112.78658015227431 0.0
    vertex 27.39585250026643 103.17739385063663 0.0
  endloop
endfacet
facet normal 0.0 0.0 -1.0
  outer loop
    vertex 32.325013348364905 60.8140774848591 0.0
    vertex 27.39585250026643 103.17739385063663 0.0
    vertex 50.753283412809694 80.60822692435467 0.0
  endloop
endfacet
facet normal 0.0 0.0 -1.0
  outer loop
    vertex 50.753283412809694 80.60822692435467 0.0
    vertex 27.39585250026643 103.17739385063663 0.0
    vertex 60.91541996799294 87.92719750238687 0.0
  endloop
endfacet
facet normal 0.0 0.0 -1.0
  outer loop
    vertex 32.325013348364905 60.8140774848591 0.0
    vertex 50.753283412809694 80.60822692435467 0.0
    vertex 32.325013348364905 19.813883328317264 0.0
  endloop
endfacet
facet normal 0.0 0.0 -1.0
  outer loop
    vertex 50.753283412809694 80.60822692435467 0.0
    vertex 60.91541996799294 87.92719750238687 0.0
    vertex 54.42841028446031 80.60822692435467 0.0
  endloop
endfacet
facet normal 0.0 0.0 -1.0
  outer loop
    vertex 54.42841028446031 80.60822692435467 0.0
    vertex 60.91541996799294 87.92719750238687 0.0
    vertex 54.42841028446031 68.25849192731728 0.0
  endloop
endfacet
facet normal 0.0 0.0 -1.0
  outer loop
    vertex 54.42841028446031 68.25849192731728 0.0
    vertex 60.91541996799294 87.92719750238687 0.0
    vertex 54.42841028446031 19.23039693969936 0.0
  endloop
endfacet
facet normal 0.0 0.0 -1.0
  outer loop
    vertex 54.42841028446031 19.23039693969936 0.0
    vertex 60.91541996799294 87.92719750238687 0.0
    vertex 54.42841028446031 6.880661942661867 0.0
  endloop
endfacet
facet normal 0.0 0.0 -1.0
  outer loop
    vertex 54.42841028446031 6.880661942661867 0.0
    vertex 60.91541996799294 87.92719750238687 0.0
    vertex 59.785982162970676 0.0 0.0
  endloop
endfacet
facet normal 0.0 0.0 -1.0
  outer loop
    vertex 59.785982162970676 0.0 0.0
    vertex 60.91541996799294 87.92719750238687 0.0
    vertex 60.30871059103691 0.037496685891504095 0.0
  endloop
endfacet
facet normal 0.0 0.0 -1.0
  outer loop
    vertex 60.30871059103691 0.037496685891504095 0.0
    vertex 60.91541996799294 87.92719750238687 0.0
    vertex 60.72837484878969 0.16953104600439825 0.0
  endloop
endfacet
facet normal 0.0 0.0 -1.0
  outer loop
    vertex 60.72837484878969 0.16953104600439825 0.0
    vertex 60.91541996799294 87.92719750238687 0.0
    vertex 61.102460311298316 0.3858839840009846 0.0
  endloop
endfacet
facet normal 0.0 0.0 -1.0
  outer loop
    vertex 61.102460311298316 0.3858839840009846 0.0
    vertex 60.91541996799294 87.92719750238687 0.0
    vertex 61.180991556072556 87.74526791736277 0.0
  endloop
endfacet
facet normal 0.0 0.0 -1.0
  outer loop
    vertex 61.102460311298316 0.3858839840009846 0.0
    vertex 61.180991556072556 87.74526791736277 0.0
    vertex 61.41966787529308 0.6752563966112035 0.0
  endloop
endfacet
facet normal 0.0 0.0 -1.0
  outer loop
    vertex 61.41966787529308 0.6752563966112035 0.0
    vertex 61.180991556072556 87.74526791736277 0.0
    vertex 61.41126317605712 87.52594381104454 0.0
  endloop
endfacet
facet normal 0.0 0.0 -1.0
  outer loop
    vertex 61.41966787529308 0.6752563966112035 0.0
    vertex 61.41126317605712 87.52594381104454 0.0
    vertex 61.752554625302004 86.99585017503647 0.0
  endloop
endfacet
facet normal 0.0 0.0 -1.0
  outer loop
    vertex 61.41966787529308 0.6752563966112035 0.0
    vertex 61.752554625302004 86.99585017503647 0.0
    vertex 61.66869843750406 1.026349180565311 0.0
  endloop
endfacet
facet normal 0.0 0.0 -1.0
  outer loop
    vertex 61.66869843750406 1.026349180565311 0.0
    vertex 61.752554625302004 86.99585017503647 0.0
    vertex 61.83825289466141 1.427863232593428 0.0
  endloop
endfacet
facet normal 0.0 0.0 -1.0
  outer loop
    vertex 61.83825289466141 1.427863232593428 0.0
    vertex 61.752554625302004 86.99585017503647 0.0
    vertex 61.85689851134357 86.69544971560217 0.0
  endloop
endfacet
facet normal 0.0 0.0 -1.0
  outer loop
    vertex 61.83825289466141 1.427863232593428 0.0
    vertex 61.85689851134357 86.69544971560217 0.0
    vertex 61.9170321434951 1.868499449425788 0.0
  endloop
endfacet
facet normal 0.0 0.0 -1.0
  outer loop
    vertex 61.9170321434951 1.868499449425788 0.0
    vertex 61.85689851134357 86.69544971560217 0.0
    vertex 61.91259054285182 86.37839287538469 0.0
  endloop
endfacet
facet normal 0.0 0.0 -1.0
  outer loop
    vertex 0.043995307404670475 113.31954006809269 0.0
    vertex 0.0010690262681353423 1.9339822866675949 0.0
    vertex 0.0 111.88811988948147 0.0
  endloop
endfacet
facet normal 0.0 0.0 -1.0
  outer loop
    vertex 0.0010690262681353423 1.9339822866675949 0.0
    vertex 0.043995307404670475 113.31954006809269 0.0
    vertex 0.06595801242135506 1.4886795649261773 0.0
  endloop
endfacet
facet normal 0.0 0.0 -1.0
  outer loop
    vertex 0.06595801242135506 1.4886795649261773 0.0
    vertex 0.043995307404670475 113.31954006809269 0.0
    vertex 0.23953152471009592 113.84993566612295 0.0
  endloop
endfacet
facet normal 0.0 0.0 -1.0
  outer loop
    vertex 0.06595801242135506 1.4886795649261773 0.0
    vertex 0.23953152471009592 113.84993566612295 0.0
    vertex 0.2232363645081775 1.080884850378759 0.0
  endloop
endfacet
facet normal 0.0 0.0 -1.0
  outer loop
    vertex 0.2232363645081775 1.080884850378759 0.0
    vertex 0.23953152471009592 113.84993566612295 0.0
    vertex 0.4616049792586332 0.7218972462954447 0.0
  endloop
endfacet
facet normal 0.0 0.0 -1.0
  outer loop
    vertex 0.4616049792586332 0.7218972462954447 0.0
    vertex 0.23953152471009592 113.84993566612295 0.0
    vertex 0.5656922113588057 114.29096376525897 0.0
  endloop
endfacet
facet normal 0.0 0.0 -1.0
  outer loop
    vertex 0.4616049792586332 0.7218972462954447 0.0
    vertex 0.5656922113588057 114.29096376525897 0.0
    vertex 0.7697647534029782 0.4230158559460685 0.0
  endloop
endfacet
facet normal 0.0 0.0 -1.0
  outer loop
    vertex 0.7697647534029782 0.4230158559460685 0.0
    vertex 0.5656922113588057 114.29096376525897 0.0
    vertex 0.9941360818881926 114.62462419838263 0.0
  endloop
endfacet
facet normal 0.0 0.0 -1.0
  outer loop
    vertex 0.7697647534029782 0.4230158559460685 0.0
    vertex 0.9941360818881926 114.62462419838263 0.0
    vertex 1.1364165836712432 0.19553978260041943 0.0
  endloop
endfacet
facet normal 0.0 0.0 -1.0
  outer loop
    vertex 1.1364165836712432 0.19553978260041943 0.0
    vertex 0.9941360818881926 114.62462419838263 0.0
    vertex 1.4965218508357059 114.83291679837605 0.0
  endloop
endfacet
facet normal 0.0 0.0 -1.0
  outer loop
    vertex 1.1364165836712432 0.19553978260041943 0.0
    vertex 1.4965218508357059 114.83291679837605 0.0
    vertex 1.5502613667935152 0.05076812952842182 0.0
  endloop
endfacet
facet normal 0.0 0.0 -1.0
  outer loop
    vertex 1.5502613667935152 0.05076812952842182 0.0
    vertex 1.4965218508357059 114.83291679837605 0.0
    vertex 2.044508232738502 114.89784139812123 0.0
  endloop
endfacet
facet normal 0.0 0.0 -1.0
  outer loop
    vertex 1.5502613667935152 0.05076812952842182 0.0
    vertex 2.044508232738502 114.89784139812123 0.0
    vertex 1.9999999994998583 0.0 0.0
  endloop
endfacet
facet normal 0.0 0.0 -1.0
  outer loop
    vertex 1.9999999994998583 0.0 0.0
    vertex 2.044508232738502 114.89784139812123 0.0
    vertex 7.716829796320762 6.880661942661867 0.0
  endloop
endfacet
facet normal 0.0 0.0 -1.0
  outer loop
    vertex 1.9999999994998583 0.0 0.0
    vertex 7.716829796320762 6.880661942661867 0.0
    vertex 59.785982162970676 0.0 0.0
  endloop
endfacet
facet normal 0.0 0.0 -1.0
  outer loop
    vertex 7.716829796320762 6.880661942661867 0.0
    vertex 2.044508232738502 114.89784139812123 0.0
    vertex 2.6097539421339726 114.80139783050008 0.0
  endloop
endfacet
facet normal 0.0 0.0 -1.0
  outer loop
    vertex 7.716829796320762 6.880661942661867 0.0
    vertex 2.6097539421339726 114.80139783050008 0.0
    vertex 7.716829796320762 80.60822692435467 0.0
  endloop
endfacet
facet normal 0.0 0.0 -1.0
  outer loop
    vertex 7.716829796320762 6.880661942661867 0.0
    vertex 7.716829796320762 80.60822692435467 0.0
    vertex 7.716829796320762 68.25849192731728 0.0
  endloop
endfacet
facet normal 0.0 0.0 -1.0
  outer loop
    vertex 7.716829796320762 6.880661942661867 0.0
    vertex 7.716829796320762 68.25849192731728 0.0
    vertex 7.716829796320762 19.23039693969936 0.0
  endloop
endfacet
facet normal 0.0 0.0 -1.0
  outer loop
    vertex 59.785982162970676 0.0 0.0
    vertex 7.716829796320762 6.880661942661867 0.0
    vertex 11.391956667970996 6.880661942661867 0.0
  endloop
endfacet
facet normal 0.0 0.0 -1.0
  outer loop
    vertex 59.785982162970676 0.0 0.0
    vertex 11.391956667970996 6.880661942661867 0.0
    vertex 11.574758031658611 19.813883328317264 0.0
  endloop
endfacet
facet normal 0.0 0.0 -1.0
  outer loop
    vertex 11.574758031658611 19.813883328317264 0.0
    vertex 11.391956667970996 6.880661942661867 0.0
    vertex 11.574758031658611 60.8140774848591 0.0
  endloop
endfacet
facet normal 0.0 0.0 -1.0
  outer loop
    vertex 59.785982162970676 0.0 0.0
    vertex 11.574758031658611 19.813883328317264 0.0
    vertex 32.325013348364905 19.813883328317264 0.0
  endloop
endfacet
facet normal 0.0 0.0 -1.0
  outer loop
    vertex 59.785982162970676 0.0 0.0
    vertex 32.325013348364905 19.813883328317264 0.0
    vertex 50.753283412809694 6.880661942661867 0.0
  endloop
endfacet
facet normal 0.0 0.0 -1.0
  outer loop
    vertex 50.753283412809694 6.880661942661867 0.0
    vertex 32.325013348364905 19.813883328317264 0.0
    vertex 50.753283412809694 80.60822692435467 0.0
  endloop
endfacet
facet normal 0.0 0.0 -1.0
  outer loop
    vertex 50.753283412809694 6.880661942661867 0.0
    vertex 50.753283412809694 80.60822692435467 0.0
    vertex 50.753283412809694 68.25849192731728 0.0
  endloop
endfacet
facet normal 0.0 0.0 -1.0
  outer loop
    vertex 50.753283412809694 6.880661942661867 0.0
    vertex 50.753283412809694 68.25849192731728 0.0
    vertex 50.753283412809694 19.23039693969936 0.0
  endloop
endfacet
facet normal 0.0 0.0 -1.0
  outer loop
    vertex 59.785982162970676 0.0 0.0
    vertex 50.753283412809694 6.880661942661867 0.0
    vertex 54.42841028446031 6.880661942661867 0.0
  endloop
endfacet
facet normal 0.0 0.0 -1.0
  outer loop
    vertex 54.42841028446031 68.25849192731728 0.0
    vertex 50.753283412809694 19.23039693969936 0.0
    vertex 50.753283412809694 68.25849192731728 0.0
  endloop
endfacet
facet normal 0.0 0.0 -1.0
  outer loop
    vertex 50.753283412809694 19.23039693969936 0.0
    vertex 54.42841028446031 68.25849192731728 0.0
    vertex 54.42841028446031 19.23039693969936 0.0
  endloop
endfacet
facet normal 0.0 0.0 -1.0
  outer loop
    vertex 11.391956667970996 68.25849192731728 0.0
    vertex 7.716829796320762 19.23039693969936 0.0
    vertex 7.716829796320762 68.25849192731728 0.0
  endloop
endfacet
facet normal 0.0 0.0 -1.0
  outer loop
    vertex 7.716829796320762 19.23039693969936 0.0
    vertex 11.391956667970996 68.25849192731728 0.0
    vertex 11.391956667970996 19.23039693969936 0.0
  endloop
endfacet
facet normal -0.0 -0.0 1.0
  outer loop
    vertex 11.391956667970996 19.23039693969936 3.175
    vertex 7.716829796320762 68.25849192731728 3.175
    vertex 7.716829796320762 19.23039693969936 3.175
  endloop
endfacet
facet normal -0.0 -0.0 1.0
  outer loop
    vertex 7.716829796320762 68.25849192731728 3.175
    vertex 11.391956667970996 19.23039693969936 3.175
    vertex 11.391956667970996 68.25849192731728 3.175
  endloop
endfacet
facet normal -0.0 -0.0 1.0
  outer loop
    vertex 0.0010690262681353423 1.9339822866675949 3.175
    vertex 0.043995307404670475 113.31954006809269 3.175
    vertex 0.0 111.88811988948147 3.175
  endloop
endfacet
facet normal -0.0 -0.0 1.0
  outer loop
    vertex 0.043995307404670475 113.31954006809269 3.175
    vertex 0.0010690262681353423 1.9339822866675949 3.175
    vertex 0.06595801242135506 1.4886795649261773 3.175
  endloop
endfacet
facet normal -0.0 -0.0 1.0
  outer loop
    vertex 0.043995307404670475 113.31954006809269 3.175
    vertex 0.06595801242135506 1.4886795649261773 3.175
    vertex 0.23953152471009592 113.84993566612295 3.175
  endloop
endfacet
facet normal -0.0 -0.0 1.0
  outer loop
    vertex 0.23953152471009592 113.84993566612295 3.175
    vertex 0.06595801242135506 1.4886795649261773 3.175
    vertex 0.2232363645081775 1.080884850378759 3.175
  endloop
endfacet
facet normal -0.0 -0.0 1.0
  outer loop
    vertex 0.23953152471009592 113.84993566612295 3.175
    vertex 0.2232363645081775 1.080884850378759 3.175
    vertex 0.4616049792586332 0.7218972462954447 3.175
  endloop
endfacet
facet normal -0.0 -0.0 1.0
  outer loop
    vertex 0.23953152471009592 113.84993566612295 3.175
    vertex 0.4616049792586332 0.7218972462954447 3.175
    vertex 0.5656922113588057 114.29096376525897 3.175
  endloop
endfacet
facet normal -0.0 -0.0 1.0
  outer loop
    vertex 0.5656922113588057 114.29096376525897 3.175
    vertex 0.4616049792586332 0.7218972462954447 3.175
    vertex 0.7697647534029782 0.4230158559460685 3.175
  endloop
endfacet
facet normal -0.0 -0.0 1.0
  outer loop
    vertex 0.5656922113588057 114.29096376525897 3.175
    vertex 0.7697647534029782 0.4230158559460685 3.175
    vertex 0.9941360818881926 114.62462419838263 3.175
  endloop
endfacet
facet normal -0.0 -0.0 1.0
  outer loop
    vertex 0.9941360818881926 114.62462419838263 3.175
    vertex 0.7697647534029782 0.4230158559460685 3.175
    vertex 1.1364165836712432 0.19553978260041943 3.175
  endloop
endfacet
facet normal -0.0 -0.0 1.0
  outer loop
    vertex 0.9941360818881926 114.62462419838263 3.175
    vertex 1.1364165836712432 0.19553978260041943 3.175
    vertex 1.4965218508357059 114.83291679837605 3.175
  endloop
endfacet
facet normal -0.0 -0.0 1.0
  outer loop
    vertex 1.4965218508357059 114.83291679837605 3.175
    vertex 1.1364165836712432 0.19553978260041943 3.175
    vertex 1.5502613667935152 0.05076812952842182 3.175
  endloop
endfacet
facet normal -0.0 -0.0 1.0
  outer loop
    vertex 1.4965218508357059 114.83291679837605 3.175
    vertex 1.5502613667935152 0.05076812952842182 3.175
    vertex 2.044508232738502 114.89784139812123 3.175
  endloop
endfacet
facet normal -0.0 -0.0 1.0
  outer loop
    vertex 2.044508232738502 114.89784139812123 3.175
    vertex 1.5502613667935152 0.05076812952842182 3.175
    vertex 1.9999999994998583 0.0 3.175
  endloop
endfacet
facet normal -0.0 -0.0 1.0
  outer loop
    vertex 2.044508232738502 114.89784139812123 3.175
    vertex 1.9999999994998583 0.0 3.175
    vertex 7.716829796320762 6.880661942661867 3.175
  endloop
endfacet
facet normal -0.0 -0.0 1.0
  outer loop
    vertex 7.716829796320762 6.880661942661867 3.175
    vertex 1.9999999994998583 0.0 3.175
    vertex 59.785982162970676 0.0 3.175
  endloop
endfacet
facet normal -0.0 -0.0 1.0
  outer loop
    vertex 2.044508232738502 114.89784139812123 3.175
    vertex 7.716829796320762 6.880661942661867 3.175
    vertex 2.6097539421339726 114.80139783050008 3.175
  endloop
endfacet
facet normal -0.0 -0.0 1.0
  outer loop
    vertex 7.716829796320762 6.880661942661867 3.175
    vertex 59.785982162970676 0.0 3.175
    vertex 11.391956667970996 6.880661942661867 3.175
  endloop
endfacet
facet normal -0.0 -0.0 1.0
  outer loop
    vertex 11.391956667970996 6.880661942661867 3.175
    vertex 59.785982162970676 0.0 3.175
    vertex 11.391956667970996 19.23039693969936 3.175
  endloop
endfacet
facet normal -0.0 -0.0 1.0
  outer loop
    vertex 11.391956667970996 19.23039693969936 3.175
    vertex 59.785982162970676 0.0 3.175
    vertex 11.574758031658611 19.813883328317264 3.175
  endloop
endfacet
facet normal -0.0 -0.0 1.0
  outer loop
    vertex 11.391956667970996 19.23039693969936 3.175
    vertex 11.574758031658611 19.813883328317264 3.175
    vertex 11.391956667970996 68.25849192731728 3.175
  endloop
endfacet
facet normal -0.0 -0.0 1.0
  outer loop
    vertex 11.391956667970996 68.25849192731728 3.175
    vertex 11.574758031658611 19.813883328317264 3.175
    vertex 11.391956667970996 80.60822692435467 3.175
  endloop
endfacet
facet normal -0.0 -0.0 1.0
  outer loop
    vertex 11.574758031658611 19.813883328317264 3.175
    vertex 59.785982162970676 0.0 3.175
    vertex 32.325013348364905 19.813883328317264 3.175
  endloop
endfacet
facet normal -0.0 -0.0 1.0
  outer loop
    vertex 32.325013348364905 19.813883328317264 3.175
    vertex 59.785982162970676 0.0 3.175
    vertex 50.753283412809694 6.880661942661867 3.175
  endloop
endfacet
facet normal -0.0 -0.0 1.0
  outer loop
    vertex 32.325013348364905 19.813883328317264 3.175
    vertex 50.753283412809694 6.880661942661867 3.175
    vertex 32.325013348364905 60.8140774848591 3.175
  endloop
endfacet
facet normal -0.0 -0.0 1.0
  outer loop
    vertex 50.753283412809694 6.880661942661867 3.175
    vertex 59.785982162970676 0.0 3.175
    vertex 54.42841028446031 6.880661942661867 3.175
  endloop
endfacet
facet normal -0.0 -0.0 1.0
  outer loop
    vertex 54.42841028446031 6.880661942661867 3.175
    vertex 59.785982162970676 0.0 3.175
    vertex 54.42841028446031 19.23039693969936 3.175
  endloop
endfacet
facet normal -0.0 -0.0 1.0
  outer loop
    vertex 54.42841028446031 19.23039693969936 3.175
    vertex 59.785982162970676 0.0 3.175
    vertex 54.42841028446031 68.25849192731728 3.175
  endloop
endfacet
facet normal -0.0 -0.0 1.0
  outer loop
    vertex 54.42841028446031 68.25849192731728 3.175
    vertex 59.785982162970676 0.0 3.175
    vertex 54.42841028446031 80.60822692435467 3.175
  endloop
endfacet
facet normal -0.0 -0.0 1.0
  outer loop
    vertex 2.6097539421339726 114.80139783050008 3.175
    vertex 7.716829796320762 80.60822692435467 3.175
    vertex 16.534200133732963 108.27900052848582 3.175
  endloop
endfacet
facet normal -0.0 -0.0 1.0
  outer loop
    vertex 7.716829796320762 80.60822692435467 3.175
    vertex 2.6097539421339726 114.80139783050008 3.175
    vertex 7.716829796320762 6.880661942661867 3.175
  endloop
endfacet
facet normal -0.0 -0.0 1.0
  outer loop
    vertex 7.716829796320762 80.60822692435467 3.175
    vertex 7.716829796320762 6.880661942661867 3.175
    vertex 7.716829796320762 19.23039693969936 3.175
  endloop
endfacet
facet normal -0.0 -0.0 1.0
  outer loop
    vertex 7.716829796320762 80.60822692435467 3.175
    vertex 7.716829796320762 19.23039693969936 3.175
    vertex 7.716829796320762 68.25849192731728 3.175
  endloop
endfacet
facet normal -0.0 -0.0 1.0
  outer loop
    vertex 16.534200133732963 108.27900052848582 3.175
    vertex 7.716829796320762 80.60822692435467 3.175
    vertex 11.391956667970996 80.60822692435467 3.175
  endloop
endfacet
facet normal -0.0 -0.0 1.0
  outer loop
    vertex 16.534200133732963 108.27900052848582 3.175
    vertex 11.391956667970996 80.60822692435467 3.175
    vertex 11.574758031658611 60.8140774848591 3.175
  endloop
endfacet
facet normal -0.0 -0.0 1.0
  outer loop
    vertex 11.574758031658611 60.8140774848591 3.175
    vertex 11.391956667970996 80.60822692435467 3.175
    vertex 11.574758031658611 19.813883328317264 3.175
  endloop
endfacet
facet normal -0.0 -0.0 1.0
  outer loop
    vertex 16.534200133732963 108.27900052848582 3.175
    vertex 11.574758031658611 60.8140774848591 3.175
    vertex 32.325013348364905 60.8140774848591 3.175
  endloop
endfacet
facet normal -0.0 -0.0 1.0
  outer loop
    vertex 16.534200133732963 108.27900052848582 3.175
    vertex 32.325013348364905 60.8140774848591 3.175
    vertex 18.267308152372447 111.95325326008941 3.175
  endloop
endfacet
facet normal -0.0 -0.0 1.0
  outer loop
    vertex 18.267308152372447 111.95325326008941 3.175
    vertex 32.325013348364905 60.8140774848591 3.175
    vertex 18.526150213831865 112.31843564123929 3.175
  endloop
endfacet
facet normal -0.0 -0.0 1.0
  outer loop
    vertex 18.526150213831865 112.31843564123929 3.175
    vertex 32.325013348364905 60.8140774848591 3.175
    vertex 18.850477773402996 112.60958117652055 3.175
  endloop
endfacet
facet normal -0.0 -0.0 1.0
  outer loop
    vertex 18.850477773402996 112.60958117652055 3.175
    vertex 32.325013348364905 60.8140774848591 3.175
    vertex 19.22525793862506 112.8212752603888 3.175
  endloop
endfacet
facet normal -0.0 -0.0 1.0
  outer loop
    vertex 19.22525793862506 112.8212752603888 3.175
    vertex 32.325013348364905 60.8140774848591 3.175
    vertex 19.63545781703713 112.9481032872996 3.175
  endloop
endfacet
facet normal -0.0 -0.0 1.0
  outer loop
    vertex 19.63545781703713 112.9481032872996 3.175
    vertex 32.325013348364905 60.8140774848591 3.175
    vertex 20.066044516178128 112.98465065170853 3.175
  endloop
endfacet
facet normal -0.0 -0.0 1.0
  outer loop
    vertex 20.066044516178128 112.98465065170853 3.175
    vertex 32.325013348364905 60.8140774848591 3.175
    vertex 20.501985143587117 112.92550274807111 3.175
  endloop
endfacet
facet normal -0.0 -0.0 1.0
  outer loop
    vertex 20.501985143587117 112.92550274807111 3.175
    vertex 32.325013348364905 60.8140774848591 3.175
    vertex 20.885425644400158 112.78658015227431 3.175
  endloop
endfacet
facet normal -0.0 -0.0 1.0
  outer loop
    vertex 20.885425644400158 112.78658015227431 3.175
    vertex 32.325013348364905 60.8140774848591 3.175
    vertex 27.39585250026643 103.17739385063663 3.175
  endloop
endfacet
facet normal -0.0 -0.0 1.0
  outer loop
    vertex 27.39585250026643 103.17739385063663 3.175
    vertex 32.325013348364905 60.8140774848591 3.175
    vertex 50.753283412809694 80.60822692435467 3.175
  endloop
endfacet
facet normal -0.0 -0.0 1.0
  outer loop
    vertex 27.39585250026643 103.17739385063663 3.175
    vertex 50.753283412809694 80.60822692435467 3.175
    vertex 60.91541996799294 87.92719750238687 3.175
  endloop
endfacet
facet normal -0.0 -0.0 1.0
  outer loop
    vertex 50.753283412809694 80.60822692435467 3.175
    vertex 32.325013348364905 60.8140774848591 3.175
    vertex 50.753283412809694 6.880661942661867 3.175
  endloop
endfacet
facet normal -0.0 -0.0 1.0
  outer loop
    vertex 50.753283412809694 80.60822692435467 3.175
    vertex 50.753283412809694 6.880661942661867 3.175
    vertex 50.753283412809694 19.23039693969936 3.175
  endloop
endfacet
facet normal -0.0 -0.0 1.0
  outer loop
    vertex 50.753283412809694 80.60822692435467 3.175
    vertex 50.753283412809694 19.23039693969936 3.175
    vertex 50.753283412809694 68.25849192731728 3.175
  endloop
endfacet
facet normal -0.0 -0.0 1.0
  outer loop
    vertex 60.91541996799294 87.92719750238687 3.175
    vertex 50.753283412809694 80.60822692435467 3.175
    vertex 54.42841028446031 80.60822692435467 3.175
  endloop
endfacet
facet normal -0.0 -0.0 1.0
  outer loop
    vertex 60.91541996799294 87.92719750238687 3.175
    vertex 54.42841028446031 80.60822692435467 3.175
    vertex 59.785982162970676 0.0 3.175
  endloop
endfacet
facet normal -0.0 -0.0 1.0
  outer loop
    vertex 60.91541996799294 87.92719750238687 3.175
    vertex 59.785982162970676 0.0 3.175
    vertex 60.30871059103691 0.037496685891504095 3.175
  endloop
endfacet
facet normal -0.0 -0.0 1.0
  outer loop
    vertex 60.91541996799294 87.92719750238687 3.175
    vertex 60.30871059103691 0.037496685891504095 3.175
    vertex 60.72837484878969 0.16953104600439825 3.175
  endloop
endfacet
facet normal -0.0 -0.0 1.0
  outer loop
    vertex 60.91541996799294 87.92719750238687 3.175
    vertex 60.72837484878969 0.16953104600439825 3.175
    vertex 61.102460311298316 0.3858839840009846 3.175
  endloop
endfacet
facet normal -0.0 -0.0 1.0
  outer loop
    vertex 60.91541996799294 87.92719750238687 3.175
    vertex 61.102460311298316 0.3858839840009846 3.175
    vertex 61.180991556072556 87.74526791736277 3.175
  endloop
endfacet
facet normal -0.0 -0.0 1.0
  outer loop
    vertex 61.180991556072556 87.74526791736277 3.175
    vertex 61.102460311298316 0.3858839840009846 3.175
    vertex 61.41966787529308 0.6752563966112035 3.175
  endloop
endfacet
facet normal -0.0 -0.0 1.0
  outer loop
    vertex 61.180991556072556 87.74526791736277 3.175
    vertex 61.41966787529308 0.6752563966112035 3.175
    vertex 61.41126317605712 87.52594381104454 3.175
  endloop
endfacet
facet normal -0.0 -0.0 1.0
  outer loop
    vertex 61.41126317605712 87.52594381104454 3.175
    vertex 61.41966787529308 0.6752563966112035 3.175
    vertex 61.752554625302004 86.99585017503647 3.175
  endloop
endfacet
facet normal -0.0 -0.0 1.0
  outer loop
    vertex 61.752554625302004 86.99585017503647 3.175
    vertex 61.41966787529308 0.6752563966112035 3.175
    vertex 61.66869843750406 1.026349180565311 3.175
  endloop
endfacet
facet normal -0.0 -0.0 1.0
  outer loop
    vertex 61.752554625302004 86.99585017503647 3.175
    vertex 61.66869843750406 1.026349180565311 3.175
    vertex 61.83825289466141 1.427863232593428 3.175
  endloop
endfacet
facet normal -0.0 -0.0 1.0
  outer loop
    vertex 61.752554625302004 86.99585017503647 3.175
    vertex 61.83825289466141 1.427863232593428 3.175
    vertex 61.85689851134357 86.69544971560217 3.175
  endloop
endfacet
facet normal -0.0 -0.0 1.0
  outer loop
    vertex 61.85689851134357 86.69544971560217 3.175
    vertex 61.83825289466141 1.427863232593428 3.175
    vertex 61.9170321434951 1.868499449425788 3.175
  endloop
endfacet
facet normal -0.0 -0.0 1.0
  outer loop
    vertex 61.85689851134357 86.69544971560217 3.175
    vertex 61.9170321434951 1.868499449425788 3.175
    vertex 61.91259054285182 86.37839287538469 3.175
  endloop
endfacet
facet normal -0.0 -0.0 1.0
  outer loop
    vertex 54.42841028446031 19.23039693969936 3.175
    vertex 50.753283412809694 68.25849192731728 3.175
    vertex 50.753283412809694 19.23039693969936 3.175
  endloop
endfacet
facet normal -0.0 -0.0 1.0
  outer loop
    vertex 50.753283412809694 68.25849192731728 3.175
    vertex 54.42841028446031 19.23039693969936 3.175
    vertex 54.42841028446031 68.25849192731728 3.175
  endloop
endfacet
facet normal -0.0 -0.0 1.0
  outer loop
    vertex 27.39585250026643 103.17739385063663 3.175
    vertex 28.10781749959253 109.38939523670035 3.175
    vertex 20.885425644400158 112.78658015227431 3.175
  endloop
endfacet
facet normal -0.0 -0.0 1.0
  outer loop
    vertex 28.10781749959253 109.38939523670035 3.175
    vertex 27.39585250026643 103.17739385063663 3.175
    vertex 29.09342976319818 106.7884326372343 3.175
  endloop
endfacet
facet normal -0.0 -0.0 1.0
  outer loop
    vertex 28.10781749959253 109.38939523670035 3.175
    vertex 29.09342976319818 106.7884326372343 3.175
    vertex 28.493188391788056 109.1520210354421 3.175
  endloop
endfacet
facet normal -0.0 -0.0 1.0
  outer loop
    vertex 28.493188391788056 109.1520210354421 3.175
    vertex 29.09342976319818 106.7884326372343 3.175
    vertex 28.80606186470341 108.84485703059995 3.175
  endloop
endfacet
facet normal -0.0 -0.0 1.0
  outer loop
    vertex 28.80606186470341 108.84485703059995 3.175
    vertex 29.09342976319818 106.7884326372343 3.175
    vertex 29.041022541856297 108.48293872744826 3.175
  endloop
endfacet
facet normal -0.0 -0.0 1.0
  outer loop
    vertex 29.041022541856297 108.48293872744826 3.175
    vertex 29.09342976319818 106.7884326372343 3.175
    vertex 29.192655046764603 108.08130163126138 3.175
  endloop
endfacet
facet normal -0.0 -0.0 1.0
  outer loop
    vertex 29.192655046764603 108.08130163126138 3.175
    vertex 29.09342976319818 106.7884326372343 3.175
    vertex 29.224274033917737 107.21901308088005 3.175
  endloop
endfacet
facet normal -0.0 -0.0 1.0
  outer loop
    vertex 29.192655046764603 108.08130163126138 3.175
    vertex 29.224274033917737 107.21901308088005 3.175
    vertex 29.25554400294582 107.6549812473139 3.175
  endloop
endfacet
facet normal 0.999999998618872 5.255716765328545e-05 0.0
  outer loop
    vertex 61.91259054285182 86.37839287538469 0.0
    vertex 61.9170321434951 1.868499449425788 3.175
    vertex 61.9170321434951 1.868499449425788 0.0
  endloop
endfacet
facet normal 0.999999998618872 5.255716765328545e-05 0.0
  outer loop
    vertex 61.9170321434951 1.868499449425788 3.175
    vertex 61.91259054285182 86.37839287538469 0.0
    vertex 61.91259054285182 86.37839287538469 3.175
  endloop
endfacet
facet normal 0.9843911323155954 -0.1759945982648895 0.0
  outer loop
    vertex 61.9170321434951 1.868499449425788 0.0
    vertex 61.83825289466141 1.427863232593428 3.175
    vertex 61.83825289466141 1.427863232593428 0.0
  endloop
endfacet
facet normal 0.9843911323155954 -0.1759945982648895 0.0
  outer loop
    vertex 61.83825289466141 1.427863232593428 3.175
    vertex 61.9170321434951 1.868499449425788 0.0
    vertex 61.9170321434951 1.868499449425788 3.175
  endloop
endfacet
facet normal 0.9212279353704028 -0.38902325263817455 0.0
  outer loop
    vertex 61.83825289466141 1.427863232593428 0.0
    vertex 61.66869843750406 1.026349180565311 3.175
    vertex 61.66869843750406 1.026349180565311 0.0
  endloop
endfacet
facet normal 0.9212279353704028 -0.38902325263817455 0.0
  outer loop
    vertex 61.66869843750406 1.026349180565311 3.175
    vertex 61.83825289466141 1.427863232593428 0.0
    vertex 61.83825289466141 1.427863232593428 3.175
  endloop
endfacet
facet normal 0.8156519184805778 -0.5785429524926848 0.0
  outer loop
    vertex 61.66869843750406 1.026349180565311 0.0
    vertex 61.41966787529308 0.6752563966112035 3.175
    vertex 61.41966787529308 0.6752563966112035 0.0
  endloop
endfacet
facet normal 0.8156519184805778 -0.5785429524926848 0.0
  outer loop
    vertex 61.41966787529308 0.6752563966112035 3.175
    vertex 61.66869843750406 1.026349180565311 0.0
    vertex 61.66869843750406 1.026349180565311 3.175
  endloop
endfacet
facet normal 0.6739493697607748 -0.7387775355268015 0.0
  outer loop
    vertex 61.41966787529308 0.6752563966112035 3.175
    vertex 61.102460311298316 0.3858839840009846 0.0
    vertex 61.41966787529308 0.6752563966112035 0.0
  endloop
endfacet
facet normal 0.6739493697607748 -0.7387775355268015 0.0
  outer loop
    vertex 61.102460311298316 0.3858839840009846 0.0
    vertex 61.41966787529308 0.6752563966112035 3.175
    vertex 61.102460311298316 0.3858839840009846 3.175
  endloop
endfacet
facet normal 0.5006499816885333 -0.8656498113182208 0.0
  outer loop
    vertex 61.102460311298316 0.3858839840009846 3.175
    vertex 60.72837484878969 0.16953104600439825 0.0
    vertex 61.102460311298316 0.3858839840009846 0.0
  endloop
endfacet
facet normal 0.5006499816885333 -0.8656498113182208 0.0
  outer loop
    vertex 60.72837484878969 0.16953104600439825 0.0
    vertex 61.102460311298316 0.3858839840009846 3.175
    vertex 60.72837484878969 0.16953104600439825 3.175
  endloop
endfacet
facet normal 0.30011594793615853 -0.9539027297342119 0.0
  outer loop
    vertex 60.72837484878969 0.16953104600439825 3.175
    vertex 60.30871059103691 0.037496685891504095 0.0
    vertex 60.72837484878969 0.16953104600439825 0.0
  endloop
endfacet
facet normal 0.30011594793615853 -0.9539027297342119 0.0
  outer loop
    vertex 60.30871059103691 0.037496685891504095 0.0
    vertex 60.72837484878969 0.16953104600439825 3.175
    vertex 60.30871059103691 0.037496685891504095 3.175
  endloop
endfacet
facet normal 0.07154878838169781 -0.9974371012154655 0.0
  outer loop
    vertex 60.30871059103691 0.037496685891504095 3.175
    vertex 59.785982162970676 0.0 0.0
    vertex 60.30871059103691 0.037496685891504095 0.0
  endloop
endfacet
facet normal 0.07154878838169781 -0.9974371012154655 0.0
  outer loop
    vertex 59.785982162970676 0.0 0.0
    vertex 60.30871059103691 0.037496685891504095 3.175
    vertex 59.785982162970676 0.0 3.175
  endloop
endfacet
facet normal -0.0 -1.0 -0.0
  outer loop
    vertex 59.785982162970676 0.0 3.175
    vertex 1.9999999994998583 0.0 0.0
    vertex 59.785982162970676 0.0 0.0
  endloop
endfacet
facet normal -0.0 -1.0 -0.0
  outer loop
    vertex 1.9999999994998583 0.0 0.0
    vertex 59.785982162970676 0.0 3.175
    vertex 1.9999999994998583 0.0 3.175
  endloop
endfacet
facet normal -0.1121712097973541 -0.9936888948220153 -0.0
  outer loop
    vertex 1.9999999994998583 0.0 3.175
    vertex 1.5502613667935152 0.05076812952842182 0.0
    vertex 1.9999999994998583 0.0 0.0
  endloop
endfacet
facet normal -0.1121712097973541 -0.9936888948220153 -0.0
  outer loop
    vertex 1.5502613667935152 0.05076812952842182 0.0
    vertex 1.9999999994998583 0.0 3.175
    vertex 1.5502613667935152 0.05076812952842182 3.175
  endloop
endfacet
facet normal -0.3302000155330543 -0.9439109861326812 -0.0
  outer loop
    vertex 1.5502613667935152 0.05076812952842182 3.175
    vertex 1.1364165836712432 0.19553978260041943 0.0
    vertex 1.5502613667935152 0.05076812952842182 0.0
  endloop
endfacet
facet normal -0.3302000155330543 -0.9439109861326812 -0.0
  outer loop
    vertex 1.1364165836712432 0.19553978260041943 0.0
    vertex 1.5502613667935152 0.05076812952842182 3.175
    vertex 1.1364165836712432 0.19553978260041943 3.175
  endloop
endfacet
facet normal -0.52719400080725 -0.8497449532141073 -0.0
  outer loop
    vertex 1.1364165836712432 0.19553978260041943 3.175
    vertex 0.7697647534029782 0.4230158559460685 0.0
    vertex 1.1364165836712432 0.19553978260041943 0.0
  endloop
endfacet
facet normal -0.52719400080725 -0.8497449532141073 -0.0
  outer loop
    vertex 0.7697647534029782 0.4230158559460685 0.0
    vertex 1.1364165836712432 0.19553978260041943 3.175
    vertex 0.7697647534029782 0.4230158559460685 3.175
  endloop
endfacet
facet normal -0.6962176139455872 -0.7178307837031741 -0.0
  outer loop
    vertex 0.7697647534029782 0.4230158559460685 3.175
    vertex 0.4616049792586332 0.7218972462954447 0.0
    vertex 0.7697647534029782 0.4230158559460685 0.0
  endloop
endfacet
facet normal -0.6962176139455872 -0.7178307837031741 -0.0
  outer loop
    vertex 0.4616049792586332 0.7218972462954447 0.0
    vertex 0.7697647534029782 0.4230158559460685 3.175
    vertex 0.4616049792586332 0.7218972462954447 3.175
  endloop
endfacet
facet normal -0.8330732906734605 -0.5531626274130349 -0.0
  outer loop
    vertex 0.2232363645081775 1.080884850378759 3.175
    vertex 0.4616049792586332 0.7218972462954447 0.0
    vertex 0.4616049792586332 0.7218972462954447 3.175
  endloop
endfacet
facet normal -0.8330732906734605 -0.5531626274130349 -0.0
  outer loop
    vertex 0.4616049792586332 0.7218972462954447 0.0
    vertex 0.2232363645081775 1.080884850378759 3.175
    vertex 0.2232363645081775 1.080884850378759 0.0
  endloop
endfacet
facet normal -0.9330123321069622 -0.35984439433778603 -0.0
  outer loop
    vertex 0.06595801242135506 1.4886795649261773 3.175
    vertex 0.2232363645081775 1.080884850378759 0.0
    vertex 0.2232363645081775 1.080884850378759 3.175
  endloop
endfacet
facet normal -0.9330123321069622 -0.35984439433778603 -0.0
  outer loop
    vertex 0.2232363645081775 1.080884850378759 0.0
    vertex 0.06595801242135506 1.4886795649261773 3.175
    vertex 0.06595801242135506 1.4886795649261773 0.0
  endloop
endfacet
facet normal -0.9895491563620936 -0.14419593317104554 -0.0
  outer loop
    vertex 0.0010690262681353423 1.9339822866675949 3.175
    vertex 0.06595801242135506 1.4886795649261773 0.0
    vertex 0.06595801242135506 1.4886795649261773 3.175
  endloop
endfacet
facet normal -0.9895491563620936 -0.14419593317104554 -0.0
  outer loop
    vertex 0.06595801242135506 1.4886795649261773 0.0
    vertex 0.0010690262681353423 1.9339822866675949 3.175
    vertex 0.0010690262681353423 1.9339822866675949 0.0
  endloop
endfacet
facet normal -0.9999999999527367 -9.722474218718794e-06 -0.0
  outer loop
    vertex 0.0 111.88811988948147 3.175
    vertex 0.0010690262681353423 1.9339822866675949 0.0
    vertex 0.0010690262681353423 1.9339822866675949 3.175
  endloop
endfacet
facet normal -0.9999999999527367 -9.722474218718794e-06 -0.0
  outer loop
    vertex 0.0010690262681353423 1.9339822866675949 0.0
    vertex 0.0 111.88811988948147 3.175
    vertex 0.0 111.88811988948147 0.0
  endloop
endfacet
facet normal -0.9995280012127225 0.030720917819947367 0.0
  outer loop
    vertex 0.043995307404670475 113.31954006809269 3.175
    vertex 0.0 111.88811988948147 0.0
    vertex 0.0 111.88811988948147 3.175
  endloop
endfacet
facet normal -0.9995280012127225 0.030720917819947367 0.0
  outer loop
    vertex 0.0 111.88811988948147 0.0
    vertex 0.043995307404670475 113.31954006809269 3.175
    vertex 0.043995307404670475 113.31954006809269 0.0
  endloop
endfacet
facet normal -0.9382700378800619 0.3459036513489659 0.0
  outer loop
    vertex 0.23953152471009592 113.84993566612295 3.175
    vertex 0.043995307404670475 113.31954006809269 0.0
    vertex 0.043995307404670475 113.31954006809269 3.175
  endloop
endfacet
facet normal -0.9382700378800619 0.3459036513489659 0.0
  outer loop
    vertex 0.043995307404670475 113.31954006809269 0.0
    vertex 0.23953152471009592 113.84993566612295 3.175
    vertex 0.23953152471009592 113.84993566612295 0.0
  endloop
endfacet
facet normal -0.804016299487248 0.594607257068758 0.0
  outer loop
    vertex 0.5656922113588057 114.29096376525897 3.175
    vertex 0.23953152471009592 113.84993566612295 0.0
    vertex 0.23953152471009592 113.84993566612295 3.175
  endloop
endfacet
facet normal -0.804016299487248 0.594607257068758 0.0
  outer loop
    vertex 0.23953152471009592 113.84993566612295 0.0
    vertex 0.5656922113588057 114.29096376525897 3.175
    vertex 0.5656922113588057 114.29096376525897 0.0
  endloop
endfacet
facet normal -0.614429639114368 0.788971620895066 0.0
  outer loop
    vertex 0.5656922113588057 114.29096376525897 3.175
    vertex 0.9941360818881926 114.62462419838263 0.0
    vertex 0.5656922113588057 114.29096376525897 0.0
  endloop
endfacet
facet normal -0.614429639114368 0.788971620895066 0.0
  outer loop
    vertex 0.9941360818881926 114.62462419838263 0.0
    vertex 0.5656922113588057 114.29096376525897 3.175
    vertex 0.9941360818881926 114.62462419838263 3.175
  endloop
endfacet
facet normal -0.38299353619815046 0.9237510223163145 0.0
  outer loop
    vertex 0.9941360818881926 114.62462419838263 3.175
    vertex 1.4965218508357059 114.83291679837605 0.0
    vertex 0.9941360818881926 114.62462419838263 0.0
  endloop
endfacet
facet normal -0.38299353619815046 0.9237510223163145 0.0
  outer loop
    vertex 1.4965218508357059 114.83291679837605 0.0
    vertex 0.9941360818881926 114.62462419838263 3.175
    vertex 1.4965218508357059 114.83291679837605 3.175
  endloop
endfacet
facet normal -0.11765559417282478 0.9930544603191911 0.0
  outer loop
    vertex 1.4965218508357059 114.83291679837605 3.175
    vertex 2.044508232738502 114.89784139812123 0.0
    vertex 1.4965218508357059 114.83291679837605 0.0
  endloop
endfacet
facet normal -0.11765559417282478 0.9930544603191911 0.0
  outer loop
    vertex 2.044508232738502 114.89784139812123 0.0
    vertex 1.4965218508357059 114.83291679837605 3.175
    vertex 2.044508232738502 114.89784139812123 3.175
  endloop
endfacet
facet normal 0.16819174349316424 0.9857542987077104 0.0
  outer loop
    vertex 2.044508232738502 114.89784139812123 3.175
    vertex 2.6097539421339726 114.80139783050008 0.0
    vertex 2.044508232738502 114.89784139812123 0.0
  endloop
endfacet
facet normal 0.16819174349316424 0.9857542987077104 0.0
  outer loop
    vertex 2.6097539421339726 114.80139783050008 0.0
    vertex 2.044508232738502 114.89784139812123 3.175
    vertex 2.6097539421339726 114.80139783050008 3.175
  endloop
endfacet
facet normal 0.42418396044724505 0.9055760419198875 0.0
  outer loop
    vertex 2.6097539421339726 114.80139783050008 3.175
    vertex 16.534200133732963 108.27900052848582 0.0
    vertex 2.6097539421339726 114.80139783050008 0.0
  endloop
endfacet
facet normal 0.42418396044724505 0.9055760419198875 0.0
  outer loop
    vertex 16.534200133732963 108.27900052848582 0.0
    vertex 2.6097539421339726 114.80139783050008 3.175
    vertex 16.534200133732963 108.27900052848582 3.175
  endloop
endfacet
facet normal -0.904434447753102 0.42661262254830357 0.0
  outer loop
    vertex 18.267308152372447 111.95325326008941 3.175
    vertex 16.534200133732963 108.27900052848582 0.0
    vertex 16.534200133732963 108.27900052848582 3.175
  endloop
endfacet
facet normal -0.904434447753102 0.42661262254830357 0.0
  outer loop
    vertex 16.534200133732963 108.27900052848582 0.0
    vertex 18.267308152372447 111.95325326008941 3.175
    vertex 18.267308152372447 111.95325326008941 0.0
  endloop
endfacet
facet normal -0.815844029195243 0.5782720121417527 0.0
  outer loop
    vertex 18.526150213831865 112.31843564123929 3.175
    vertex 18.267308152372447 111.95325326008941 0.0
    vertex 18.267308152372447 111.95325326008941 3.175
  endloop
endfacet
facet normal -0.815844029195243 0.5782720121417527 0.0
  outer loop
    vertex 18.267308152372447 111.95325326008941 0.0
    vertex 18.526150213831865 112.31843564123929 3.175
    vertex 18.526150213831865 112.31843564123929 0.0
  endloop
endfacet
facet normal -0.6680143803985881 0.7441483639575449 0.0
  outer loop
    vertex 18.526150213831865 112.31843564123929 3.175
    vertex 18.850477773402996 112.60958117652055 0.0
    vertex 18.526150213831865 112.31843564123929 0.0
  endloop
endfacet
facet normal -0.6680143803985881 0.7441483639575449 0.0
  outer loop
    vertex 18.850477773402996 112.60958117652055 0.0
    vertex 18.526150213831865 112.31843564123929 3.175
    vertex 18.850477773402996 112.60958117652055 3.175
  endloop
endfacet
facet normal -0.49181393396617096 0.8707003240821257 0.0
  outer loop
    vertex 18.850477773402996 112.60958117652055 3.175
    vertex 19.22525793862506 112.8212752603888 0.0
    vertex 18.850477773402996 112.60958117652055 0.0
  endloop
endfacet
facet normal -0.49181393396617096 0.8707003240821257 0.0
  outer loop
    vertex 19.22525793862506 112.8212752603888 0.0
    vertex 18.850477773402996 112.60958117652055 3.175
    vertex 19.22525793862506 112.8212752603888 3.175
  endloop
endfacet
facet normal -0.2953891254559201 0.9553770274412016 0.0
  outer loop
    vertex 19.22525793862506 112.8212752603888 3.175
    vertex 19.63545781703713 112.9481032872996 0.0
    vertex 19.22525793862506 112.8212752603888 0.0
  endloop
endfacet
facet normal -0.2953891254559201 0.9553770274412016 0.0
  outer loop
    vertex 19.63545781703713 112.9481032872996 0.0
    vertex 19.22525793862506 112.8212752603888 3.175
    vertex 19.63545781703713 112.9481032872996 3.175
  endloop
endfacet
facet normal -0.0845739609316755 0.9964172043538426 0.0
  outer loop
    vertex 19.63545781703713 112.9481032872996 3.175
    vertex 20.066044516178128 112.98465065170853 0.0
    vertex 19.63545781703713 112.9481032872996 0.0
  endloop
endfacet
facet normal -0.0845739609316755 0.9964172043538426 0.0
  outer loop
    vertex 20.066044516178128 112.98465065170853 0.0
    vertex 19.63545781703713 112.9481032872996 3.175
    vertex 20.066044516178128 112.98465065170853 3.175
  endloop
endfacet
facet normal 0.13444694961616052 0.9909207928683855 0.0
  outer loop
    vertex 20.066044516178128 112.98465065170853 3.175
    vertex 20.501985143587117 112.92550274807111 0.0
    vertex 20.066044516178128 112.98465065170853 0.0
  endloop
endfacet
facet normal 0.13444694961616052 0.9909207928683855 0.0
  outer loop
    vertex 20.501985143587117 112.92550274807111 0.0
    vertex 20.066044516178128 112.98465065170853 3.175
    vertex 20.501985143587117 112.92550274807111 3.175
  endloop
endfacet
facet normal 0.3406376755228677 0.9401946468760485 0.0
  outer loop
    vertex 20.501985143587117 112.92550274807111 3.175
    vertex 20.885425644400158 112.78658015227431 0.0
    vertex 20.501985143587117 112.92550274807111 0.0
  endloop
endfacet
facet normal 0.3406376755228677 0.9401946468760485 0.0
  outer loop
    vertex 20.885425644400158 112.78658015227431 0.0
    vertex 20.501985143587117 112.92550274807111 3.175
    vertex 20.885425644400158 112.78658015227431 3.175
  endloop
endfacet
facet normal 0.42563416924044195 0.904895327634638 0.0
  outer loop
    vertex 20.885425644400158 112.78658015227431 3.175
    vertex 28.10781749959253 109.38939523670035 0.0
    vertex 20.885425644400158 112.78658015227431 0.0
  endloop
endfacet
facet normal 0.42563416924044195 0.904895327634638 0.0
  outer loop
    vertex 28.10781749959253 109.38939523670035 0.0
    vertex 20.885425644400158 112.78658015227431 3.175
    vertex 28.10781749959253 109.38939523670035 3.175
  endloop
endfacet
facet normal 0.5244545553872231 0.8514384413059998 0.0
  outer loop
    vertex 28.10781749959253 109.38939523670035 3.175
    vertex 28.493188391788056 109.1520210354421 0.0
    vertex 28.10781749959253 109.38939523670035 0.0
  endloop
endfacet
facet normal 0.5244545553872231 0.8514384413059998 0.0
  outer loop
    vertex 28.493188391788056 109.1520210354421 0.0
    vertex 28.10781749959253 109.38939523670035 3.175
    vertex 28.493188391788056 109.1520210354421 3.175
  endloop
endfacet
facet normal 0.7005658554839188 0.7135877536295625 0.0
  outer loop
    vertex 28.493188391788056 109.1520210354421 3.175
    vertex 28.80606186470341 108.84485703059995 0.0
    vertex 28.493188391788056 109.1520210354421 0.0
  endloop
endfacet
facet normal 0.7005658554839188 0.7135877536295625 0.0
  outer loop
    vertex 28.80606186470341 108.84485703059995 0.0
    vertex 28.493188391788056 109.1520210354421 3.175
    vertex 28.80606186470341 108.84485703059995 3.175
  endloop
endfacet
facet normal 0.8387465832699728 0.5445219637929647 0.0
  outer loop
    vertex 28.80606186470341 108.84485703059995 0.0
    vertex 29.041022541856297 108.48293872744826 3.175
    vertex 29.041022541856297 108.48293872744826 0.0
  endloop
endfacet
facet normal 0.8387465832699728 0.5445219637929647 0.0
  outer loop
    vertex 29.041022541856297 108.48293872744826 3.175
    vertex 28.80606186470341 108.84485703059995 0.0
    vertex 28.80606186470341 108.84485703059995 3.175
  endloop
endfacet
facet normal 0.9355468193324955 0.35320270219358596 0.0
  outer loop
    vertex 29.041022541856297 108.48293872744826 0.0
    vertex 29.192655046764603 108.08130163126138 3.175
    vertex 29.192655046764603 108.08130163126138 0.0
  endloop
endfacet
facet normal 0.9355468193324955 0.35320270219358596 0.0
  outer loop
    vertex 29.192655046764603 108.08130163126138 3.175
    vertex 29.041022541856297 108.48293872744826 0.0
    vertex 29.041022541856297 108.48293872744826 3.175
  endloop
endfacet
facet normal 0.9892939729623011 0.14593640759065493 0.0
  outer loop
    vertex 29.192655046764603 108.08130163126138 0.0
    vertex 29.25554400294582 107.6549812473139 3.175
    vertex 29.25554400294582 107.6549812473139 0.0
  endloop
endfacet
facet normal 0.9892939729623011 0.14593640759065493 0.0
  outer loop
    vertex 29.25554400294582 107.6549812473139 3.175
    vertex 29.192655046764603 108.08130163126138 0.0
    vertex 29.192655046764603 108.08130163126138 3.175
  endloop
endfacet
facet normal 0.9974376195791156 -0.07154156168513374 0.0
  outer loop
    vertex 29.25554400294582 107.6549812473139 0.0
    vertex 29.224274033917737 107.21901308088005 3.175
    vertex 29.224274033917737 107.21901308088005 0.0
  endloop
endfacet
facet normal 0.9974376195791156 -0.07154156168513374 0.0
  outer loop
    vertex 29.224274033917737 107.21901308088005 3.175
    vertex 29.25554400294582 107.6549812473139 0.0
    vertex 29.25554400294582 107.6549812473139 3.175
  endloop
endfacet
facet normal 0.9567987925271111 -0.29075087380550074 0.0
  outer loop
    vertex 29.224274033917737 107.21901308088005 0.0
    vertex 29.09342976319818 106.7884326372343 3.175
    vertex 29.09342976319818 106.7884326372343 0.0
  endloop
endfacet
facet normal 0.9567987925271111 -0.29075087380550074 0.0
  outer loop
    vertex 29.09342976319818 106.7884326372343 3.175
    vertex 29.224274033917737 107.21901308088005 0.0
    vertex 29.224274033917737 107.21901308088005 3.175
  endloop
endfacet
facet normal 0.904986165142576 -0.42544099579205336 0.0
  outer loop
    vertex 29.09342976319818 106.7884326372343 0.0
    vertex 27.39585250026643 103.17739385063663 3.175
    vertex 27.39585250026643 103.17739385063663 0.0
  endloop
endfacet
facet normal 0.904986165142576 -0.42544099579205336 0.0
  outer loop
    vertex 27.39585250026643 103.17739385063663 3.175
    vertex 29.09342976319818 106.7884326372343 0.0
    vertex 29.09342976319818 106.7884326372343 3.175
  endloop
endfacet
facet normal 0.4141186512780136 0.9102229082283522 0.0
  outer loop
    vertex 27.39585250026643 103.17739385063663 3.175
    vertex 60.91541996799294 87.92719750238687 0.0
    vertex 27.39585250026643 103.17739385063663 0.0
  endloop
endfacet
facet normal 0.4141186512780136 0.9102229082283522 0.0
  outer loop
    vertex 60.91541996799294 87.92719750238687 0.0
    vertex 27.39585250026643 103.17739385063663 3.175
    vertex 60.91541996799294 87.92719750238687 3.175
  endloop
endfacet
facet normal 0.565155053974988 0.8249847058985569 0.0
  outer loop
    vertex 60.91541996799294 87.92719750238687 3.175
    vertex 61.180991556072556 87.74526791736277 0.0
    vertex 60.91541996799294 87.92719750238687 0.0
  endloop
endfacet
facet normal 0.565155053974988 0.8249847058985569 0.0
  outer loop
    vertex 61.180991556072556 87.74526791736277 0.0
    vertex 60.91541996799294 87.92719750238687 3.175
    vertex 61.180991556072556 87.74526791736277 3.175
  endloop
endfacet
facet normal 0.6896845256950249 0.724109974393965 0.0
  outer loop
    vertex 61.180991556072556 87.74526791736277 3.175
    vertex 61.41126317605712 87.52594381104454 0.0
    vertex 61.180991556072556 87.74526791736277 0.0
  endloop
endfacet
facet normal 0.6896845256950249 0.724109974393965 0.0
  outer loop
    vertex 61.41126317605712 87.52594381104454 0.0
    vertex 61.180991556072556 87.74526791736277 3.175
    vertex 61.41126317605712 87.52594381104454 3.175
  endloop
endfacet
facet normal 0.8408052845089368 0.5413376705364646 0.0
  outer loop
    vertex 61.41126317605712 87.52594381104454 0.0
    vertex 61.752554625302004 86.99585017503647 3.175
    vertex 61.752554625302004 86.99585017503647 0.0
  endloop
endfacet
facet normal 0.8408052845089368 0.5413376705364646 0.0
  outer loop
    vertex 61.752554625302004 86.99585017503647 3.175
    vertex 61.41126317605712 87.52594381104454 0.0
    vertex 61.41126317605712 87.52594381104454 3.175
  endloop
endfacet
facet normal 0.9446364645521824 0.328118804457095 0.0
  outer loop
    vertex 61.752554625302004 86.99585017503647 0.0
    vertex 61.85689851134357 86.69544971560217 3.175
    vertex 61.85689851134357 86.69544971560217 0.0
  endloop
endfacet
facet normal 0.9446364645521824 0.328118804457095 0.0
  outer loop
    vertex 61.85689851134357 86.69544971560217 3.175
    vertex 61.752554625302004 86.99585017503647 0.0
    vertex 61.752554625302004 86.99585017503647 3.175
  endloop
endfacet
facet normal 0.9849210375677818 0.17300447900676963 0.0
  outer loop
    vertex 61.85689851134357 86.69544971560217 0.0
    vertex 61.91259054285182 86.37839287538469 3.175
    vertex 61.91259054285182 86.37839287538469 0.0
  endloop
endfacet
facet normal 0.9849210375677818 0.17300447900676963 0.0
  outer loop
    vertex 61.91259054285182 86.37839287538469 3.175
    vertex 61.85689851134357 86.69544971560217 0.0
    vertex 61.85689851134357 86.69544971560217 3.175
  endloop
endfacet
facet normal -0.0 -1.0 -0.0
  outer loop
    vertex 11.391956667970996 80.60822692435467 3.175
    vertex 7.716829796320762 80.60822692435467 0.0
    vertex 11.391956667970996 80.60822692435467 0.0
  endloop
endfacet
facet normal -0.0 -1.0 -0.0
  outer loop
    vertex 7.716829796320762 80.60822692435467 0.0
    vertex 11.391956667970996 80.60822692435467 3.175
    vertex 7.716829796320762 80.60822692435467 3.175
  endloop
endfacet
facet normal 1.0 0.0 0.0
  outer loop
    vertex 7.716829796320762 80.60822692435467 0.0
    vertex 7.716829796320762 68.25849192731728 3.175
    vertex 7.716829796320762 68.25849192731728 0.0
  endloop
endfacet
facet normal 1.0 0.0 0.0
  outer loop
    vertex 7.716829796320762 68.25849192731728 3.175
    vertex 7.716829796320762 80.60822692435467 0.0
    vertex 7.716829796320762 80.60822692435467 3.175
  endloop
endfacet
facet normal -0.0 1.0 0.0
  outer loop
    vertex 7.716829796320762 68.25849192731728 3.175
    vertex 11.391956667970996 68.25849192731728 0.0
    vertex 7.716829796320762 68.25849192731728 0.0
  endloop
endfacet
facet normal -0.0 1.0 0.0
  outer loop
    vertex 11.391956667970996 68.25849192731728 0.0
    vertex 7.716829796320762 68.25849192731728 3.175
    vertex 11.391956667970996 68.25849192731728 3.175
  endloop
endfacet
facet normal -1.0 0.0 0.0
  outer loop
    vertex 11.391956667970996 80.60822692435467 3.175
    vertex 11.391956667970996 68.25849192731728 0.0
    vertex 11.391956667970996 68.25849192731728 3.175
  endloop
endfacet
facet normal -1.0 0.0 0.0
  outer loop
    vertex 11.391956667970996 68.25849192731728 0.0
    vertex 11.391956667970996 80.60822692435467 3.175
    vertex 11.391956667970996 80.60822692435467 0.0
  endloop
endfacet
facet normal 1.0 0.0 0.0
  outer loop
    vertex 50.753283412809694 80.60822692435467 0.0
    vertex 50.753283412809694 68.25849192731728 3.175
    vertex 50.753283412809694 68.25849192731728 0.0
  endloop
endfacet
facet normal 1.0 0.0 0.0
  outer loop
    vertex 50.753283412809694 68.25849192731728 3.175
    vertex 50.753283412809694 80.60822692435467 0.0
    vertex 50.753283412809694 80.60822692435467 3.175
  endloop
endfacet
facet normal -0.0 1.0 0.0
  outer loop
    vertex 50.753283412809694 68.25849192731728 3.175
    vertex 54.42841028446031 68.25849192731728 0.0
    vertex 50.753283412809694 68.25849192731728 0.0
  endloop
endfacet
facet normal -0.0 1.0 0.0
  outer loop
    vertex 54.42841028446031 68.25849192731728 0.0
    vertex 50.753283412809694 68.25849192731728 3.175
    vertex 54.42841028446031 68.25849192731728 3.175
  endloop
endfacet
facet normal -1.0 0.0 0.0
  outer loop
    vertex 54.42841028446031 80.60822692435467 3.175
    vertex 54.42841028446031 68.25849192731728 0.0
    vertex 54.42841028446031 68.25849192731728 3.175
  endloop
endfacet
facet normal -1.0 0.0 0.0
  outer loop
    vertex 54.42841028446031 68.25849192731728 0.0
    vertex 54.42841028446031 80.60822692435467 3.175
    vertex 54.42841028446031 80.60822692435467 0.0
  endloop
endfacet
facet normal -0.0 -1.0 -0.0
  outer loop
    vertex 54.42841028446031 80.60822692435467 3.175
    vertex 50.753283412809694 80.60822692435467 0.0
    vertex 54.42841028446031 80.60822692435467 0.0
  endloop
endfacet
facet normal -0.0 -1.0 -0.0
  outer loop
    vertex 50.753283412809694 80.60822692435467 0.0
    vertex 54.42841028446031 80.60822692435467 3.175
    vertex 50.753283412809694 80.60822692435467 3.175
  endloop
endfacet
facet normal -0.0 -1.0 -0.0
  outer loop
    vertex 54.42841028446031 19.23039693969936 3.175
    vertex 50.753283412809694 19.23039693969936 0.0
    vertex 54.42841028446031 19.23039693969936 0.0
  endloop
endfacet
facet normal -0.0 -1.0 -0.0
  outer loop
    vertex 50.753283412809694 19.23039693969936 0.0
    vertex 54.42841028446031 19.23039693969936 3.175
    vertex 50.753283412809694 19.23039693969936 3.175
  endloop
endfacet
facet normal 1.0 0.0 0.0
  outer loop
    vertex 50.753283412809694 19.23039693969936 0.0
    vertex 50.753283412809694 6.880661942661867 3.175
    vertex 50.753283412809694 6.880661942661867 0.0
  endloop
endfacet
facet normal 1.0 0.0 0.0
  outer loop
    vertex 50.753283412809694 6.880661942661867 3.175
    vertex 50.753283412809694 19.23039693969936 0.0
    vertex 50.753283412809694 19.23039693969936 3.175
  endloop
endfacet
facet normal -0.0 1.0 0.0
  outer loop
    vertex 50.753283412809694 6.880661942661867 3.175
    vertex 54.42841028446031 6.880661942661867 0.0
    vertex 50.753283412809694 6.880661942661867 0.0
  endloop
endfacet
facet normal -0.0 1.0 0.0
  outer loop
    vertex 54.42841028446031 6.880661942661867 0.0
    vertex 50.753283412809694 6.880661942661867 3.175
    vertex 54.42841028446031 6.880661942661867 3.175
  endloop
endfacet
facet normal -1.0 0.0 0.0
  outer loop
    vertex 54.42841028446031 19.23039693969936 3.175
    vertex 54.42841028446031 6.880661942661867 0.0
    vertex 54.42841028446031 6.880661942661867 3.175
  endloop
endfacet
facet normal -1.0 0.0 0.0
  outer loop
    vertex 54.42841028446031 6.880661942661867 0.0
    vertex 54.42841028446031 19.23039693969936 3.175
    vertex 54.42841028446031 19.23039693969936 0.0
  endloop
endfacet
facet normal 1.0 0.0 0.0
  outer loop
    vertex 7.716829796320762 19.23039693969936 0.0
    vertex 7.716829796320762 6.880661942661867 3.175
    vertex 7.716829796320762 6.880661942661867 0.0
  endloop
endfacet
facet normal 1.0 0.0 0.0
  outer loop
    vertex 7.716829796320762 6.880661942661867 3.175
    vertex 7.716829796320762 19.23039693969936 0.0
    vertex 7.716829796320762 19.23039693969936 3.175
  endloop
endfacet
facet normal -0.0 1.0 0.0
  outer loop
    vertex 7.716829796320762 6.880661942661867 3.175
    vertex 11.391956667970996 6.880661942661867 0.0
    vertex 7.716829796320762 6.880661942661867 0.0
  endloop
endfacet
facet normal -0.0 1.0 0.0
  outer loop
    vertex 11.391956667970996 6.880661942661867 0.0
    vertex 7.716829796320762 6.880661942661867 3.175
    vertex 11.391956667970996 6.880661942661867 3.175
  endloop
endfacet
facet normal -1.0 0.0 0.0
  outer loop
    vertex 11.391956667970996 19.23039693969936 3.175
    vertex 11.391956667970996 6.880661942661867 0.0
    vertex 11.391956667970996 6.880661942661867 3.175
  endloop
endfacet
facet normal -1.0 0.0 0.0
  outer loop
    vertex 11.391956667970996 6.880661942661867 0.0
    vertex 11.391956667970996 19.23039693969936 3.175
    vertex 11.391956667970996 19.23039693969936 0.0
  endloop
endfacet
facet normal -0.0 -1.0 -0.0
  outer loop
    vertex 11.391956667970996 19.23039693969936 3.175
    vertex 7.716829796320762 19.23039693969936 0.0
    vertex 11.391956667970996 19.23039693969936 0.0
  endloop
endfacet
facet normal -0.0 -1.0 -0.0
  outer loop
    vertex 7.716829796320762 19.23039693969936 0.0
    vertex 11.391956667970996 19.23039693969936 3.175
    vertex 7.716829796320762 19.23039693969936 3.175
  endloop
endfacet
facet normal 0.9999999999999999 0.0 0.0
  outer loop
    vertex 11.574758031658611 60.8140774848591 0.0
    vertex 11.574758031658611 19.813883328317264 3.175
    vertex 11.574758031658611 19.813883328317264 0.0
  endloop
endfacet
facet normal 0.9999999999999999 0.0 0.0
  outer loop
    vertex 11.574758031658611 19.813883328317264 3.175
    vertex 11.574758031658611 60.8140774848591 0.0
    vertex 11.574758031658611 60.8140774848591 3.175
  endloop
endfacet
facet normal -0.0 1.0 0.0
  outer loop
    vertex 11.574758031658611 19.813883328317264 3.175
    vertex 32.325013348364905 19.813883328317264 0.0
    vertex 11.574758031658611 19.813883328317264 0.0
  endloop
endfacet
facet normal -0.0 1.0 0.0
  outer loop
    vertex 32.325013348364905 19.813883328317264 0.0
    vertex 11.574758031658611 19.813883328317264 3.175
    vertex 32.325013348364905 19.813883328317264 3.175
  endloop
endfacet
facet normal -0.9999999999999999 0.0 0.0
  outer loop
    vertex 32.325013348364905 60.8140774848591 3.175
    vertex 32.325013348364905 19.813883328317264 0.0
    vertex 32.325013348364905 19.813883328317264 3.175
  endloop
endfacet
facet normal -0.9999999999999999 0.0 0.0
  outer loop
    vertex 32.325013348364905 19.813883328317264 0.0
    vertex 32.325013348364905 60.8140774848591 3.175
    vertex 32.325013348364905 60.8140774848591 0.0
  endloop
endfacet
facet normal -0.0 -1.0 -0.0
  outer loop
    vertex 32.325013348364905 60.8140774848591 3.175
    vertex 11.574758031658611 60.8140774848591 0.0
    vertex 32.325013348364905 60.8140774848591 0.0
  endloop
endfacet
facet normal -0.0 -1.0 -0.0
  outer loop
    vertex 11.574758031658611 60.8140774848591 0.0
    vertex 32.325013348364905 60.8140774848591 3.175
    vertex 11.574758031658611 60.8140774848591 3.175
  endloop
endfacet
endsolid body-side
