solid body-front
facet normal 0.0 0.0 -1.0
  outer loop
    vertex 0.00425414374449442 47.13730803832269 0.0
    vertex 1.127986593019159e-14 1.999999999500208 0.0
    vertex 1.127986593019159e-14 46.596794709791276 0.0
  endloop
endfacet
facet normal 0.0 0.0 -1.0
  outer loop
    vertex 1.127986593019159e-14 1.999999999500208 0.0
    vertex 0.00425414374449442 47.13730803832269 0.0
    vertex 0.01684088435378257 1.7392701696820168 0.0
  endloop
endfacet
facet normal 0.0 0.0 -1.0
  outer loop
    vertex 0.01684088435378257 1.7392701696820168 0.0
    vertex 0.00425414374449442 47.13730803832269 0.0
    vertex 0.03749668589145898 47.39323179154575 0.0
  endloop
endfacet
facet normal 0.0 0.0 -1.0
  outer loop
    vertex 0.01684088435378257 1.7392701696820168 0.0
    vertex 0.03749668589145898 47.39323179154575 0.0
    vertex 0.06595801242136634 1.4886795649264255 0.0
  endloop
endfacet
facet normal 0.0 0.0 -1.0
  outer loop
    vertex 0.06595801242136634 1.4886795649264255 0.0
    vertex 0.03749668589145898 47.39323179154575 0.0
    vertex 0.10196132800694126 47.63796217596091 0.0
  endloop
endfacet
facet normal 0.0 0.0 -1.0
  outer loop
    vertex 0.06595801242136634 1.4886795649264255 0.0
    vertex 0.10196132800694126 47.63796217596091 0.0
    vertex 0.14524309671215052 1.2503364727240238 0.0
  endloop
endfacet
facet normal 0.0 0.0 -1.0
  outer loop
    vertex 0.14524309671215052 1.2503364727240238 0.0
    vertex 0.10196132800694126 47.63796217596091 0.0
    vertex 0.1955397826003179 47.86939090407756 0.0
  endloop
endfacet
facet normal 0.0 0.0 -1.0
  outer loop
    vertex 0.14524309671215052 1.2503364727240238 0.0
    vertex 0.1955397826003179 47.86939090407756 0.0
    vertex 0.25258784973555687 1.026349180565514 0.0
  endloop
endfacet
facet normal 0.0 0.0 -1.0
  outer loop
    vertex 0.25258784973555687 1.026349180565514 0.0
    vertex 0.1955397826003179 47.86939090407756 0.0
    vertex 0.31612376218104454 48.085409688405186 0.0
  endloop
endfacet
facet normal 0.0 0.0 -1.0
  outer loop
    vertex 0.25258784973555687 1.026349180565514 0.0
    vertex 0.31612376218104454 48.085409688405186 0.0
    vertex 0.3858839840009846 0.8188259759413729 0.0
  endloop
endfacet
facet normal 0.0 0.0 -1.0
  outer loop
    vertex 0.3858839840009846 0.8188259759413729 0.0
    vertex 0.31612376218104454 48.085409688405186 0.0
    vertex 0.46160497925854294 48.2839102414531 0.0
  endloop
endfacet
facet normal 0.0 0.0 -1.0
  outer loop
    vertex 0.3858839840009846 0.8188259759413729 0.0
    vertex 0.46160497925854294 48.2839102414531 0.0
    vertex 0.5430232120178103 0.6298751463422348 0.0
  endloop
endfacet
facet normal 0.0 0.0 -1.0
  outer loop
    vertex 0.5430232120178103 0.6298751463422348 0.0
    vertex 0.46160497925854294 48.2839102414531 0.0
    vertex 0.6298751463421897 48.46278427573076 0.0
  endloop
endfacet
facet normal 0.0 0.0 -1.0
  outer loop
    vertex 0.5430232120178103 0.6298751463422348 0.0
    vertex 0.6298751463421897 48.46278427573076 0.0
    vertex 0.7218972462955687 0.4616049792586219 0.0
  endloop
endfacet
facet normal 0.0 0.0 -1.0
  outer loop
    vertex 0.7218972462955687 0.4616049792586219 0.0
    vertex 0.6298751463421897 48.46278427573076 0.0
    vertex 0.8188259759412939 48.619923503747565 0.0
  endloop
endfacet
facet normal 0.0 0.0 -1.0
  outer loop
    vertex 0.7218972462955687 0.4616049792586219 0.0
    vertex 0.8188259759412939 48.619923503747565 0.0
    vertex 0.92039779934358 0.3161237621811686 0.0
  endloop
endfacet
facet normal 0.0 0.0 -1.0
  outer loop
    vertex 0.92039779934358 0.3161237621811686 0.0
    vertex 0.8188259759412939 48.619923503747565 0.0
    vertex 1.0263491805653786 48.75321963801297 0.0
  endloop
endfacet
facet normal 0.0 0.0 -1.0
  outer loop
    vertex 0.92039779934358 0.3161237621811686 0.0
    vertex 1.0263491805653786 48.75321963801297 0.0
    vertex 1.136416583671232 0.195539782600442 0.0
  endloop
endfacet
facet normal 0.0 0.0 -1.0
  outer loop
    vertex 1.136416583671232 0.195539782600442 0.0
    vertex 1.0263491805653786 48.75321963801297 0.0
    vertex 1.2503364727238433 48.86056439103636 0.0
  endloop
endfacet
facet normal 0.0 0.0 -1.0
  outer loop
    vertex 1.136416583671232 0.195539782600442 0.0
    vertex 1.2503364727238433 48.86056439103636 0.0
    vertex 1.3678453117879352 0.1019613280070315 0.0
  endloop
endfacet
facet normal 0.0 0.0 -1.0
  outer loop
    vertex 1.3678453117879352 0.1019613280070315 0.0
    vertex 1.2503364727238433 48.86056439103636 0.0
    vertex 1.488679564926087 48.93984947532714 0.0
  endloop
endfacet
facet normal 0.0 0.0 -1.0
  outer loop
    vertex 1.3678453117879352 0.1019613280070315 0.0
    vertex 1.488679564926087 48.93984947532714 0.0
    vertex 1.6125756962031228 0.037496685891504095 0.0
  endloop
endfacet
facet normal 0.0 0.0 -1.0
  outer loop
    vertex 1.6125756962031228 0.037496685891504095 0.0
    vertex 1.488679564926087 48.93984947532714 0.0
    vertex 1.7392701696815205 48.98896660339472 0.0
  endloop
endfacet
facet normal 0.0 0.0 -1.0
  outer loop
    vertex 1.6125756962031228 0.037496685891504095 0.0
    vertex 1.7392701696815205 48.98896660339472 0.0
    vertex 1.868499449426194 0.004254143744471861 0.0
  endloop
endfacet
facet normal 0.0 0.0 -1.0
  outer loop
    vertex 1.868499449426194 0.004254143744471861 0.0
    vertex 1.7392701696815205 48.98896660339472 0.0
    vertex 1.9999999994995539 49.005807487748505 0.0
  endloop
endfacet
facet normal 0.0 0.0 -1.0
  outer loop
    vertex 1.868499449426194 0.004254143744471861 0.0
    vertex 1.9999999994995539 49.005807487748505 0.0
    vertex 2.9633266150259088 0.0 0.0
  endloop
endfacet
facet normal 0.0 0.0 -1.0
  outer loop
    vertex 2.9633266150259088 0.0 0.0
    vertex 1.9999999994995539 49.005807487748505 0.0
    vertex 18.102381939856375 30.67778888128211 0.0
  endloop
endfacet
facet normal 0.0 0.0 -1.0
  outer loop
    vertex 18.102381939856375 30.67778888128211 0.0
    vertex 1.9999999994995539 49.005807487748505 0.0
    vertex 108.13134820868711 49.00155334400399 0.0
  endloop
endfacet
facet normal 0.0 0.0 -1.0
  outer loop
    vertex 18.102381939856375 30.67778888128211 0.0
    vertex 108.13134820868711 49.00155334400399 0.0
    vertex 21.777508883506865 30.67778888128211 0.0
  endloop
endfacet
facet normal 0.0 0.0 -1.0
  outer loop
    vertex 21.777508883506865 30.67778888128211 0.0
    vertex 108.13134820868711 49.00155334400399 0.0
    vertex 21.777508883506865 18.328018606466397 0.0
  endloop
endfacet
facet normal 0.0 0.0 -1.0
  outer loop
    vertex 21.777508883506865 18.328018606466397 0.0
    vertex 108.13134820868711 49.00155334400399 0.0
    vertex 88.2223393102276 30.67778888128211 0.0
  endloop
endfacet
facet normal 0.0 0.0 -1.0
  outer loop
    vertex 88.2223393102276 30.67778888128211 0.0
    vertex 108.13134820868711 49.00155334400399 0.0
    vertex 91.89746618187749 30.67778888128211 0.0
  endloop
endfacet
facet normal 0.0 0.0 -1.0
  outer loop
    vertex 91.89746618187749 30.67778888128211 0.0
    vertex 108.13134820868711 49.00155334400399 0.0
    vertex 91.89746618187749 18.328018606466397 0.0
  endloop
endfacet
facet normal 0.0 0.0 -1.0
  outer loop
    vertex 91.89746618187749 18.328018606466397 0.0
    vertex 108.13134820868711 49.00155334400399 0.0
    vertex 107.9998476586135 0.0 0.0
  endloop
endfacet
facet normal 0.0 0.0 -1.0
  outer loop
    vertex 107.9998476586135 0.0 0.0
    vertex 108.13134820868711 49.00155334400399 0.0
    vertex 108.26057748843138 0.01684088435376001 0.0
  endloop
endfacet
facet normal 0.0 0.0 -1.0
  outer loop
    vertex 108.26057748843138 0.01684088435376001 0.0
    vertex 108.13134820868711 49.00155334400399 0.0
    vertex 108.38727196191013 48.968310801857 0.0
  endloop
endfacet
facet normal 0.0 0.0 -1.0
  outer loop
    vertex 108.26057748843138 0.01684088435376001 0.0
    vertex 108.38727196191013 48.968310801857 0.0
    vertex 108.5111680931868 0.06595801242132122 0.0
  endloop
endfacet
facet normal 0.0 0.0 -1.0
  outer loop
    vertex 108.5111680931868 0.06595801242132122 0.0
    vertex 108.38727196191013 48.968310801857 0.0
    vertex 108.63200234632527 48.90384615974147 0.0
  endloop
endfacet
facet normal 0.0 0.0 -1.0
  outer loop
    vertex 108.5111680931868 0.06595801242132122 0.0
    vertex 108.63200234632527 48.90384615974147 0.0
    vertex 108.74951118538911 0.14524309671213922 0.0
  endloop
endfacet
facet normal 0.0 0.0 -1.0
  outer loop
    vertex 108.74951118538911 0.14524309671213922 0.0
    vertex 108.63200234632527 48.90384615974147 0.0
    vertex 108.86343107444208 48.810267705148014 0.0
  endloop
endfacet
facet normal 0.0 0.0 -1.0
  outer loop
    vertex 108.74951118538911 0.14524309671213922 0.0
    vertex 108.86343107444208 48.810267705148014 0.0
    vertex 108.97349847754771 0.25258784973553433 0.0
  endloop
endfacet
facet normal 0.0 0.0 -1.0
  outer loop
    vertex 108.97349847754771 0.25258784973553433 0.0
    vertex 108.86343107444208 48.810267705148014 0.0
    vertex 109.07944985876983 48.68968372556724 0.0
  endloop
endfacet
facet normal 0.0 0.0 -1.0
  outer loop
    vertex 108.97349847754771 0.25258784973553433 0.0
    vertex 109.07944985876983 48.68968372556724 0.0
    vertex 109.181021682172 0.38588398400100715 0.0
  endloop
endfacet
facet normal 0.0 0.0 -1.0
  outer loop
    vertex 109.181021682172 0.38588398400100715 0.0
    vertex 109.07944985876983 48.68968372556724 0.0
    vertex 109.27795041181798 48.544202508489725 0.0
  endloop
endfacet
facet normal 0.0 0.0 -1.0
  outer loop
    vertex 109.181021682172 0.38588398400100715 0.0
    vertex 109.27795041181798 48.544202508489725 0.0
    vertex 109.3699725117714 0.543023212017833 0.0
  endloop
endfacet
facet normal 0.0 0.0 -1.0
  outer loop
    vertex 109.3699725117714 0.543023212017833 0.0
    vertex 109.27795041181798 48.544202508489725 0.0
    vertex 109.45682444609587 48.37593234140602 0.0
  endloop
endfacet
facet normal 0.0 0.0 -1.0
  outer loop
    vertex 109.3699725117714 0.543023212017833 0.0
    vertex 109.45682444609587 48.37593234140602 0.0
    vertex 109.53824267885503 0.7218972462956703 0.0
  endloop
endfacet
facet normal 0.0 0.0 -1.0
  outer loop
    vertex 109.53824267885503 0.7218972462956703 0.0
    vertex 109.45682444609587 48.37593234140602 0.0
    vertex 109.61396367411272 48.18698151180677 0.0
  endloop
endfacet
facet normal 0.0 0.0 -1.0
  outer loop
    vertex 109.53824267885503 0.7218972462956703 0.0
    vertex 109.61396367411272 48.18698151180677 0.0
    vertex 109.68372389593252 0.920397799343704 0.0
  endloop
endfacet
facet normal 0.0 0.0 -1.0
  outer loop
    vertex 109.68372389593252 0.920397799343704 0.0
    vertex 109.61396367411272 48.18698151180677 0.0
    vertex 109.74725980837816 47.979458307182604 0.0
  endloop
endfacet
facet normal 0.0 0.0 -1.0
  outer loop
    vertex 109.68372389593252 0.920397799343704 0.0
    vertex 109.74725980837816 47.979458307182604 0.0
    vertex 109.80430787551327 1.136416583671345 0.0
  endloop
endfacet
facet normal 0.0 0.0 -1.0
  outer loop
    vertex 109.80430787551327 1.136416583671345 0.0
    vertex 109.74725980837816 47.979458307182604 0.0
    vertex 109.85460456140157 47.75547101502407 0.0
  endloop
endfacet
facet normal 0.0 0.0 -1.0
  outer loop
    vertex 109.80430787551327 1.136416583671345 0.0
    vertex 109.85460456140157 47.75547101502407 0.0
    vertex 109.8978863301067 1.3678453117880707 0.0
  endloop
endfacet
facet normal 0.0 0.0 -1.0
  outer loop
    vertex 109.8978863301067 1.3678453117880707 0.0
    vertex 109.85460456140157 47.75547101502407 0.0
    vertex 109.93388964569235 47.517127922821786 0.0
  endloop
endfacet
facet normal 0.0 0.0 -1.0
  outer loop
    vertex 109.8978863301067 1.3678453117880707 0.0
    vertex 109.93388964569235 47.517127922821786 0.0
    vertex 109.96235097222218 1.612575696203292 0.0
  endloop
endfacet
facet normal 0.0 0.0 -1.0
  outer loop
    vertex 109.96235097222218 1.612575696203292 0.0
    vertex 109.93388964569235 47.517127922821786 0.0
    vertex 109.98300677375991 47.26653731806635 0.0
  endloop
endfacet
facet normal 0.0 0.0 -1.0
  outer loop
    vertex 109.96235097222218 1.612575696203292 0.0
    vertex 109.98300677375991 47.26653731806635 0.0
    vertex 109.99559351436925 1.8684994494264195 0.0
  endloop
endfacet
facet normal 0.0 0.0 -1.0
  outer loop
    vertex 109.99559351436925 1.8684994494264195 0.0
    vertex 109.98300677375991 47.26653731806635 0.0
    vertex 109.99984765811371 47.005807488248294 0.0
  endloop
endfacet
facet normal 0.0 0.0 -1.0
  outer loop
    vertex 109.99559351436925 1.8684994494264195 0.0
    vertex 109.99984765811371 47.005807488248294 0.0
    vertex 109.99984765811374 2.409012777957861 0.0
  endloop
endfacet
facet normal 0.0 0.0 -1.0
  outer loop
    vertex 2.9633266150259088 0.0 0.0
    vertex 18.102381939856375 18.328018606466397 0.0
    vertex 107.9998476586135 0.0 0.0
  endloop
endfacet
facet normal 0.0 0.0 -1.0
  outer loop
    vertex 18.102381939856375 18.328018606466397 0.0
    vertex 2.9633266150259088 0.0 0.0
    vertex 18.102381939856375 30.67778888128211 0.0
  endloop
endfacet
facet normal 0.0 0.0 -1.0
  outer loop
    vertex 107.9998476586135 0.0 0.0
    vertex 18.102381939856375 18.328018606466397 0.0
    vertex 21.777508883506865 18.328018606466397 0.0
  endloop
endfacet
facet normal 0.0 0.0 -1.0
  outer loop
    vertex 107.9998476586135 0.0 0.0
    vertex 21.777508883506865 18.328018606466397 0.0
    vertex 88.2223393102276 18.328018606466397 0.0
  endloop
endfacet
facet normal 0.0 0.0 -1.0
  outer loop
    vertex 88.2223393102276 18.328018606466397 0.0
    vertex 21.777508883506865 18.328018606466397 0.0
    vertex 88.2223393102276 30.67778888128211 0.0
  endloop
endfacet
facet normal 0.0 0.0 -1.0
  outer loop
    vertex 107.9998476586135 0.0 0.0
    vertex 88.2223393102276 18.328018606466397 0.0
    vertex 91.89746618187749 18.328018606466397 0.0
  endloop
endfacet
facet normal -0.0 -0.0 1.0
  outer loop
    vertex 107.9998476586135 0.0 3.175
    vertex 18.102381939856375 18.328018606466397 3.175
    vertex 2.9633266150259088 0.0 3.175
  endloop
endfacet
facet normal -0.0 -0.0 1.0
  outer loop
    vertex 18.102381939856375 18.328018606466397 3.175
    vertex 107.9998476586135 0.0 3.175
    vertex 21.777508883506865 18.328018606466397 3.175
  endloop
endfacet
facet normal -0.0 -0.0 1.0
  outer loop
    vertex 21.777508883506865 18.328018606466397 3.175
    vertex 107.9998476586135 0.0 3.175
    vertex 21.777508883506865 30.67778888128211 3.175
  endloop
endfacet
facet normal -0.0 -0.0 1.0
  outer loop
    vertex 21.777508883506865 30.67778888128211 3.175
    vertex 107.9998476586135 0.0 3.175
    vertex 88.2223393102276 18.328018606466397 3.175
  endloop
endfacet
facet normal -0.0 -0.0 1.0
  outer loop
    vertex 88.2223393102276 18.328018606466397 3.175
    vertex 107.9998476586135 0.0 3.175
    vertex 91.89746618187749 18.328018606466397 3.175
  endloop
endfacet
facet normal -0.0 -0.0 1.0
  outer loop
    vertex 91.89746618187749 18.328018606466397 3.175
    vertex 107.9998476586135 0.0 3.175
    vertex 91.89746618187749 30.67778888128211 3.175
  endloop
endfacet
facet normal -0.0 -0.0 1.0
  outer loop
    vertex 0.01684088435378257 1.7392701696820168 3.175
    vertex 1.127986593019159e-14 46.596794709791276 3.175
    vertex 1.127986593019159e-14 1.999999999500208 3.175
  endloop
endfacet
facet normal -0.0 -0.0 1.0
  outer loop
    vertex 1.127986593019159e-14 46.596794709791276 3.175
    vertex 0.01684088435378257 1.7392701696820168 3.175
    vertex 0.00425414374449442 47.13730803832269 3.175
  endloop
endfacet
facet normal -0.0 -0.0 1.0
  outer loop
    vertex 0.00425414374449442 47.13730803832269 3.175
    vertex 0.01684088435378257 1.7392701696820168 3.175
    vertex 0.03749668589145898 47.39323179154575 3.175
  endloop
endfacet
facet normal -0.0 -0.0 1.0
  outer loop
    vertex 0.03749668589145898 47.39323179154575 3.175
    vertex 0.01684088435378257 1.7392701696820168 3.175
    vertex 0.06595801242136634 1.4886795649264255 3.175
  endloop
endfacet
facet normal -0.0 -0.0 1.0
  outer loop
    vertex 0.03749668589145898 47.39323179154575 3.175
    vertex 0.06595801242136634 1.4886795649264255 3.175
    vertex 0.10196132800694126 47.63796217596091 3.175
  endloop
endfacet
facet normal -0.0 -0.0 1.0
  outer loop
    vertex 0.10196132800694126 47.63796217596091 3.175
    vertex 0.06595801242136634 1.4886795649264255 3.175
    vertex 0.14524309671215052 1.2503364727240238 3.175
  endloop
endfacet
facet normal -0.0 -0.0 1.0
  outer loop
    vertex 0.10196132800694126 47.63796217596091 3.175
    vertex 0.14524309671215052 1.2503364727240238 3.175
    vertex 0.1955397826003179 47.86939090407756 3.175
  endloop
endfacet
facet normal -0.0 -0.0 1.0
  outer loop
    vertex 0.1955397826003179 47.86939090407756 3.175
    vertex 0.14524309671215052 1.2503364727240238 3.175
    vertex 0.25258784973555687 1.026349180565514 3.175
  endloop
endfacet
facet normal -0.0 -0.0 1.0
  outer loop
    vertex 0.1955397826003179 47.86939090407756 3.175
    vertex 0.25258784973555687 1.026349180565514 3.175
    vertex 0.31612376218104454 48.085409688405186 3.175
  endloop
endfacet
facet normal -0.0 -0.0 1.0
  outer loop
    vertex 0.31612376218104454 48.085409688405186 3.175
    vertex 0.25258784973555687 1.026349180565514 3.175
    vertex 0.3858839840009846 0.8188259759413729 3.175
  endloop
endfacet
facet normal -0.0 -0.0 1.0
  outer loop
    vertex 0.31612376218104454 48.085409688405186 3.175
    vertex 0.3858839840009846 0.8188259759413729 3.175
    vertex 0.46160497925854294 48.2839102414531 3.175
  endloop
endfacet
facet normal -0.0 -0.0 1.0
  outer loop
    vertex 0.46160497925854294 48.2839102414531 3.175
    vertex 0.3858839840009846 0.8188259759413729 3.175
    vertex 0.5430232120178103 0.6298751463422348 3.175
  endloop
endfacet
facet normal -0.0 -0.0 1.0
  outer loop
    vertex 0.46160497925854294 48.2839102414531 3.175
    vertex 0.5430232120178103 0.6298751463422348 3.175
    vertex 0.6298751463421897 48.46278427573076 3.175
  endloop
endfacet
facet normal -0.0 -0.0 1.0
  outer loop
    vertex 0.6298751463421897 48.46278427573076 3.175
    vertex 0.5430232120178103 0.6298751463422348 3.175
    vertex 0.7218972462955687 0.4616049792586219 3.175
  endloop
endfacet
facet normal -0.0 -0.0 1.0
  outer loop
    vertex 0.6298751463421897 48.46278427573076 3.175
    vertex 0.7218972462955687 0.4616049792586219 3.175
    vertex 0.8188259759412939 48.619923503747565 3.175
  endloop
endfacet
facet normal -0.0 -0.0 1.0
  outer loop
    vertex 0.8188259759412939 48.619923503747565 3.175
    vertex 0.7218972462955687 0.4616049792586219 3.175
    vertex 0.92039779934358 0.3161237621811686 3.175
  endloop
endfacet
facet normal -0.0 -0.0 1.0
  outer loop
    vertex 0.8188259759412939 48.619923503747565 3.175
    vertex 0.92039779934358 0.3161237621811686 3.175
    vertex 1.0263491805653786 48.75321963801297 3.175
  endloop
endfacet
facet normal -0.0 -0.0 1.0
  outer loop
    vertex 1.0263491805653786 48.75321963801297 3.175
    vertex 0.92039779934358 0.3161237621811686 3.175
    vertex 1.136416583671232 0.195539782600442 3.175
  endloop
endfacet
facet normal -0.0 -0.0 1.0
  outer loop
    vertex 1.0263491805653786 48.75321963801297 3.175
    vertex 1.136416583671232 0.195539782600442 3.175
    vertex 1.2503364727238433 48.86056439103636 3.175
  endloop
endfacet
facet normal -0.0 -0.0 1.0
  outer loop
    vertex 1.2503364727238433 48.86056439103636 3.175
    vertex 1.136416583671232 0.195539782600442 3.175
    vertex 1.3678453117879352 0.1019613280070315 3.175
  endloop
endfacet
facet normal -0.0 -0.0 1.0
  outer loop
    vertex 1.2503364727238433 48.86056439103636 3.175
    vertex 1.3678453117879352 0.1019613280070315 3.175
    vertex 1.488679564926087 48.93984947532714 3.175
  endloop
endfacet
facet normal -0.0 -0.0 1.0
  outer loop
    vertex 1.488679564926087 48.93984947532714 3.175
    vertex 1.3678453117879352 0.1019613280070315 3.175
    vertex 1.6125756962031228 0.037496685891504095 3.175
  endloop
endfacet
facet normal -0.0 -0.0 1.0
  outer loop
    vertex 1.488679564926087 48.93984947532714 3.175
    vertex 1.6125756962031228 0.037496685891504095 3.175
    vertex 1.7392701696815205 48.98896660339472 3.175
  endloop
endfacet
facet normal -0.0 -0.0 1.0
  outer loop
    vertex 1.7392701696815205 48.98896660339472 3.175
    vertex 1.6125756962031228 0.037496685891504095 3.175
    vertex 1.868499449426194 0.004254143744471861 3.175
  endloop
endfacet
facet normal -0.0 -0.0 1.0
  outer loop
    vertex 1.7392701696815205 48.98896660339472 3.175
    vertex 1.868499449426194 0.004254143744471861 3.175
    vertex 1.9999999994995539 49.005807487748505 3.175
  endloop
endfacet
facet normal -0.0 -0.0 1.0
  outer loop
    vertex 1.9999999994995539 49.005807487748505 3.175
    vertex 1.868499449426194 0.004254143744471861 3.175
    vertex 2.9633266150259088 0.0 3.175
  endloop
endfacet
facet normal -0.0 -0.0 1.0
  outer loop
    vertex 1.9999999994995539 49.005807487748505 3.175
    vertex 2.9633266150259088 0.0 3.175
    vertex 18.102381939856375 30.67778888128211 3.175
  endloop
endfacet
facet normal -0.0 -0.0 1.0
  outer loop
    vertex 1.9999999994995539 49.005807487748505 3.175
    vertex 18.102381939856375 30.67778888128211 3.175
    vertex 108.13134820868711 49.00155334400399 3.175
  endloop
endfacet
facet normal -0.0 -0.0 1.0
  outer loop
    vertex 18.102381939856375 30.67778888128211 3.175
    vertex 2.9633266150259088 0.0 3.175
    vertex 18.102381939856375 18.328018606466397 3.175
  endloop
endfacet
facet normal -0.0 -0.0 1.0
  outer loop
    vertex 108.13134820868711 49.00155334400399 3.175
    vertex 18.102381939856375 30.67778888128211 3.175
    vertex 21.777508883506865 30.67778888128211 3.175
  endloop
endfacet
facet normal -0.0 -0.0 1.0
  outer loop
    vertex 108.13134820868711 49.00155334400399 3.175
    vertex 21.777508883506865 30.67778888128211 3.175
    vertex 88.2223393102276 30.67778888128211 3.175
  endloop
endfacet
facet normal -0.0 -0.0 1.0
  outer loop
    vertex 88.2223393102276 30.67778888128211 3.175
    vertex 21.777508883506865 30.67778888128211 3.175
    vertex 88.2223393102276 18.328018606466397 3.175
  endloop
endfacet
facet normal -0.0 -0.0 1.0
  outer loop
    vertex 108.13134820868711 49.00155334400399 3.175
    vertex 88.2223393102276 30.67778888128211 3.175
    vertex 91.89746618187749 30.67778888128211 3.175
  endloop
endfacet
facet normal -0.0 -0.0 1.0
  outer loop
    vertex 108.13134820868711 49.00155334400399 3.175
    vertex 91.89746618187749 30.67778888128211 3.175
    vertex 107.9998476586135 0.0 3.175
  endloop
endfacet
facet normal -0.0 -0.0 1.0
  outer loop
    vertex 108.13134820868711 49.00155334400399 3.175
    vertex 107.9998476586135 0.0 3.175
    vertex 108.26057748843138 0.01684088435376001 3.175
  endloop
endfacet
facet normal -0.0 -0.0 1.0
  outer loop
    vertex 108.13134820868711 49.00155334400399 3.175
    vertex 108.26057748843138 0.01684088435376001 3.175
    vertex 108.38727196191013 48.968310801857 3.175
  endloop
endfacet
facet normal -0.0 -0.0 1.0
  outer loop
    vertex 108.38727196191013 48.968310801857 3.175
    vertex 108.26057748843138 0.01684088435376001 3.175
    vertex 108.5111680931868 0.06595801242132122 3.175
  endloop
endfacet
facet normal -0.0 -0.0 1.0
  outer loop
    vertex 108.38727196191013 48.968310801857 3.175
    vertex 108.5111680931868 0.06595801242132122 3.175
    vertex 108.63200234632527 48.90384615974147 3.175
  endloop
endfacet
facet normal -0.0 -0.0 1.0
  outer loop
    vertex 108.63200234632527 48.90384615974147 3.175
    vertex 108.5111680931868 0.06595801242132122 3.175
    vertex 108.74951118538911 0.14524309671213922 3.175
  endloop
endfacet
facet normal -0.0 -0.0 1.0
  outer loop
    vertex 108.63200234632527 48.90384615974147 3.175
    vertex 108.74951118538911 0.14524309671213922 3.175
    vertex 108.86343107444208 48.810267705148014 3.175
  endloop
endfacet
facet normal -0.0 -0.0 1.0
  outer loop
    vertex 108.86343107444208 48.810267705148014 3.175
    vertex 108.74951118538911 0.14524309671213922 3.175
    vertex 108.97349847754771 0.25258784973553433 3.175
  endloop
endfacet
facet normal -0.0 -0.0 1.0
  outer loop
    vertex 108.86343107444208 48.810267705148014 3.175
    vertex 108.97349847754771 0.25258784973553433 3.175
    vertex 109.07944985876983 48.68968372556724 3.175
  endloop
endfacet
facet normal -0.0 -0.0 1.0
  outer loop
    vertex 109.07944985876983 48.68968372556724 3.175
    vertex 108.97349847754771 0.25258784973553433 3.175
    vertex 109.181021682172 0.38588398400100715 3.175
  endloop
endfacet
facet normal -0.0 -0.0 1.0
  outer loop
    vertex 109.07944985876983 48.68968372556724 3.175
    vertex 109.181021682172 0.38588398400100715 3.175
    vertex 109.27795041181798 48.544202508489725 3.175
  endloop
endfacet
facet normal -0.0 -0.0 1.0
  outer loop
    vertex 109.27795041181798 48.544202508489725 3.175
    vertex 109.181021682172 0.38588398400100715 3.175
    vertex 109.3699725117714 0.543023212017833 3.175
  endloop
endfacet
facet normal -0.0 -0.0 1.0
  outer loop
    vertex 109.27795041181798 48.544202508489725 3.175
    vertex 109.3699725117714 0.543023212017833 3.175
    vertex 109.45682444609587 48.37593234140602 3.175
  endloop
endfacet
facet normal -0.0 -0.0 1.0
  outer loop
    vertex 109.45682444609587 48.37593234140602 3.175
    vertex 109.3699725117714 0.543023212017833 3.175
    vertex 109.53824267885503 0.7218972462956703 3.175
  endloop
endfacet
facet normal -0.0 -0.0 1.0
  outer loop
    vertex 109.45682444609587 48.37593234140602 3.175
    vertex 109.53824267885503 0.7218972462956703 3.175
    vertex 109.61396367411272 48.18698151180677 3.175
  endloop
endfacet
facet normal -0.0 -0.0 1.0
  outer loop
    vertex 109.61396367411272 48.18698151180677 3.175
    vertex 109.53824267885503 0.7218972462956703 3.175
    vertex 109.68372389593252 0.920397799343704 3.175
  endloop
endfacet
facet normal -0.0 -0.0 1.0
  outer loop
    vertex 109.61396367411272 48.18698151180677 3.175
    vertex 109.68372389593252 0.920397799343704 3.175
    vertex 109.74725980837816 47.979458307182604 3.175
  endloop
endfacet
facet normal -0.0 -0.0 1.0
  outer loop
    vertex 109.74725980837816 47.979458307182604 3.175
    vertex 109.68372389593252 0.920397799343704 3.175
    vertex 109.80430787551327 1.136416583671345 3.175
  endloop
endfacet
facet normal -0.0 -0.0 1.0
  outer loop
    vertex 109.74725980837816 47.979458307182604 3.175
    vertex 109.80430787551327 1.136416583671345 3.175
    vertex 109.85460456140157 47.75547101502407 3.175
  endloop
endfacet
facet normal -0.0 -0.0 1.0
  outer loop
    vertex 109.85460456140157 47.75547101502407 3.175
    vertex 109.80430787551327 1.136416583671345 3.175
    vertex 109.8978863301067 1.3678453117880707 3.175
  endloop
endfacet
facet normal -0.0 -0.0 1.0
  outer loop
    vertex 109.85460456140157 47.75547101502407 3.175
    vertex 109.8978863301067 1.3678453117880707 3.175
    vertex 109.93388964569235 47.517127922821786 3.175
  endloop
endfacet
facet normal -0.0 -0.0 1.0
  outer loop
    vertex 109.93388964569235 47.517127922821786 3.175
    vertex 109.8978863301067 1.3678453117880707 3.175
    vertex 109.96235097222218 1.612575696203292 3.175
  endloop
endfacet
facet normal -0.0 -0.0 1.0
  outer loop
    vertex 109.93388964569235 47.517127922821786 3.175
    vertex 109.96235097222218 1.612575696203292 3.175
    vertex 109.98300677375991 47.26653731806635 3.175
  endloop
endfacet
facet normal -0.0 -0.0 1.0
  outer loop
    vertex 109.98300677375991 47.26653731806635 3.175
    vertex 109.96235097222218 1.612575696203292 3.175
    vertex 109.99559351436925 1.8684994494264195 3.175
  endloop
endfacet
facet normal -0.0 -0.0 1.0
  outer loop
    vertex 109.98300677375991 47.26653731806635 3.175
    vertex 109.99559351436925 1.8684994494264195 3.175
    vertex 109.99984765811371 47.005807488248294 3.175
  endloop
endfacet
facet normal -0.0 -0.0 1.0
  outer loop
    vertex 109.99984765811371 47.005807488248294 3.175
    vertex 109.99559351436925 1.8684994494264195 3.175
    vertex 109.99984765811374 2.409012777957861 3.175
  endloop
endfacet
facet normal -0.0 -1.0 -0.0
  outer loop
    vertex 107.9998476586135 0.0 3.175
    vertex 2.9633266150259088 0.0 0.0
    vertex 107.9998476586135 0.0 0.0
  endloop
endfacet
facet normal -0.0 -1.0 -0.0
  outer loop
    vertex 2.9633266150259088 0.0 0.0
    vertex 107.9998476586135 0.0 3.175
    vertex 2.9633266150259088 0.0 3.175
  endloop
endfacet
facet normal -0.003885646760469153 -0.9999924508461316 -0.0
  outer loop
    vertex 2.9633266150259088 0.0 3.175
    vertex 1.868499449426194 0.004254143744471861 0.0
    vertex 2.9633266150259088 0.0 0.0
  endloop
endfacet
facet normal -0.003885646760469153 -0.9999924508461316 -0.0
  outer loop
    vertex 1.868499449426194 0.004254143744471861 0.0
    vertex 2.9633266150259088 0.0 3.175
    vertex 1.868499449426194 0.004254143744471861 3.175
  endloop
endfacet
facet normal -0.12881026732543438 -0.9916692568752697 -0.0
  outer loop
    vertex 1.868499449426194 0.004254143744471861 3.175
    vertex 1.6125756962031228 0.037496685891504095 0.0
    vertex 1.868499449426194 0.004254143744471861 0.0
  endloop
endfacet
facet normal -0.12881026732543438 -0.9916692568752697 -0.0
  outer loop
    vertex 1.6125756962031228 0.037496685891504095 0.0
    vertex 1.868499449426194 0.004254143744471861 3.175
    vertex 1.6125756962031228 0.037496685891504095 3.175
  endloop
endfacet
facet normal -0.2547220738781802 -0.9670143044853052 -0.0
  outer loop
    vertex 1.6125756962031228 0.037496685891504095 3.175
    vertex 1.3678453117879352 0.1019613280070315 0.0
    vertex 1.6125756962031228 0.037496685891504095 0.0
  endloop
endfacet
facet normal -0.2547220738781802 -0.9670143044853052 -0.0
  outer loop
    vertex 1.3678453117879352 0.1019613280070315 0.0
    vertex 1.6125756962031228 0.037496685891504095 3.175
    vertex 1.3678453117879352 0.1019613280070315 3.175
  endloop
endfacet
facet normal -0.3748654763811456 -0.9270792170130537 -0.0
  outer loop
    vertex 1.3678453117879352 0.1019613280070315 3.175
    vertex 1.136416583671232 0.195539782600442 0.0
    vertex 1.3678453117879352 0.1019613280070315 0.0
  endloop
endfacet
facet normal -0.3748654763811456 -0.9270792170130537 -0.0
  outer loop
    vertex 1.136416583671232 0.195539782600442 0.0
    vertex 1.3678453117879352 0.1019613280070315 3.175
    vertex 1.136416583671232 0.195539782600442 3.175
  endloop
endfacet
facet normal -0.48741348508158994 -0.8731712859231108 -0.0
  outer loop
    vertex 1.136416583671232 0.195539782600442 3.175
    vertex 0.92039779934358 0.3161237621811686 0.0
    vertex 1.136416583671232 0.195539782600442 0.0
  endloop
endfacet
facet normal -0.48741348508158994 -0.8731712859231108 -0.0
  outer loop
    vertex 0.92039779934358 0.3161237621811686 0.0
    vertex 1.136416583671232 0.195539782600442 3.175
    vertex 0.92039779934358 0.3161237621811686 3.175
  endloop
endfacet
facet normal -0.5911367823478655 -0.8065713263905508 -0.0
  outer loop
    vertex 0.92039779934358 0.3161237621811686 3.175
    vertex 0.7218972462955687 0.4616049792586219 0.0
    vertex 0.92039779934358 0.3161237621811686 0.0
  endloop
endfacet
facet normal -0.5911367823478655 -0.8065713263905508 -0.0
  outer loop
    vertex 0.7218972462955687 0.4616049792586219 0.0
    vertex 0.92039779934358 0.3161237621811686 3.175
    vertex 0.7218972462955687 0.4616049792586219 3.175
  endloop
endfacet
facet normal -0.6851879110288482 -0.7283663409163849 -0.0
  outer loop
    vertex 0.7218972462955687 0.4616049792586219 3.175
    vertex 0.5430232120178103 0.6298751463422348 0.0
    vertex 0.7218972462955687 0.4616049792586219 0.0
  endloop
endfacet
facet normal -0.6851879110288482 -0.7283663409163849 -0.0
  outer loop
    vertex 0.5430232120178103 0.6298751463422348 0.0
    vertex 0.7218972462955687 0.4616049792586219 3.175
    vertex 0.5430232120178103 0.6298751463422348 3.175
  endloop
endfacet
facet normal -0.7688608726168984 -0.639416107522153 -0.0
  outer loop
    vertex 0.3858839840009846 0.8188259759413729 3.175
    vertex 0.5430232120178103 0.6298751463422348 0.0
    vertex 0.5430232120178103 0.6298751463422348 3.175
  endloop
endfacet
facet normal -0.7688608726168984 -0.639416107522153 -0.0
  outer loop
    vertex 0.5430232120178103 0.6298751463422348 0.0
    vertex 0.3858839840009846 0.8188259759413729 3.175
    vertex 0.3858839840009846 0.8188259759413729 0.0
  endloop
endfacet
facet normal -0.8413843061208799 -0.5404372761139683 -0.0
  outer loop
    vertex 0.25258784973555687 1.026349180565514 3.175
    vertex 0.3858839840009846 0.8188259759413729 0.0
    vertex 0.3858839840009846 0.8188259759413729 3.175
  endloop
endfacet
facet normal -0.8413843061208799 -0.5404372761139683 -0.0
  outer loop
    vertex 0.3858839840009846 0.8188259759413729 0.0
    vertex 0.25258784973555687 1.026349180565514 3.175
    vertex 0.25258784973555687 1.026349180565514 0.0
  endloop
endfacet
facet normal -0.9017885567030145 -0.432177508669174 -0.0
  outer loop
    vertex 0.14524309671215052 1.2503364727240238 3.175
    vertex 0.25258784973555687 1.026349180565514 0.0
    vertex 0.25258784973555687 1.026349180565514 3.175
  endloop
endfacet
facet normal -0.9017885567030145 -0.432177508669174 -0.0
  outer loop
    vertex 0.25258784973555687 1.026349180565514 0.0
    vertex 0.14524309671215052 1.2503364727240238 3.175
    vertex 0.14524309671215052 1.2503364727240238 0.0
  endloop
endfacet
facet normal -0.9488773348210212 -0.31564505930388875 -0.0
  outer loop
    vertex 0.06595801242136634 1.4886795649264255 3.175
    vertex 0.14524309671215052 1.2503364727240238 0.0
    vertex 0.14524309671215052 1.2503364727240238 3.175
  endloop
endfacet
facet normal -0.9488773348210212 -0.31564505930388875 -0.0
  outer loop
    vertex 0.14524309671215052 1.2503364727240238 0.0
    vertex 0.06595801242136634 1.4886795649264255 3.175
    vertex 0.06595801242136634 1.4886795649264255 0.0
  endloop
endfacet
facet normal -0.981327267383829 -0.1923455075872237 -0.0
  outer loop
    vertex 0.01684088435378257 1.7392701696820168 3.175
    vertex 0.06595801242136634 1.4886795649264255 0.0
    vertex 0.06595801242136634 1.4886795649264255 3.175
  endloop
endfacet
facet normal -0.981327267383829 -0.1923455075872237 -0.0
  outer loop
    vertex 0.06595801242136634 1.4886795649264255 0.0
    vertex 0.01684088435378257 1.7392701696820168 3.175
    vertex 0.01684088435378257 1.7392701696820168 0.0
  endloop
endfacet
facet normal -0.9979204851757694 -0.06445700323903603 -0.0
  outer loop
    vertex 1.127986593019159e-14 1.999999999500208 3.175
    vertex 0.01684088435378257 1.7392701696820168 0.0
    vertex 0.01684088435378257 1.7392701696820168 3.175
  endloop
endfacet
facet normal -0.9979204851757694 -0.06445700323903603 -0.0
  outer loop
    vertex 0.01684088435378257 1.7392701696820168 0.0
    vertex 1.127986593019159e-14 1.999999999500208 3.175
    vertex 1.127986593019159e-14 1.999999999500208 0.0
  endloop
endfacet
facet normal -1.0 0.0 0.0
  outer loop
    vertex 1.127986593019159e-14 46.596794709791276 3.175
    vertex 1.127986593019159e-14 1.999999999500208 0.0
    vertex 1.127986593019159e-14 1.999999999500208 3.175
  endloop
endfacet
facet normal -1.0 0.0 0.0
  outer loop
    vertex 1.127986593019159e-14 1.999999999500208 0.0
    vertex 1.127986593019159e-14 46.596794709791276 3.175
    vertex 1.127986593019159e-14 46.596794709791276 0.0
  endloop
endfacet
facet normal -0.9999690285646349 0.007870318386233558 0.0
  outer loop
    vertex 0.00425414374449442 47.13730803832269 3.175
    vertex 1.127986593019159e-14 46.596794709791276 0.0
    vertex 1.127986593019159e-14 46.596794709791276 3.175
  endloop
endfacet
facet normal -0.9999690285646349 0.007870318386233558 0.0
  outer loop
    vertex 1.127986593019159e-14 46.596794709791276 0.0
    vertex 0.00425414374449442 47.13730803832269 3.175
    vertex 0.00425414374449442 47.13730803832269 0.0
  endloop
endfacet
facet normal -0.9916692568753027 0.12881026732518208 0.0
  outer loop
    vertex 0.03749668589145898 47.39323179154575 3.175
    vertex 0.00425414374449442 47.13730803832269 0.0
    vertex 0.00425414374449442 47.13730803832269 3.175
  endloop
endfacet
facet normal -0.9916692568753027 0.12881026732518208 0.0
  outer loop
    vertex 0.00425414374449442 47.13730803832269 0.0
    vertex 0.03749668589145898 47.39323179154575 3.175
    vertex 0.03749668589145898 47.39323179154575 0.0
  endloop
endfacet
facet normal -0.9670143044853406 0.2547220738780464 0.0
  outer loop
    vertex 0.10196132800694126 47.63796217596091 3.175
    vertex 0.03749668589145898 47.39323179154575 0.0
    vertex 0.03749668589145898 47.39323179154575 3.175
  endloop
endfacet
facet normal -0.9670143044853406 0.2547220738780464 0.0
  outer loop
    vertex 0.03749668589145898 47.39323179154575 0.0
    vertex 0.10196132800694126 47.63796217596091 3.175
    vertex 0.10196132800694126 47.63796217596091 0.0
  endloop
endfacet
facet normal -0.9270792170130754 0.3748654763810919 0.0
  outer loop
    vertex 0.1955397826003179 47.86939090407756 3.175
    vertex 0.10196132800694126 47.63796217596091 0.0
    vertex 0.10196132800694126 47.63796217596091 3.175
  endloop
endfacet
facet normal -0.9270792170130754 0.3748654763810919 0.0
  outer loop
    vertex 0.10196132800694126 47.63796217596091 0.0
    vertex 0.1955397826003179 47.86939090407756 3.175
    vertex 0.1955397826003179 47.86939090407756 0.0
  endloop
endfacet
facet normal -0.8731712859230781 0.48741348508164806 0.0
  outer loop
    vertex 0.31612376218104454 48.085409688405186 3.175
    vertex 0.1955397826003179 47.86939090407756 0.0
    vertex 0.1955397826003179 47.86939090407756 3.175
  endloop
endfacet
facet normal -0.8731712859230781 0.48741348508164806 0.0
  outer loop
    vertex 0.1955397826003179 47.86939090407756 0.0
    vertex 0.31612376218104454 48.085409688405186 3.175
    vertex 0.31612376218104454 48.085409688405186 0.0
  endloop
endfacet
facet normal -0.8065713263903354 0.5911367823481596 0.0
  outer loop
    vertex 0.46160497925854294 48.2839102414531 3.175
    vertex 0.31612376218104454 48.085409688405186 0.0
    vertex 0.31612376218104454 48.085409688405186 3.175
  endloop
endfacet
facet normal -0.8065713263903354 0.5911367823481596 0.0
  outer loop
    vertex 0.31612376218104454 48.085409688405186 0.0
    vertex 0.46160497925854294 48.2839102414531 3.175
    vertex 0.46160497925854294 48.2839102414531 0.0
  endloop
endfacet
facet normal -0.7283663409161218 0.6851879110291276 0.0
  outer loop
    vertex 0.6298751463421897 48.46278427573076 3.175
    vertex 0.46160497925854294 48.2839102414531 0.0
    vertex 0.46160497925854294 48.2839102414531 3.175
  endloop
endfacet
facet normal -0.7283663409161218 0.6851879110291276 0.0
  outer loop
    vertex 0.46160497925854294 48.2839102414531 0.0
    vertex 0.6298751463421897 48.46278427573076 3.175
    vertex 0.6298751463421897 48.46278427573076 0.0
  endloop
endfacet
facet normal -0.6394161075221664 0.7688608726168872 0.0
  outer loop
    vertex 0.6298751463421897 48.46278427573076 3.175
    vertex 0.8188259759412939 48.619923503747565 0.0
    vertex 0.6298751463421897 48.46278427573076 0.0
  endloop
endfacet
facet normal -0.6394161075221664 0.7688608726168872 0.0
  outer loop
    vertex 0.8188259759412939 48.619923503747565 0.0
    vertex 0.6298751463421897 48.46278427573076 3.175
    vertex 0.8188259759412939 48.619923503747565 3.175
  endloop
endfacet
facet normal -0.5404372761140075 0.8413843061208546 0.0
  outer loop
    vertex 0.8188259759412939 48.619923503747565 3.175
    vertex 1.0263491805653786 48.75321963801297 0.0
    vertex 0.8188259759412939 48.619923503747565 0.0
  endloop
endfacet
facet normal -0.5404372761140075 0.8413843061208546 0.0
  outer loop
    vertex 1.0263491805653786 48.75321963801297 0.0
    vertex 0.8188259759412939 48.619923503747565 3.175
    vertex 1.0263491805653786 48.75321963801297 3.175
  endloop
endfacet
facet normal -0.43217750866920784 0.9017885567029983 0.0
  outer loop
    vertex 1.0263491805653786 48.75321963801297 3.175
    vertex 1.2503364727238433 48.86056439103636 0.0
    vertex 1.0263491805653786 48.75321963801297 0.0
  endloop
endfacet
facet normal -0.43217750866920784 0.9017885567029983 0.0
  outer loop
    vertex 1.2503364727238433 48.86056439103636 0.0
    vertex 1.0263491805653786 48.75321963801297 3.175
    vertex 1.2503364727238433 48.86056439103636 3.175
  endloop
endfacet
facet normal -0.3156450593040367 0.9488773348209721 0.0
  outer loop
    vertex 1.2503364727238433 48.86056439103636 3.175
    vertex 1.488679564926087 48.93984947532714 0.0
    vertex 1.2503364727238433 48.86056439103636 0.0
  endloop
endfacet
facet normal -0.3156450593040367 0.9488773348209721 0.0
  outer loop
    vertex 1.488679564926087 48.93984947532714 0.0
    vertex 1.2503364727238433 48.86056439103636 3.175
    vertex 1.488679564926087 48.93984947532714 3.175
  endloop
endfacet
facet normal -0.19234550758734045 0.9813272673838063 0.0
  outer loop
    vertex 1.488679564926087 48.93984947532714 3.175
    vertex 1.7392701696815205 48.98896660339472 0.0
    vertex 1.488679564926087 48.93984947532714 0.0
  endloop
endfacet
facet normal -0.19234550758734045 0.9813272673838063 0.0
  outer loop
    vertex 1.7392701696815205 48.98896660339472 0.0
    vertex 1.488679564926087 48.93984947532714 3.175
    vertex 1.7392701696815205 48.98896660339472 3.175
  endloop
endfacet
facet normal -0.06445700323911789 0.997920485175764 0.0
  outer loop
    vertex 1.7392701696815205 48.98896660339472 3.175
    vertex 1.9999999994995539 49.005807487748505 0.0
    vertex 1.7392701696815205 48.98896660339472 0.0
  endloop
endfacet
facet normal -0.06445700323911789 0.997920485175764 0.0
  outer loop
    vertex 1.9999999994995539 49.005807487748505 0.0
    vertex 1.7392701696815205 48.98896660339472 3.175
    vertex 1.9999999994995539 49.005807487748505 3.175
  endloop
endfacet
facet normal 4.008376236504951e-05 0.9999999991966461 0.0
  outer loop
    vertex 1.9999999994995539 49.005807487748505 3.175
    vertex 108.13134820868711 49.00155334400399 0.0
    vertex 1.9999999994995539 49.005807487748505 0.0
  endloop
endfacet
facet normal 4.008376236504951e-05 0.9999999991966461 0.0
  outer loop
    vertex 108.13134820868711 49.00155334400399 0.0
    vertex 1.9999999994995539 49.005807487748505 3.175
    vertex 108.13134820868711 49.00155334400399 3.175
  endloop
endfacet
facet normal 0.12881026732529038 0.9916692568752886 0.0
  outer loop
    vertex 108.13134820868711 49.00155334400399 3.175
    vertex 108.38727196191013 48.968310801857 0.0
    vertex 108.13134820868711 49.00155334400399 0.0
  endloop
endfacet
facet normal 0.12881026732529038 0.9916692568752886 0.0
  outer loop
    vertex 108.38727196191013 48.968310801857 0.0
    vertex 108.13134820868711 49.00155334400399 3.175
    vertex 108.38727196191013 48.968310801857 3.175
  endloop
endfacet
facet normal 0.2547220738782351 0.9670143044852909 0.0
  outer loop
    vertex 108.38727196191013 48.968310801857 3.175
    vertex 108.63200234632527 48.90384615974147 0.0
    vertex 108.38727196191013 48.968310801857 0.0
  endloop
endfacet
facet normal 0.2547220738782351 0.9670143044852909 0.0
  outer loop
    vertex 108.63200234632527 48.90384615974147 0.0
    vertex 108.38727196191013 48.968310801857 3.175
    vertex 108.63200234632527 48.90384615974147 3.175
  endloop
endfacet
facet normal 0.3748654763811439 0.9270792170130544 0.0
  outer loop
    vertex 108.63200234632527 48.90384615974147 3.175
    vertex 108.86343107444208 48.810267705148014 0.0
    vertex 108.63200234632527 48.90384615974147 0.0
  endloop
endfacet
facet normal 0.3748654763811439 0.9270792170130544 0.0
  outer loop
    vertex 108.86343107444208 48.810267705148014 0.0
    vertex 108.63200234632527 48.90384615974147 3.175
    vertex 108.86343107444208 48.810267705148014 3.175
  endloop
endfacet
facet normal 0.4874134850815543 0.8731712859231306 0.0
  outer loop
    vertex 108.86343107444208 48.810267705148014 3.175
    vertex 109.07944985876983 48.68968372556724 0.0
    vertex 108.86343107444208 48.810267705148014 0.0
  endloop
endfacet
facet normal 0.4874134850815543 0.8731712859231306 0.0
  outer loop
    vertex 109.07944985876983 48.68968372556724 0.0
    vertex 108.86343107444208 48.810267705148014 3.175
    vertex 109.07944985876983 48.68968372556724 3.175
  endloop
endfacet
facet normal 0.5911367823477821 0.8065713263906118 0.0
  outer loop
    vertex 109.07944985876983 48.68968372556724 3.175
    vertex 109.27795041181798 48.544202508489725 0.0
    vertex 109.07944985876983 48.68968372556724 0.0
  endloop
endfacet
facet normal 0.5911367823477821 0.8065713263906118 0.0
  outer loop
    vertex 109.27795041181798 48.544202508489725 0.0
    vertex 109.07944985876983 48.68968372556724 3.175
    vertex 109.27795041181798 48.544202508489725 3.175
  endloop
endfacet
facet normal 0.685187911028791 0.7283663409164385 0.0
  outer loop
    vertex 109.27795041181798 48.544202508489725 3.175
    vertex 109.45682444609587 48.37593234140602 0.0
    vertex 109.27795041181798 48.544202508489725 0.0
  endloop
endfacet
facet normal 0.685187911028791 0.7283663409164385 0.0
  outer loop
    vertex 109.45682444609587 48.37593234140602 0.0
    vertex 109.27795041181798 48.544202508489725 3.175
    vertex 109.45682444609587 48.37593234140602 3.175
  endloop
endfacet
facet normal 0.7688608726169958 0.6394161075220359 0.0
  outer loop
    vertex 109.45682444609587 48.37593234140602 0.0
    vertex 109.61396367411272 48.18698151180677 3.175
    vertex 109.61396367411272 48.18698151180677 0.0
  endloop
endfacet
facet normal 0.7688608726169958 0.6394161075220359 0.0
  outer loop
    vertex 109.61396367411272 48.18698151180677 3.175
    vertex 109.45682444609587 48.37593234140602 0.0
    vertex 109.45682444609587 48.37593234140602 3.175
  endloop
endfacet
facet normal 0.8413843061209065 0.5404372761139268 0.0
  outer loop
    vertex 109.61396367411272 48.18698151180677 0.0
    vertex 109.74725980837816 47.979458307182604 3.175
    vertex 109.74725980837816 47.979458307182604 0.0
  endloop
endfacet
facet normal 0.8413843061209065 0.5404372761139268 0.0
  outer loop
    vertex 109.74725980837816 47.979458307182604 3.175
    vertex 109.61396367411272 48.18698151180677 0.0
    vertex 109.61396367411272 48.18698151180677 3.175
  endloop
endfacet
facet normal 0.9017885567030139 0.43217750866917554 0.0
  outer loop
    vertex 109.74725980837816 47.979458307182604 0.0
    vertex 109.85460456140157 47.75547101502407 3.175
    vertex 109.85460456140157 47.75547101502407 0.0
  endloop
endfacet
facet normal 0.9017885567030139 0.43217750866917554 0.0
  outer loop
    vertex 109.85460456140157 47.75547101502407 3.175
    vertex 109.74725980837816 47.979458307182604 0.0
    vertex 109.74725980837816 47.979458307182604 3.175
  endloop
endfacet
facet normal 0.9488773348209899 0.31564505930398284 0.0
  outer loop
    vertex 109.85460456140157 47.75547101502407 0.0
    vertex 109.93388964569235 47.517127922821786 3.175
    vertex 109.93388964569235 47.517127922821786 0.0
  endloop
endfacet
facet normal 0.9488773348209899 0.31564505930398284 0.0
  outer loop
    vertex 109.93388964569235 47.517127922821786 3.175
    vertex 109.85460456140157 47.75547101502407 0.0
    vertex 109.85460456140157 47.75547101502407 3.175
  endloop
endfacet
facet normal 0.9813272673838229 0.19234550758725538 0.0
  outer loop
    vertex 109.93388964569235 47.517127922821786 0.0
    vertex 109.98300677375991 47.26653731806635 3.175
    vertex 109.98300677375991 47.26653731806635 0.0
  endloop
endfacet
facet normal 0.9813272673838229 0.19234550758725538 0.0
  outer loop
    vertex 109.98300677375991 47.26653731806635 3.175
    vertex 109.93388964569235 47.517127922821786 0.0
    vertex 109.93388964569235 47.517127922821786 3.175
  endloop
endfacet
facet normal 0.9979204851757589 0.06445700323919833 0.0
  outer loop
    vertex 109.98300677375991 47.26653731806635 0.0
    vertex 109.99984765811371 47.005807488248294 3.175
    vertex 109.99984765811371 47.005807488248294 0.0
  endloop
endfacet
facet normal 0.9979204851757589 0.06445700323919833 0.0
  outer loop
    vertex 109.99984765811371 47.005807488248294 3.175
    vertex 109.98300677375991 47.26653731806635 0.0
    vertex 109.98300677375991 47.26653731806635 3.175
  endloop
endfacet
facet normal 1.0 5.05859939193739e-16 0.0
  outer loop
    vertex 109.99984765811371 47.005807488248294 0.0
    vertex 109.99984765811374 2.409012777957861 3.175
    vertex 109.99984765811374 2.409012777957861 0.0
  endloop
endfacet
facet normal 1.0 5.05859939193739e-16 0.0
  outer loop
    vertex 109.99984765811374 2.409012777957861 3.175
    vertex 109.99984765811371 47.005807488248294 0.0
    vertex 109.99984765811371 47.005807488248294 3.175
  endloop
endfacet
facet normal 0.9999690285646345 -0.007870318386254096 0.0
  outer loop
    vertex 109.99984765811374 2.409012777957861 0.0
    vertex 109.99559351436925 1.8684994494264195 3.175
    vertex 109.99559351436925 1.8684994494264195 0.0
  endloop
endfacet
facet normal 0.9999690285646345 -0.007870318386254096 0.0
  outer loop
    vertex 109.99559351436925 1.8684994494264195 3.175
    vertex 109.99984765811374 2.409012777957861 0.0
    vertex 109.99984765811374 2.409012777957861 3.175
  endloop
endfacet
facet normal 0.9916692568752624 -0.12881026732549247 0.0
  outer loop
    vertex 109.99559351436925 1.8684994494264195 0.0
    vertex 109.96235097222218 1.612575696203292 3.175
    vertex 109.96235097222218 1.612575696203292 0.0
  endloop
endfacet
facet normal 0.9916692568752624 -0.12881026732549247 0.0
  outer loop
    vertex 109.96235097222218 1.612575696203292 3.175
    vertex 109.99559351436925 1.8684994494264195 0.0
    vertex 109.99559351436925 1.8684994494264195 3.175
  endloop
endfacet
facet normal 0.967014304485358 -0.2547220738779805 0.0
  outer loop
    vertex 109.96235097222218 1.612575696203292 0.0
    vertex 109.8978863301067 1.3678453117880707 3.175
    vertex 109.8978863301067 1.3678453117880707 0.0
  endloop
endfacet
facet normal 0.967014304485358 -0.2547220738779805 0.0
  outer loop
    vertex 109.8978863301067 1.3678453117880707 3.175
    vertex 109.96235097222218 1.612575696203292 0.0
    vertex 109.96235097222218 1.612575696203292 3.175
  endloop
endfacet
facet normal 0.9270792170130351 -0.3748654763811919 0.0
  outer loop
    vertex 109.8978863301067 1.3678453117880707 0.0
    vertex 109.80430787551327 1.136416583671345 3.175
    vertex 109.80430787551327 1.136416583671345 0.0
  endloop
endfacet
facet normal 0.9270792170130351 -0.3748654763811919 0.0
  outer loop
    vertex 109.80430787551327 1.136416583671345 3.175
    vertex 109.8978863301067 1.3678453117880707 0.0
    vertex 109.8978863301067 1.3678453117880707 3.175
  endloop
endfacet
facet normal 0.8731712859230609 -0.48741348508167875 0.0
  outer loop
    vertex 109.80430787551327 1.136416583671345 0.0
    vertex 109.68372389593252 0.920397799343704 3.175
    vertex 109.68372389593252 0.920397799343704 0.0
  endloop
endfacet
facet normal 0.8731712859230609 -0.48741348508167875 0.0
  outer loop
    vertex 109.68372389593252 0.920397799343704 3.175
    vertex 109.80430787551327 1.136416583671345 0.0
    vertex 109.80430787551327 1.136416583671345 3.175
  endloop
endfacet
facet normal 0.8065713263904954 -0.591136782347941 0.0
  outer loop
    vertex 109.68372389593252 0.920397799343704 0.0
    vertex 109.53824267885503 0.7218972462956703 3.175
    vertex 109.53824267885503 0.7218972462956703 0.0
  endloop
endfacet
facet normal 0.8065713263904954 -0.591136782347941 0.0
  outer loop
    vertex 109.53824267885503 0.7218972462956703 3.175
    vertex 109.68372389593252 0.920397799343704 0.0
    vertex 109.68372389593252 0.920397799343704 3.175
  endloop
endfacet
facet normal 0.7283663409164898 -0.6851879110287364 0.0
  outer loop
    vertex 109.53824267885503 0.7218972462956703 0.0
    vertex 109.3699725117714 0.543023212017833 3.175
    vertex 109.3699725117714 0.543023212017833 0.0
  endloop
endfacet
facet normal 0.7283663409164898 -0.6851879110287364 0.0
  outer loop
    vertex 109.3699725117714 0.543023212017833 3.175
    vertex 109.53824267885503 0.7218972462956703 0.0
    vertex 109.53824267885503 0.7218972462956703 3.175
  endloop
endfacet
facet normal 0.6394161075216566 -0.7688608726173112 0.0
  outer loop
    vertex 109.3699725117714 0.543023212017833 3.175
    vertex 109.181021682172 0.38588398400100715 0.0
    vertex 109.3699725117714 0.543023212017833 0.0
  endloop
endfacet
facet normal 0.6394161075216566 -0.7688608726173112 0.0
  outer loop
    vertex 109.181021682172 0.38588398400100715 0.0
    vertex 109.3699725117714 0.543023212017833 3.175
    vertex 109.181021682172 0.38588398400100715 3.175
  endloop
endfacet
facet normal 0.5404372761138068 -0.8413843061209837 0.0
  outer loop
    vertex 109.181021682172 0.38588398400100715 3.175
    vertex 108.97349847754771 0.25258784973553433 0.0
    vertex 109.181021682172 0.38588398400100715 0.0
  endloop
endfacet
facet normal 0.5404372761138068 -0.8413843061209837 0.0
  outer loop
    vertex 108.97349847754771 0.25258784973553433 0.0
    vertex 109.181021682172 0.38588398400100715 3.175
    vertex 108.97349847754771 0.25258784973553433 3.175
  endloop
endfacet
facet normal 0.4321775086689954 -0.9017885567031 0.0
  outer loop
    vertex 108.97349847754771 0.25258784973553433 3.175
    vertex 108.74951118538911 0.14524309671213922 0.0
    vertex 108.97349847754771 0.25258784973553433 0.0
  endloop
endfacet
facet normal 0.4321775086689954 -0.9017885567031 0.0
  outer loop
    vertex 108.74951118538911 0.14524309671213922 0.0
    vertex 108.97349847754771 0.25258784973553433 3.175
    vertex 108.74951118538911 0.14524309671213922 3.175
  endloop
endfacet
facet normal 0.3156450593041177 -0.948877334820945 0.0
  outer loop
    vertex 108.74951118538911 0.14524309671213922 3.175
    vertex 108.5111680931868 0.06595801242132122 0.0
    vertex 108.74951118538911 0.14524309671213922 0.0
  endloop
endfacet
facet normal 0.3156450593041177 -0.948877334820945 0.0
  outer loop
    vertex 108.5111680931868 0.06595801242132122 0.0
    vertex 108.74951118538911 0.14524309671213922 3.175
    vertex 108.5111680931868 0.06595801242132122 3.175
  endloop
endfacet
facet normal 0.19234550758727206 -0.9813272673838197 0.0
  outer loop
    vertex 108.5111680931868 0.06595801242132122 3.175
    vertex 108.26057748843138 0.01684088435376001 0.0
    vertex 108.5111680931868 0.06595801242132122 0.0
  endloop
endfacet
facet normal 0.19234550758727206 -0.9813272673838197 0.0
  outer loop
    vertex 108.26057748843138 0.01684088435376001 0.0
    vertex 108.5111680931868 0.06595801242132122 3.175
    vertex 108.26057748843138 0.01684088435376001 3.175
  endloop
endfacet
facet normal 0.06445700323907079 -0.9979204851757671 0.0
  outer loop
    vertex 108.26057748843138 0.01684088435376001 3.175
    vertex 107.9998476586135 0.0 0.0
    vertex 108.26057748843138 0.01684088435376001 0.0
  endloop
endfacet
facet normal 0.06445700323907079 -0.9979204851757671 0.0
  outer loop
    vertex 107.9998476586135 0.0 0.0
    vertex 108.26057748843138 0.01684088435376001 3.175
    vertex 107.9998476586135 0.0 3.175
  endloop
endfacet
facet normal -0.0 1.0 0.0
  outer loop
    vertex 18.102381939856375 18.328018606466397 3.175
    vertex 21.777508883506865 18.328018606466397 0.0
    vertex 18.102381939856375 18.328018606466397 0.0
  endloop
endfacet
facet normal -0.0 1.0 0.0
  outer loop
    vertex 21.777508883506865 18.328018606466397 0.0
    vertex 18.102381939856375 18.328018606466397 3.175
    vertex 21.777508883506865 18.328018606466397 3.175
  endloop
endfacet
facet normal -1.0 0.0 0.0
  outer loop
    vertex 21.777508883506865 30.67778888128211 3.175
    vertex 21.777508883506865 18.328018606466397 0.0
    vertex 21.777508883506865 18.328018606466397 3.175
  endloop
endfacet
facet normal -1.0 0.0 0.0
  outer loop
    vertex 21.777508883506865 18.328018606466397 0.0
    vertex 21.777508883506865 30.67778888128211 3.175
    vertex 21.777508883506865 30.67778888128211 0.0
  endloop
endfacet
facet normal -0.0 -1.0 -0.0
  outer loop
    vertex 21.777508883506865 30.67778888128211 3.175
    vertex 18.102381939856375 30.67778888128211 0.0
    vertex 21.777508883506865 30.67778888128211 0.0
  endloop
endfacet
facet normal -0.0 -1.0 -0.0
  outer loop
    vertex 18.102381939856375 30.67778888128211 0.0
    vertex 21.777508883506865 30.67778888128211 3.175
    vertex 18.102381939856375 30.67778888128211 3.175
  endloop
endfacet
facet normal 1.0 0.0 0.0
  outer loop
    vertex 18.102381939856375 30.67778888128211 0.0
    vertex 18.102381939856375 18.328018606466397 3.175
    vertex 18.102381939856375 18.328018606466397 0.0
  endloop
endfacet
facet normal 1.0 0.0 0.0
  outer loop
    vertex 18.102381939856375 18.328018606466397 3.175
    vertex 18.102381939856375 30.67778888128211 0.0
    vertex 18.102381939856375 30.67778888128211 3.175
  endloop
endfacet
facet normal 1.0 0.0 0.0
  outer loop
    vertex 88.2223393102276 30.67778888128211 0.0
    vertex 88.2223393102276 18.328018606466397 3.175
    vertex 88.2223393102276 18.328018606466397 0.0
  endloop
endfacet
facet normal 1.0 0.0 0.0
  outer loop
    vertex 88.2223393102276 18.328018606466397 3.175
    vertex 88.2223393102276 30.67778888128211 0.0
    vertex 88.2223393102276 30.67778888128211 3.175
  endloop
endfacet
facet normal -0.0 1.0 0.0
  outer loop
    vertex 88.2223393102276 18.328018606466397 3.175
    vertex 91.89746618187749 18.328018606466397 0.0
    vertex 88.2223393102276 18.328018606466397 0.0
  endloop
endfacet
facet normal -0.0 1.0 0.0
  outer loop
    vertex 91.89746618187749 18.328018606466397 0.0
    vertex 88.2223393102276 18.328018606466397 3.175
    vertex 91.89746618187749 18.328018606466397 3.175
  endloop
endfacet
facet normal -1.0 0.0 0.0
  outer loop
    vertex 91.89746618187749 30.67778888128211 3.175
    vertex 91.89746618187749 18.328018606466397 0.0
    vertex 91.89746618187749 18.328018606466397 3.175
  endloop
endfacet
facet normal -1.0 0.0 0.0
  outer loop
    vertex 91.89746618187749 18.328018606466397 0.0
    vertex 91.89746618187749 30.67778888128211 3.175
    vertex 91.89746618187749 30.67778888128211 0.0
  endloop
endfacet
facet normal -0.0 -1.0 -0.0
  outer loop
    vertex 91.89746618187749 30.67778888128211 3.175
    vertex 88.2223393102276 30.67778888128211 0.0
    vertex 91.89746618187749 30.67778888128211 0.0
  endloop
endfacet
facet normal -0.0 -1.0 -0.0
  outer loop
    vertex 88.2223393102276 30.67778888128211 0.0
    vertex 91.89746618187749 30.67778888128211 3.175
    vertex 88.2223393102276 30.67778888128211 3.175
  endloop
endfacet
endsolid body-front
