solid body-bottom-wheelmount-test
facet normal 0.0 0.0 -1.0
  outer loop
    vertex 0.0 14.9999999962498 0.0
    vertex 6.301651036218752 8.120244909244233 0.0
    vertex 0.0 0.0 0.0
  endloop
endfacet
facet normal 0.0 0.0 -1.0
  outer loop
    vertex 6.301651036218752 8.120244909244233 0.0
    vertex 0.0 14.9999999962498 0.0
    vertex 6.430037200103561 8.254716855494499 0.0
  endloop
endfacet
facet normal 0.0 0.0 -1.0
  outer loop
    vertex 6.430037200103561 8.254716855494499 0.0
    vertex 0.0 14.9999999962498 0.0
    vertex 6.581391504216846 8.36347068304983 0.0
  endloop
endfacet
facet normal 0.0 0.0 -1.0
  outer loop
    vertex 6.581391504216846 8.36347068304983 0.0
    vertex 0.0 14.9999999962498 0.0
    vertex 6.752047310603364 8.442839753955038 0.0
  endloop
endfacet
facet normal 0.0 0.0 -1.0
  outer loop
    vertex 6.752047310603364 8.442839753955038 0.0
    vertex 0.0 14.9999999962498 0.0
    vertex 29.99999999250021 14.9999999962498 0.0
  endloop
endfacet
facet normal 0.0 0.0 -1.0
  outer loop
    vertex 0.0 0.0 0.0
    vertex 6.301651036218752 8.120244909244233 0.0
    vertex 6.199899650517642 7.963721482254355 0.0
  endloop
endfacet
facet normal 0.0 0.0 -1.0
  outer loop
    vertex 0.0 0.0 0.0
    vertex 6.199899650517642 7.963721482254355 0.0
    vertex 6.128449680955451 7.788813212480029 0.0
  endloop
endfacet
facet normal 0.0 0.0 -1.0
  outer loop
    vertex 0.0 0.0 0.0
    vertex 6.128449680955451 7.788813212480029 0.0
    vertex 6.090967765487503 7.5991867378765345 0.0
  endloop
endfacet
facet normal 0.0 0.0 -1.0
  outer loop
    vertex 0.0 0.0 0.0
    vertex 6.090967765487503 7.5991867378765345 0.0
    vertex 6.090967765487491 7.400813258373222 0.0
  endloop
endfacet
facet normal 0.0 0.0 -1.0
  outer loop
    vertex 6.752047310603364 8.442839753955038 0.0
    vertex 29.99999999250021 14.9999999962498 0.0
    vertex 6.938337981307849 8.489157430254846 0.0
  endloop
endfacet
facet normal 0.0 0.0 -1.0
  outer loop
    vertex 6.938337981307849 8.489157430254846 0.0
    vertex 29.99999999250021 14.9999999962498 0.0
    vertex 7.136020737881549 8.498776171066726 0.0
  endloop
endfacet
facet normal 0.0 0.0 -1.0
  outer loop
    vertex 7.136020737881549 8.498776171066726 0.0
    vertex 29.99999999250021 14.9999999962498 0.0
    vertex 7.328753851511788 8.470359181302825 0.0
  endloop
endfacet
facet normal 0.0 0.0 -1.0
  outer loop
    vertex 7.328753851511788 8.470359181302825 0.0
    vertex 29.99999999250021 14.9999999962498 0.0
    vertex 7.50768541980171 8.407057477955908 0.0
  endloop
endfacet
facet normal 0.0 0.0 -1.0
  outer loop
    vertex 7.50768541980171 8.407057477955908 0.0
    vertex 29.99999999250021 14.9999999962498 0.0
    vertex 7.669148804796005 8.312537698981206 0.0
  endloop
endfacet
facet normal 0.0 0.0 -1.0
  outer loop
    vertex 7.669148804796005 8.312537698981206 0.0
    vertex 29.99999999250021 14.9999999962498 0.0
    vertex 7.809477368539473 8.19046648233402 0.0
  endloop
endfacet
facet normal 0.0 0.0 -1.0
  outer loop
    vertex 7.809477368539473 8.19046648233402 0.0
    vertex 29.99999999250021 14.9999999962498 0.0
    vertex 7.925004473076859 8.044510465969537 0.0
  endloop
endfacet
facet normal 0.0 0.0 -1.0
  outer loop
    vertex 7.925004473076859 8.044510465969537 0.0
    vertex 29.99999999250021 14.9999999962498 0.0
    vertex 8.012063480452886 7.878336287843037 0.0
  endloop
endfacet
facet normal 0.0 0.0 -1.0
  outer loop
    vertex 8.012063480452886 7.878336287843037 0.0
    vertex 29.99999999250021 14.9999999962498 0.0
    vertex 8.066987752712365 7.695610585909751 0.0
  endloop
endfacet
facet normal 0.0 0.0 -1.0
  outer loop
    vertex 8.066987752712365 7.695610585909751 0.0
    vertex 29.99999999250021 14.9999999962498 0.0
    vertex 8.08611065190002 7.499999998124889 0.0
  endloop
endfacet
facet normal 0.0 0.0 -1.0
  outer loop
    vertex 8.08611065190002 7.499999998124889 0.0
    vertex 29.99999999250021 14.9999999962498 0.0
    vertex 21.930037243580827 8.254716855494499 0.0
  endloop
endfacet
facet normal 0.0 0.0 -1.0
  outer loop
    vertex 8.08611065190002 7.499999998124889 0.0
    vertex 21.930037243580827 8.254716855494499 0.0
    vertex 21.801651079696075 8.120244909244233 0.0
  endloop
endfacet
facet normal 0.0 0.0 -1.0
  outer loop
    vertex 8.08611065190002 7.499999998124889 0.0
    vertex 21.801651079696075 8.120244909244233 0.0
    vertex 21.69989969399508 7.963721482254332 0.0
  endloop
endfacet
facet normal 0.0 0.0 -1.0
  outer loop
    vertex 8.08611065190002 7.499999998124889 0.0
    vertex 21.69989969399508 7.963721482254332 0.0
    vertex 21.628449724432954 7.788813212480029 0.0
  endloop
endfacet
facet normal 0.0 0.0 -1.0
  outer loop
    vertex 8.08611065190002 7.499999998124889 0.0
    vertex 21.628449724432954 7.788813212480029 0.0
    vertex 21.59096780896505 7.599186737876557 0.0
  endloop
endfacet
facet normal 0.0 0.0 -1.0
  outer loop
    vertex 21.930037243580827 8.254716855494499 0.0
    vertex 29.99999999250021 14.9999999962498 0.0
    vertex 22.081391547694057 8.36347068304983 0.0
  endloop
endfacet
facet normal 0.0 0.0 -1.0
  outer loop
    vertex 22.081391547694057 8.36347068304983 0.0
    vertex 29.99999999250021 14.9999999962498 0.0
    vertex 22.25204735408053 8.442839753955038 0.0
  endloop
endfacet
facet normal 0.0 0.0 -1.0
  outer loop
    vertex 22.25204735408053 8.442839753955038 0.0
    vertex 29.99999999250021 14.9999999962498 0.0
    vertex 22.438338024785036 8.489157430254846 0.0
  endloop
endfacet
facet normal 0.0 0.0 -1.0
  outer loop
    vertex 22.438338024785036 8.489157430254846 0.0
    vertex 29.99999999250021 14.9999999962498 0.0
    vertex 22.636020781358837 8.498776171066726 0.0
  endloop
endfacet
facet normal 0.0 0.0 -1.0
  outer loop
    vertex 22.636020781358837 8.498776171066726 0.0
    vertex 29.99999999250021 14.9999999962498 0.0
    vertex 22.82875389498918 8.470359181302825 0.0
  endloop
endfacet
facet normal 0.0 0.0 -1.0
  outer loop
    vertex 22.82875389498918 8.470359181302825 0.0
    vertex 29.99999999250021 14.9999999962498 0.0
    vertex 23.007685463279078 8.407057477955908 0.0
  endloop
endfacet
facet normal 0.0 0.0 -1.0
  outer loop
    vertex 23.007685463279078 8.407057477955908 0.0
    vertex 29.99999999250021 14.9999999962498 0.0
    vertex 23.169148848273327 8.312537698981227 0.0
  endloop
endfacet
facet normal 0.0 0.0 -1.0
  outer loop
    vertex 23.169148848273327 8.312537698981227 0.0
    vertex 29.99999999250021 14.9999999962498 0.0
    vertex 23.30947741201672 8.19046648233402 0.0
  endloop
endfacet
facet normal 0.0 0.0 -1.0
  outer loop
    vertex 23.30947741201672 8.19046648233402 0.0
    vertex 29.99999999250021 14.9999999962498 0.0
    vertex 23.425004516554015 8.044510465969537 0.0
  endloop
endfacet
facet normal 0.0 0.0 -1.0
  outer loop
    vertex 23.425004516554015 8.044510465969537 0.0
    vertex 29.99999999250021 14.9999999962498 0.0
    vertex 23.51206352392996 7.878336287843037 0.0
  endloop
endfacet
facet normal 0.0 0.0 -1.0
  outer loop
    vertex 23.51206352392996 7.878336287843037 0.0
    vertex 29.99999999250021 14.9999999962498 0.0
    vertex 23.56698779618935 7.695610585909751 0.0
  endloop
endfacet
facet normal 0.0 0.0 -1.0
  outer loop
    vertex 23.56698779618935 7.695610585909751 0.0
    vertex 29.99999999250021 14.9999999962498 0.0
    vertex 23.586110695377016 7.499999998124889 0.0
  endloop
endfacet
facet normal 0.0 0.0 -1.0
  outer loop
    vertex 0.0 0.0 0.0
    vertex 6.752047310603387 6.5571602422947395 0.0
    vertex 29.99999999250021 0.0 0.0
  endloop
endfacet
facet normal 0.0 0.0 -1.0
  outer loop
    vertex 6.752047310603387 6.5571602422947395 0.0
    vertex 0.0 0.0 0.0
    vertex 6.581391504216868 6.636529313199948 0.0
  endloop
endfacet
facet normal 0.0 0.0 -1.0
  outer loop
    vertex 6.581391504216868 6.636529313199948 0.0
    vertex 0.0 0.0 0.0
    vertex 6.430037200103583 6.745283140755301 0.0
  endloop
endfacet
facet normal 0.0 0.0 -1.0
  outer loop
    vertex 6.430037200103583 6.745283140755301 0.0
    vertex 0.0 0.0 0.0
    vertex 6.301651036218741 6.879755087005522 0.0
  endloop
endfacet
facet normal 0.0 0.0 -1.0
  outer loop
    vertex 6.301651036218741 6.879755087005522 0.0
    vertex 0.0 0.0 0.0
    vertex 6.19989965051763 7.036278513995446 0.0
  endloop
endfacet
facet normal 0.0 0.0 -1.0
  outer loop
    vertex 6.19989965051763 7.036278513995446 0.0
    vertex 0.0 0.0 0.0
    vertex 6.1284496809554625 7.211186783769748 0.0
  endloop
endfacet
facet normal 0.0 0.0 -1.0
  outer loop
    vertex 6.1284496809554625 7.211186783769748 0.0
    vertex 0.0 0.0 0.0
    vertex 6.090967765487491 7.400813258373222 0.0
  endloop
endfacet
facet normal 0.0 0.0 -1.0
  outer loop
    vertex 29.99999999250021 0.0 0.0
    vertex 6.752047310603387 6.5571602422947395 0.0
    vertex 6.9383379813078605 6.510842565994932 0.0
  endloop
endfacet
facet normal 0.0 0.0 -1.0
  outer loop
    vertex 29.99999999250021 0.0 0.0
    vertex 6.9383379813078605 6.510842565994932 0.0
    vertex 7.136020737881549 6.501223825183052 0.0
  endloop
endfacet
facet normal 0.0 0.0 -1.0
  outer loop
    vertex 29.99999999250021 0.0 0.0
    vertex 7.136020737881549 6.501223825183052 0.0
    vertex 7.3287538515118 6.529640814946953 0.0
  endloop
endfacet
facet normal 0.0 0.0 -1.0
  outer loop
    vertex 29.99999999250021 0.0 0.0
    vertex 7.3287538515118 6.529640814946953 0.0
    vertex 7.5076854198017 6.592942518293871 0.0
  endloop
endfacet
facet normal 0.0 0.0 -1.0
  outer loop
    vertex 29.99999999250021 0.0 0.0
    vertex 7.5076854198017 6.592942518293871 0.0
    vertex 7.669148804796016 6.68746229726855 0.0
  endloop
endfacet
facet normal 0.0 0.0 -1.0
  outer loop
    vertex 29.99999999250021 0.0 0.0
    vertex 7.669148804796016 6.68746229726855 0.0
    vertex 7.809477368539461 6.809533513915758 0.0
  endloop
endfacet
facet normal 0.0 0.0 -1.0
  outer loop
    vertex 29.99999999250021 0.0 0.0
    vertex 7.809477368539461 6.809533513915758 0.0
    vertex 7.925004473076837 6.955489530280217 0.0
  endloop
endfacet
facet normal 0.0 0.0 -1.0
  outer loop
    vertex 29.99999999250021 0.0 0.0
    vertex 7.925004473076837 6.955489530280217 0.0
    vertex 8.012063480452886 7.12166370840674 0.0
  endloop
endfacet
facet normal 0.0 0.0 -1.0
  outer loop
    vertex 29.99999999250021 0.0 0.0
    vertex 8.012063480452886 7.12166370840674 0.0
    vertex 8.066987752712365 7.3043894103400495 0.0
  endloop
endfacet
facet normal 0.0 0.0 -1.0
  outer loop
    vertex 29.99999999250021 0.0 0.0
    vertex 8.066987752712365 7.3043894103400495 0.0
    vertex 8.08611065190002 7.499999998124889 0.0
  endloop
endfacet
facet normal 0.0 0.0 -1.0
  outer loop
    vertex 29.99999999250021 0.0 0.0
    vertex 8.08611065190002 7.499999998124889 0.0
    vertex 21.930037243580827 6.745283140755301 0.0
  endloop
endfacet
facet normal 0.0 0.0 -1.0
  outer loop
    vertex 21.930037243580827 6.745283140755301 0.0
    vertex 8.08611065190002 7.499999998124889 0.0
    vertex 21.801651079696075 6.8797550870055675 0.0
  endloop
endfacet
facet normal 0.0 0.0 -1.0
  outer loop
    vertex 21.801651079696075 6.8797550870055675 0.0
    vertex 8.08611065190002 7.499999998124889 0.0
    vertex 21.699899693995057 7.036278513995446 0.0
  endloop
endfacet
facet normal 0.0 0.0 -1.0
  outer loop
    vertex 21.699899693995057 7.036278513995446 0.0
    vertex 8.08611065190002 7.499999998124889 0.0
    vertex 21.62844972443298 7.211186783769748 0.0
  endloop
endfacet
facet normal 0.0 0.0 -1.0
  outer loop
    vertex 21.62844972443298 7.211186783769748 0.0
    vertex 8.08611065190002 7.499999998124889 0.0
    vertex 21.59096780896505 7.400813258373244 0.0
  endloop
endfacet
facet normal 0.0 0.0 -1.0
  outer loop
    vertex 21.59096780896505 7.400813258373244 0.0
    vertex 8.08611065190002 7.499999998124889 0.0
    vertex 21.59096780896505 7.599186737876557 0.0
  endloop
endfacet
facet normal 0.0 0.0 -1.0
  outer loop
    vertex 29.99999999250021 0.0 0.0
    vertex 21.930037243580827 6.745283140755301 0.0
    vertex 22.081391547694057 6.636529313199948 0.0
  endloop
endfacet
facet normal 0.0 0.0 -1.0
  outer loop
    vertex 29.99999999250021 0.0 0.0
    vertex 22.081391547694057 6.636529313199948 0.0
    vertex 22.25204735408053 6.5571602422947395 0.0
  endloop
endfacet
facet normal 0.0 0.0 -1.0
  outer loop
    vertex 29.99999999250021 0.0 0.0
    vertex 22.25204735408053 6.5571602422947395 0.0
    vertex 22.43833802478506 6.510842565994932 0.0
  endloop
endfacet
facet normal 0.0 0.0 -1.0
  outer loop
    vertex 29.99999999250021 0.0 0.0
    vertex 22.43833802478506 6.510842565994932 0.0
    vertex 22.636020781358837 6.501223825183029 0.0
  endloop
endfacet
facet normal 0.0 0.0 -1.0
  outer loop
    vertex 29.99999999250021 0.0 0.0
    vertex 22.636020781358837 6.501223825183029 0.0
    vertex 22.828753894989156 6.529640814946975 0.0
  endloop
endfacet
facet normal 0.0 0.0 -1.0
  outer loop
    vertex 29.99999999250021 0.0 0.0
    vertex 22.828753894989156 6.529640814946975 0.0
    vertex 23.007685463279078 6.592942518293871 0.0
  endloop
endfacet
facet normal 0.0 0.0 -1.0
  outer loop
    vertex 29.99999999250021 0.0 0.0
    vertex 23.007685463279078 6.592942518293871 0.0
    vertex 23.169148848273327 6.68746229726855 0.0
  endloop
endfacet
facet normal 0.0 0.0 -1.0
  outer loop
    vertex 29.99999999250021 0.0 0.0
    vertex 23.169148848273327 6.68746229726855 0.0
    vertex 23.30947741201672 6.809533513915736 0.0
  endloop
endfacet
facet normal 0.0 0.0 -1.0
  outer loop
    vertex 29.99999999250021 0.0 0.0
    vertex 23.30947741201672 6.809533513915736 0.0
    vertex 23.425004516554015 6.955489530280217 0.0
  endloop
endfacet
facet normal 0.0 0.0 -1.0
  outer loop
    vertex 29.99999999250021 0.0 0.0
    vertex 23.425004516554015 6.955489530280217 0.0
    vertex 23.51206352392996 7.12166370840674 0.0
  endloop
endfacet
facet normal 0.0 0.0 -1.0
  outer loop
    vertex 29.99999999250021 0.0 0.0
    vertex 23.51206352392996 7.12166370840674 0.0
    vertex 23.566987796189373 7.3043894103400495 0.0
  endloop
endfacet
facet normal 0.0 0.0 -1.0
  outer loop
    vertex 29.99999999250021 0.0 0.0
    vertex 23.566987796189373 7.3043894103400495 0.0
    vertex 23.586110695377016 7.499999998124889 0.0
  endloop
endfacet
facet normal 0.0 0.0 -1.0
  outer loop
    vertex 29.99999999250021 0.0 0.0
    vertex 23.586110695377016 7.499999998124889 0.0
    vertex 29.99999999250021 14.9999999962498 0.0
  endloop
endfacet
facet normal -0.0 -0.0 1.0
  outer loop
    vertex 0.0 0.0 3.175
    vertex 6.301651036218741 6.879755087005522 3.175
    vertex 0.0 14.9999999962498 3.175
  endloop
endfacet
facet normal -0.0 -0.0 1.0
  outer loop
    vertex 6.301651036218741 6.879755087005522 3.175
    vertex 0.0 0.0 3.175
    vertex 6.430037200103583 6.745283140755301 3.175
  endloop
endfacet
facet normal -0.0 -0.0 1.0
  outer loop
    vertex 6.430037200103583 6.745283140755301 3.175
    vertex 0.0 0.0 3.175
    vertex 6.581391504216868 6.636529313199948 3.175
  endloop
endfacet
facet normal -0.0 -0.0 1.0
  outer loop
    vertex 6.581391504216868 6.636529313199948 3.175
    vertex 0.0 0.0 3.175
    vertex 6.752047310603387 6.5571602422947395 3.175
  endloop
endfacet
facet normal -0.0 -0.0 1.0
  outer loop
    vertex 6.752047310603387 6.5571602422947395 3.175
    vertex 0.0 0.0 3.175
    vertex 29.99999999250021 0.0 3.175
  endloop
endfacet
facet normal -0.0 -0.0 1.0
  outer loop
    vertex 0.0 14.9999999962498 3.175
    vertex 6.301651036218741 6.879755087005522 3.175
    vertex 6.19989965051763 7.036278513995446 3.175
  endloop
endfacet
facet normal -0.0 -0.0 1.0
  outer loop
    vertex 0.0 14.9999999962498 3.175
    vertex 6.19989965051763 7.036278513995446 3.175
    vertex 6.1284496809554625 7.211186783769748 3.175
  endloop
endfacet
facet normal -0.0 -0.0 1.0
  outer loop
    vertex 0.0 14.9999999962498 3.175
    vertex 6.1284496809554625 7.211186783769748 3.175
    vertex 6.090967765487491 7.400813258373222 3.175
  endloop
endfacet
facet normal -0.0 -0.0 1.0
  outer loop
    vertex 6.752047310603387 6.5571602422947395 3.175
    vertex 29.99999999250021 0.0 3.175
    vertex 6.9383379813078605 6.510842565994932 3.175
  endloop
endfacet
facet normal -0.0 -0.0 1.0
  outer loop
    vertex 6.9383379813078605 6.510842565994932 3.175
    vertex 29.99999999250021 0.0 3.175
    vertex 7.136020737881549 6.501223825183052 3.175
  endloop
endfacet
facet normal -0.0 -0.0 1.0
  outer loop
    vertex 7.136020737881549 6.501223825183052 3.175
    vertex 29.99999999250021 0.0 3.175
    vertex 7.3287538515118 6.529640814946953 3.175
  endloop
endfacet
facet normal -0.0 -0.0 1.0
  outer loop
    vertex 7.3287538515118 6.529640814946953 3.175
    vertex 29.99999999250021 0.0 3.175
    vertex 7.5076854198017 6.592942518293871 3.175
  endloop
endfacet
facet normal -0.0 -0.0 1.0
  outer loop
    vertex 7.5076854198017 6.592942518293871 3.175
    vertex 29.99999999250021 0.0 3.175
    vertex 7.669148804796016 6.68746229726855 3.175
  endloop
endfacet
facet normal -0.0 -0.0 1.0
  outer loop
    vertex 7.669148804796016 6.68746229726855 3.175
    vertex 29.99999999250021 0.0 3.175
    vertex 7.809477368539461 6.809533513915758 3.175
  endloop
endfacet
facet normal -0.0 -0.0 1.0
  outer loop
    vertex 7.809477368539461 6.809533513915758 3.175
    vertex 29.99999999250021 0.0 3.175
    vertex 7.925004473076837 6.955489530280217 3.175
  endloop
endfacet
facet normal -0.0 -0.0 1.0
  outer loop
    vertex 7.925004473076837 6.955489530280217 3.175
    vertex 29.99999999250021 0.0 3.175
    vertex 8.012063480452886 7.12166370840674 3.175
  endloop
endfacet
facet normal -0.0 -0.0 1.0
  outer loop
    vertex 8.012063480452886 7.12166370840674 3.175
    vertex 29.99999999250021 0.0 3.175
    vertex 8.066987752712365 7.3043894103400495 3.175
  endloop
endfacet
facet normal -0.0 -0.0 1.0
  outer loop
    vertex 8.066987752712365 7.3043894103400495 3.175
    vertex 29.99999999250021 0.0 3.175
    vertex 8.08611065190002 7.499999998124889 3.175
  endloop
endfacet
facet normal -0.0 -0.0 1.0
  outer loop
    vertex 8.08611065190002 7.499999998124889 3.175
    vertex 29.99999999250021 0.0 3.175
    vertex 21.930037243580827 6.745283140755301 3.175
  endloop
endfacet
facet normal -0.0 -0.0 1.0
  outer loop
    vertex 8.08611065190002 7.499999998124889 3.175
    vertex 21.930037243580827 6.745283140755301 3.175
    vertex 21.801651079696075 6.8797550870055675 3.175
  endloop
endfacet
facet normal -0.0 -0.0 1.0
  outer loop
    vertex 8.08611065190002 7.499999998124889 3.175
    vertex 21.801651079696075 6.8797550870055675 3.175
    vertex 21.699899693995057 7.036278513995446 3.175
  endloop
endfacet
facet normal -0.0 -0.0 1.0
  outer loop
    vertex 8.08611065190002 7.499999998124889 3.175
    vertex 21.699899693995057 7.036278513995446 3.175
    vertex 21.62844972443298 7.211186783769748 3.175
  endloop
endfacet
facet normal -0.0 -0.0 1.0
  outer loop
    vertex 8.08611065190002 7.499999998124889 3.175
    vertex 21.62844972443298 7.211186783769748 3.175
    vertex 21.59096780896505 7.400813258373244 3.175
  endloop
endfacet
facet normal -0.0 -0.0 1.0
  outer loop
    vertex 21.930037243580827 6.745283140755301 3.175
    vertex 29.99999999250021 0.0 3.175
    vertex 22.081391547694057 6.636529313199948 3.175
  endloop
endfacet
facet normal -0.0 -0.0 1.0
  outer loop
    vertex 22.081391547694057 6.636529313199948 3.175
    vertex 29.99999999250021 0.0 3.175
    vertex 22.25204735408053 6.5571602422947395 3.175
  endloop
endfacet
facet normal -0.0 -0.0 1.0
  outer loop
    vertex 22.25204735408053 6.5571602422947395 3.175
    vertex 29.99999999250021 0.0 3.175
    vertex 22.43833802478506 6.510842565994932 3.175
  endloop
endfacet
facet normal -0.0 -0.0 1.0
  outer loop
    vertex 22.43833802478506 6.510842565994932 3.175
    vertex 29.99999999250021 0.0 3.175
    vertex 22.636020781358837 6.501223825183029 3.175
  endloop
endfacet
facet normal -0.0 -0.0 1.0
  outer loop
    vertex 22.636020781358837 6.501223825183029 3.175
    vertex 29.99999999250021 0.0 3.175
    vertex 22.828753894989156 6.529640814946975 3.175
  endloop
endfacet
facet normal -0.0 -0.0 1.0
  outer loop
    vertex 22.828753894989156 6.529640814946975 3.175
    vertex 29.99999999250021 0.0 3.175
    vertex 23.007685463279078 6.592942518293871 3.175
  endloop
endfacet
facet normal -0.0 -0.0 1.0
  outer loop
    vertex 23.007685463279078 6.592942518293871 3.175
    vertex 29.99999999250021 0.0 3.175
    vertex 23.169148848273327 6.68746229726855 3.175
  endloop
endfacet
facet normal -0.0 -0.0 1.0
  outer loop
    vertex 23.169148848273327 6.68746229726855 3.175
    vertex 29.99999999250021 0.0 3.175
    vertex 23.30947741201672 6.809533513915736 3.175
  endloop
endfacet
facet normal -0.0 -0.0 1.0
  outer loop
    vertex 23.30947741201672 6.809533513915736 3.175
    vertex 29.99999999250021 0.0 3.175
    vertex 23.425004516554015 6.955489530280217 3.175
  endloop
endfacet
facet normal -0.0 -0.0 1.0
  outer loop
    vertex 23.425004516554015 6.955489530280217 3.175
    vertex 29.99999999250021 0.0 3.175
    vertex 23.51206352392996 7.12166370840674 3.175
  endloop
endfacet
facet normal -0.0 -0.0 1.0
  outer loop
    vertex 23.51206352392996 7.12166370840674 3.175
    vertex 29.99999999250021 0.0 3.175
    vertex 23.566987796189373 7.3043894103400495 3.175
  endloop
endfacet
facet normal -0.0 -0.0 1.0
  outer loop
    vertex 23.566987796189373 7.3043894103400495 3.175
    vertex 29.99999999250021 0.0 3.175
    vertex 23.586110695377016 7.499999998124889 3.175
  endloop
endfacet
facet normal -0.0 -0.0 1.0
  outer loop
    vertex 0.0 14.9999999962498 3.175
    vertex 6.752047310603364 8.442839753955038 3.175
    vertex 29.99999999250021 14.9999999962498 3.175
  endloop
endfacet
facet normal -0.0 -0.0 1.0
  outer loop
    vertex 6.752047310603364 8.442839753955038 3.175
    vertex 0.0 14.9999999962498 3.175
    vertex 6.581391504216846 8.36347068304983 3.175
  endloop
endfacet
facet normal -0.0 -0.0 1.0
  outer loop
    vertex 6.581391504216846 8.36347068304983 3.175
    vertex 0.0 14.9999999962498 3.175
    vertex 6.430037200103561 8.254716855494499 3.175
  endloop
endfacet
facet normal -0.0 -0.0 1.0
  outer loop
    vertex 6.430037200103561 8.254716855494499 3.175
    vertex 0.0 14.9999999962498 3.175
    vertex 6.301651036218752 8.120244909244233 3.175
  endloop
endfacet
facet normal -0.0 -0.0 1.0
  outer loop
    vertex 6.301651036218752 8.120244909244233 3.175
    vertex 0.0 14.9999999962498 3.175
    vertex 6.199899650517642 7.963721482254355 3.175
  endloop
endfacet
facet normal -0.0 -0.0 1.0
  outer loop
    vertex 6.199899650517642 7.963721482254355 3.175
    vertex 0.0 14.9999999962498 3.175
    vertex 6.128449680955451 7.788813212480029 3.175
  endloop
endfacet
facet normal -0.0 -0.0 1.0
  outer loop
    vertex 6.128449680955451 7.788813212480029 3.175
    vertex 0.0 14.9999999962498 3.175
    vertex 6.090967765487503 7.5991867378765345 3.175
  endloop
endfacet
facet normal -0.0 -0.0 1.0
  outer loop
    vertex 6.090967765487503 7.5991867378765345 3.175
    vertex 0.0 14.9999999962498 3.175
    vertex 6.090967765487491 7.400813258373222 3.175
  endloop
endfacet
facet normal -0.0 -0.0 1.0
  outer loop
    vertex 29.99999999250021 14.9999999962498 3.175
    vertex 6.752047310603364 8.442839753955038 3.175
    vertex 6.938337981307849 8.489157430254846 3.175
  endloop
endfacet
facet normal -0.0 -0.0 1.0
  outer loop
    vertex 29.99999999250021 14.9999999962498 3.175
    vertex 6.938337981307849 8.489157430254846 3.175
    vertex 7.136020737881549 8.498776171066726 3.175
  endloop
endfacet
facet normal -0.0 -0.0 1.0
  outer loop
    vertex 29.99999999250021 14.9999999962498 3.175
    vertex 7.136020737881549 8.498776171066726 3.175
    vertex 7.328753851511788 8.470359181302825 3.175
  endloop
endfacet
facet normal -0.0 -0.0 1.0
  outer loop
    vertex 29.99999999250021 14.9999999962498 3.175
    vertex 7.328753851511788 8.470359181302825 3.175
    vertex 7.50768541980171 8.407057477955908 3.175
  endloop
endfacet
facet normal -0.0 -0.0 1.0
  outer loop
    vertex 29.99999999250021 14.9999999962498 3.175
    vertex 7.50768541980171 8.407057477955908 3.175
    vertex 7.669148804796005 8.312537698981206 3.175
  endloop
endfacet
facet normal -0.0 -0.0 1.0
  outer loop
    vertex 29.99999999250021 14.9999999962498 3.175
    vertex 7.669148804796005 8.312537698981206 3.175
    vertex 7.809477368539473 8.19046648233402 3.175
  endloop
endfacet
facet normal -0.0 -0.0 1.0
  outer loop
    vertex 29.99999999250021 14.9999999962498 3.175
    vertex 7.809477368539473 8.19046648233402 3.175
    vertex 7.925004473076859 8.044510465969537 3.175
  endloop
endfacet
facet normal -0.0 -0.0 1.0
  outer loop
    vertex 29.99999999250021 14.9999999962498 3.175
    vertex 7.925004473076859 8.044510465969537 3.175
    vertex 8.012063480452886 7.878336287843037 3.175
  endloop
endfacet
facet normal -0.0 -0.0 1.0
  outer loop
    vertex 29.99999999250021 14.9999999962498 3.175
    vertex 8.012063480452886 7.878336287843037 3.175
    vertex 8.066987752712365 7.695610585909751 3.175
  endloop
endfacet
facet normal -0.0 -0.0 1.0
  outer loop
    vertex 29.99999999250021 14.9999999962498 3.175
    vertex 8.066987752712365 7.695610585909751 3.175
    vertex 8.08611065190002 7.499999998124889 3.175
  endloop
endfacet
facet normal -0.0 -0.0 1.0
  outer loop
    vertex 29.99999999250021 14.9999999962498 3.175
    vertex 8.08611065190002 7.499999998124889 3.175
    vertex 21.930037243580827 8.254716855494499 3.175
  endloop
endfacet
facet normal -0.0 -0.0 1.0
  outer loop
    vertex 21.930037243580827 8.254716855494499 3.175
    vertex 8.08611065190002 7.499999998124889 3.175
    vertex 21.801651079696075 8.120244909244233 3.175
  endloop
endfacet
facet normal -0.0 -0.0 1.0
  outer loop
    vertex 21.801651079696075 8.120244909244233 3.175
    vertex 8.08611065190002 7.499999998124889 3.175
    vertex 21.69989969399508 7.963721482254332 3.175
  endloop
endfacet
facet normal -0.0 -0.0 1.0
  outer loop
    vertex 21.69989969399508 7.963721482254332 3.175
    vertex 8.08611065190002 7.499999998124889 3.175
    vertex 21.628449724432954 7.788813212480029 3.175
  endloop
endfacet
facet normal -0.0 -0.0 1.0
  outer loop
    vertex 21.628449724432954 7.788813212480029 3.175
    vertex 8.08611065190002 7.499999998124889 3.175
    vertex 21.59096780896505 7.599186737876557 3.175
  endloop
endfacet
facet normal -0.0 -0.0 1.0
  outer loop
    vertex 21.59096780896505 7.599186737876557 3.175
    vertex 8.08611065190002 7.499999998124889 3.175
    vertex 21.59096780896505 7.400813258373244 3.175
  endloop
endfacet
facet normal -0.0 -0.0 1.0
  outer loop
    vertex 29.99999999250021 14.9999999962498 3.175
    vertex 21.930037243580827 8.254716855494499 3.175
    vertex 22.081391547694057 8.36347068304983 3.175
  endloop
endfacet
facet normal -0.0 -0.0 1.0
  outer loop
    vertex 29.99999999250021 14.9999999962498 3.175
    vertex 22.081391547694057 8.36347068304983 3.175
    vertex 22.25204735408053 8.442839753955038 3.175
  endloop
endfacet
facet normal -0.0 -0.0 1.0
  outer loop
    vertex 29.99999999250021 14.9999999962498 3.175
    vertex 22.25204735408053 8.442839753955038 3.175
    vertex 22.438338024785036 8.489157430254846 3.175
  endloop
endfacet
facet normal -0.0 -0.0 1.0
  outer loop
    vertex 29.99999999250021 14.9999999962498 3.175
    vertex 22.438338024785036 8.489157430254846 3.175
    vertex 22.636020781358837 8.498776171066726 3.175
  endloop
endfacet
facet normal -0.0 -0.0 1.0
  outer loop
    vertex 29.99999999250021 14.9999999962498 3.175
    vertex 22.636020781358837 8.498776171066726 3.175
    vertex 22.82875389498918 8.470359181302825 3.175
  endloop
endfacet
facet normal -0.0 -0.0 1.0
  outer loop
    vertex 29.99999999250021 14.9999999962498 3.175
    vertex 22.82875389498918 8.470359181302825 3.175
    vertex 23.007685463279078 8.407057477955908 3.175
  endloop
endfacet
facet normal -0.0 -0.0 1.0
  outer loop
    vertex 29.99999999250021 14.9999999962498 3.175
    vertex 23.007685463279078 8.407057477955908 3.175
    vertex 23.169148848273327 8.312537698981227 3.175
  endloop
endfacet
facet normal -0.0 -0.0 1.0
  outer loop
    vertex 29.99999999250021 14.9999999962498 3.175
    vertex 23.169148848273327 8.312537698981227 3.175
    vertex 23.30947741201672 8.19046648233402 3.175
  endloop
endfacet
facet normal -0.0 -0.0 1.0
  outer loop
    vertex 29.99999999250021 14.9999999962498 3.175
    vertex 23.30947741201672 8.19046648233402 3.175
    vertex 23.425004516554015 8.044510465969537 3.175
  endloop
endfacet
facet normal -0.0 -0.0 1.0
  outer loop
    vertex 29.99999999250021 14.9999999962498 3.175
    vertex 23.425004516554015 8.044510465969537 3.175
    vertex 23.51206352392996 7.878336287843037 3.175
  endloop
endfacet
facet normal -0.0 -0.0 1.0
  outer loop
    vertex 29.99999999250021 14.9999999962498 3.175
    vertex 23.51206352392996 7.878336287843037 3.175
    vertex 23.56698779618935 7.695610585909751 3.175
  endloop
endfacet
facet normal -0.0 -0.0 1.0
  outer loop
    vertex 29.99999999250021 14.9999999962498 3.175
    vertex 23.56698779618935 7.695610585909751 3.175
    vertex 23.586110695377016 7.499999998124889 3.175
  endloop
endfacet
facet normal -0.0 -0.0 1.0
  outer loop
    vertex 29.99999999250021 14.9999999962498 3.175
    vertex 23.586110695377016 7.499999998124889 3.175
    vertex 29.99999999250021 0.0 3.175
  endloop
endfacet
facet normal -0.0 1.0 0.0
  outer loop
    vertex 0.0 14.9999999962498 3.175
    vertex 29.99999999250021 14.9999999962498 0.0
    vertex 0.0 14.9999999962498 0.0
  endloop
endfacet
facet normal -0.0 1.0 0.0
  outer loop
    vertex 29.99999999250021 14.9999999962498 0.0
    vertex 0.0 14.9999999962498 3.175
    vertex 29.99999999250021 14.9999999962498 3.175
  endloop
endfacet
facet normal 1.0 0.0 0.0
  outer loop
    vertex 29.99999999250021 14.9999999962498 0.0
    vertex 29.99999999250021 0.0 3.175
    vertex 29.99999999250021 0.0 0.0
  endloop
endfacet
facet normal 1.0 0.0 0.0
  outer loop
    vertex 29.99999999250021 0.0 3.175
    vertex 29.99999999250021 14.9999999962498 0.0
    vertex 29.99999999250021 14.9999999962498 3.175
  endloop
endfacet
facet normal -0.0 -1.0 -0.0
  outer loop
    vertex 29.99999999250021 0.0 3.175
    vertex 0.0 0.0 0.0
    vertex 29.99999999250021 0.0 0.0
  endloop
endfacet
facet normal -0.0 -1.0 -0.0
  outer loop
    vertex 0.0 0.0 0.0
    vertex 29.99999999250021 0.0 3.175
    vertex 0.0 0.0 3.175
  endloop
endfacet
facet normal -1.0 0.0 0.0
  outer loop
    vertex 0.0 14.9999999962498 3.175
    vertex 0.0 0.0 0.0
    vertex 0.0 0.0 3.175
  endloop
endfacet
facet normal -1.0 0.0 0.0
  outer loop
    vertex 0.0 0.0 0.0
    vertex 0.0 14.9999999962498 3.175
    vertex 0.0 14.9999999962498 0.0
  endloop
endfacet
facet normal -0.14586520488150403 -0.9893044738627621 -0.0
  outer loop
    vertex 22.82875389498918 8.470359181302825 3.175
    vertex 22.636020781358837 8.498776171066726 0.0
    vertex 22.82875389498918 8.470359181302825 0.0
  endloop
endfacet
facet normal -0.14586520488150403 -0.9893044738627621 -0.0
  outer loop
    vertex 22.636020781358837 8.498776171066726 0.0
    vertex 22.82875389498918 8.470359181302825 3.175
    vertex 22.636020781358837 8.498776171066726 3.175
  endloop
endfacet
facet normal 0.04859996258526335 -0.9988183236388442 0.0
  outer loop
    vertex 22.636020781358837 8.498776171066726 3.175
    vertex 22.438338024785036 8.489157430254846 0.0
    vertex 22.636020781358837 8.498776171066726 0.0
  endloop
endfacet
facet normal 0.04859996258526335 -0.9988183236388442 0.0
  outer loop
    vertex 22.438338024785036 8.489157430254846 0.0
    vertex 22.636020781358837 8.498776171066726 3.175
    vertex 22.438338024785036 8.489157430254846 3.175
  endloop
endfacet
facet normal 0.24128522071773373 -0.9704542453218465 0.0
  outer loop
    vertex 22.438338024785036 8.489157430254846 3.175
    vertex 22.25204735408053 8.442839753955038 0.0
    vertex 22.438338024785036 8.489157430254846 0.0
  endloop
endfacet
facet normal 0.24128522071773373 -0.9704542453218465 0.0
  outer loop
    vertex 22.25204735408053 8.442839753955038 0.0
    vertex 22.438338024785036 8.489157430254846 3.175
    vertex 22.25204735408053 8.442839753955038 3.175
  endloop
endfacet
facet normal 0.42170575119993225 -0.9067327386859376 0.0
  outer loop
    vertex 22.25204735408053 8.442839753955038 3.175
    vertex 22.081391547694057 8.36347068304983 0.0
    vertex 22.25204735408053 8.442839753955038 0.0
  endloop
endfacet
facet normal 0.42170575119993225 -0.9067327386859376 0.0
  outer loop
    vertex 22.081391547694057 8.36347068304983 0.0
    vertex 22.25204735408053 8.442839753955038 3.175
    vertex 22.081391547694057 8.36347068304983 3.175
  endloop
endfacet
facet normal 0.5835225528690576 -0.8120969340498569 0.0
  outer loop
    vertex 22.081391547694057 8.36347068304983 3.175
    vertex 21.930037243580827 8.254716855494499 0.0
    vertex 22.081391547694057 8.36347068304983 0.0
  endloop
endfacet
facet normal 0.5835225528690576 -0.8120969340498569 0.0
  outer loop
    vertex 21.930037243580827 8.254716855494499 0.0
    vertex 22.081391547694057 8.36347068304983 3.175
    vertex 21.930037243580827 8.254716855494499 3.175
  endloop
endfacet
facet normal 0.723284137792886 -0.6905505455918497 0.0
  outer loop
    vertex 21.930037243580827 8.254716855494499 0.0
    vertex 21.801651079696075 8.120244909244233 3.175
    vertex 21.801651079696075 8.120244909244233 0.0
  endloop
endfacet
facet normal 0.723284137792886 -0.6905505455918497 0.0
  outer loop
    vertex 21.801651079696075 8.120244909244233 3.175
    vertex 21.930037243580827 8.254716855494499 0.0
    vertex 21.930037243580827 8.254716855494499 3.175
  endloop
endfacet
facet normal 0.8384163044782452 -0.5450303664797427 0.0
  outer loop
    vertex 21.801651079696075 8.120244909244233 0.0
    vertex 21.69989969399508 7.963721482254332 3.175
    vertex 21.69989969399508 7.963721482254332 0.0
  endloop
endfacet
facet normal 0.8384163044782452 -0.5450303664797427 0.0
  outer loop
    vertex 21.69989969399508 7.963721482254332 3.175
    vertex 21.801651079696075 8.120244909244233 0.0
    vertex 21.801651079696075 8.120244909244233 3.175
  endloop
endfacet
facet normal 0.9257386478416886 -0.378163927275252 0.0
  outer loop
    vertex 21.69989969399508 7.963721482254332 0.0
    vertex 21.628449724432954 7.788813212480029 3.175
    vertex 21.628449724432954 7.788813212480029 0.0
  endloop
endfacet
facet normal 0.9257386478416886 -0.378163927275252 0.0
  outer loop
    vertex 21.628449724432954 7.788813212480029 3.175
    vertex 21.69989969399508 7.963721482254332 0.0
    vertex 21.69989969399508 7.963721482254332 3.175
  endloop
endfacet
facet normal 0.9810193092121 -0.19391006924090948 0.0
  outer loop
    vertex 21.628449724432954 7.788813212480029 0.0
    vertex 21.59096780896505 7.599186737876557 3.175
    vertex 21.59096780896505 7.599186737876557 0.0
  endloop
endfacet
facet normal 0.9810193092121 -0.19391006924090948 0.0
  outer loop
    vertex 21.59096780896505 7.599186737876557 3.175
    vertex 21.628449724432954 7.788813212480029 0.0
    vertex 21.628449724432954 7.788813212480029 3.175
  endloop
endfacet
facet normal 1.0 0.0 0.0
  outer loop
    vertex 21.59096780896505 7.599186737876557 0.0
    vertex 21.59096780896505 7.400813258373244 3.175
    vertex 21.59096780896505 7.400813258373244 0.0
  endloop
endfacet
facet normal 1.0 0.0 0.0
  outer loop
    vertex 21.59096780896505 7.400813258373244 3.175
    vertex 21.59096780896505 7.599186737876557 0.0
    vertex 21.59096780896505 7.599186737876557 3.175
  endloop
endfacet
facet normal 0.9810193092120819 0.19391006924099954 0.0
  outer loop
    vertex 21.59096780896505 7.400813258373244 0.0
    vertex 21.62844972443298 7.211186783769748 3.175
    vertex 21.62844972443298 7.211186783769748 0.0
  endloop
endfacet
facet normal 0.9810193092120819 0.19391006924099954 0.0
  outer loop
    vertex 21.62844972443298 7.211186783769748 3.175
    vertex 21.59096780896505 7.400813258373244 0.0
    vertex 21.59096780896505 7.400813258373244 3.175
  endloop
endfacet
facet normal 0.9257386478417722 0.37816392727504733 0.0
  outer loop
    vertex 21.62844972443298 7.211186783769748 0.0
    vertex 21.699899693995057 7.036278513995446 3.175
    vertex 21.699899693995057 7.036278513995446 0.0
  endloop
endfacet
facet normal 0.9257386478417722 0.37816392727504733 0.0
  outer loop
    vertex 21.699899693995057 7.036278513995446 3.175
    vertex 21.62844972443298 7.211186783769748 0.0
    vertex 21.62844972443298 7.211186783769748 3.175
  endloop
endfacet
facet normal 0.838416304478154 0.5450303664798828 0.0
  outer loop
    vertex 21.699899693995057 7.036278513995446 0.0
    vertex 21.801651079696075 6.8797550870055675 3.175
    vertex 21.801651079696075 6.8797550870055675 0.0
  endloop
endfacet
facet normal 0.838416304478154 0.5450303664798828 0.0
  outer loop
    vertex 21.801651079696075 6.8797550870055675 3.175
    vertex 21.699899693995057 7.036278513995446 0.0
    vertex 21.699899693995057 7.036278513995446 3.175
  endloop
endfacet
facet normal 0.723284137792886 0.6905505455918497 0.0
  outer loop
    vertex 21.801651079696075 6.8797550870055675 0.0
    vertex 21.930037243580827 6.745283140755301 3.175
    vertex 21.930037243580827 6.745283140755301 0.0
  endloop
endfacet
facet normal 0.723284137792886 0.6905505455918497 0.0
  outer loop
    vertex 21.930037243580827 6.745283140755301 3.175
    vertex 21.801651079696075 6.8797550870055675 0.0
    vertex 21.801651079696075 6.8797550870055675 3.175
  endloop
endfacet
facet normal 0.5835225528691375 0.8120969340497995 0.0
  outer loop
    vertex 21.930037243580827 6.745283140755301 3.175
    vertex 22.081391547694057 6.636529313199948 0.0
    vertex 21.930037243580827 6.745283140755301 0.0
  endloop
endfacet
facet normal 0.5835225528691375 0.8120969340497995 0.0
  outer loop
    vertex 22.081391547694057 6.636529313199948 0.0
    vertex 21.930037243580827 6.745283140755301 3.175
    vertex 22.081391547694057 6.636529313199948 3.175
  endloop
endfacet
facet normal 0.42170575119993225 0.9067327386859376 0.0
  outer loop
    vertex 22.081391547694057 6.636529313199948 3.175
    vertex 22.25204735408053 6.5571602422947395 0.0
    vertex 22.081391547694057 6.636529313199948 0.0
  endloop
endfacet
facet normal 0.42170575119993225 0.9067327386859376 0.0
  outer loop
    vertex 22.25204735408053 6.5571602422947395 0.0
    vertex 22.081391547694057 6.636529313199948 3.175
    vertex 22.25204735408053 6.5571602422947395 3.175
  endloop
endfacet
facet normal 0.2412852207177062 0.9704542453218533 0.0
  outer loop
    vertex 22.25204735408053 6.5571602422947395 3.175
    vertex 22.43833802478506 6.510842565994932 0.0
    vertex 22.25204735408053 6.5571602422947395 0.0
  endloop
endfacet
facet normal 0.2412852207177062 0.9704542453218533 0.0
  outer loop
    vertex 22.43833802478506 6.510842565994932 0.0
    vertex 22.25204735408053 6.5571602422947395 3.175
    vertex 22.43833802478506 6.510842565994932 3.175
  endloop
endfacet
facet normal 0.048599962585382614 0.9988183236388386 0.0
  outer loop
    vertex 22.43833802478506 6.510842565994932 3.175
    vertex 22.636020781358837 6.501223825183029 0.0
    vertex 22.43833802478506 6.510842565994932 0.0
  endloop
endfacet
facet normal 0.048599962585382614 0.9988183236388386 0.0
  outer loop
    vertex 22.636020781358837 6.501223825183029 0.0
    vertex 22.43833802478506 6.510842565994932 3.175
    vertex 22.636020781358837 6.501223825183029 3.175
  endloop
endfacet
facet normal -0.14586520488174742 0.9893044738627264 0.0
  outer loop
    vertex 22.636020781358837 6.501223825183029 3.175
    vertex 22.828753894989156 6.529640814946975 0.0
    vertex 22.636020781358837 6.501223825183029 0.0
  endloop
endfacet
facet normal -0.14586520488174742 0.9893044738627264 0.0
  outer loop
    vertex 22.828753894989156 6.529640814946975 0.0
    vertex 22.636020781358837 6.501223825183029 3.175
    vertex 22.828753894989156 6.529640814946975 3.175
  endloop
endfacet
facet normal -0.3335199135313609 0.9427430547492959 0.0
  outer loop
    vertex 22.828753894989156 6.529640814946975 3.175
    vertex 23.007685463279078 6.592942518293871 0.0
    vertex 22.828753894989156 6.529640814946975 0.0
  endloop
endfacet
facet normal -0.3335199135313609 0.9427430547492959 0.0
  outer loop
    vertex 23.007685463279078 6.592942518293871 0.0
    vertex 22.828753894989156 6.529640814946975 3.175
    vertex 23.007685463279078 6.592942518293871 3.175
  endloop
endfacet
facet normal -0.5051976199377042 0.8630036875988879 0.0
  outer loop
    vertex 23.007685463279078 6.592942518293871 3.175
    vertex 23.169148848273327 6.68746229726855 0.0
    vertex 23.007685463279078 6.592942518293871 0.0
  endloop
endfacet
facet normal -0.5051976199377042 0.8630036875988879 0.0
  outer loop
    vertex 23.169148848273327 6.68746229726855 0.0
    vertex 23.007685463279078 6.592942518293871 3.175
    vertex 23.169148848273327 6.68746229726855 3.175
  endloop
endfacet
facet normal -0.6563206942064993 0.754482038458371 0.0
  outer loop
    vertex 23.169148848273327 6.68746229726855 3.175
    vertex 23.30947741201672 6.809533513915736 0.0
    vertex 23.169148848273327 6.68746229726855 0.0
  endloop
endfacet
facet normal -0.6563206942064993 0.754482038458371 0.0
  outer loop
    vertex 23.30947741201672 6.809533513915736 0.0
    vertex 23.169148848273327 6.68746229726855 3.175
    vertex 23.30947741201672 6.809533513915736 3.175
  endloop
endfacet
facet normal -0.7841017919138844 0.6206322420865961 0.0
  outer loop
    vertex 23.425004516554015 6.955489530280217 3.175
    vertex 23.30947741201672 6.809533513915736 0.0
    vertex 23.30947741201672 6.809533513915736 3.175
  endloop
endfacet
facet normal -0.7841017919138844 0.6206322420865961 0.0
  outer loop
    vertex 23.30947741201672 6.809533513915736 0.0
    vertex 23.425004516554015 6.955489530280217 3.175
    vertex 23.425004516554015 6.955489530280217 0.0
  endloop
endfacet
facet normal -0.8857978125390392 0.46407136875813937 0.0
  outer loop
    vertex 23.51206352392996 7.12166370840674 3.175
    vertex 23.425004516554015 6.955489530280217 0.0
    vertex 23.425004516554015 6.955489530280217 3.175
  endloop
endfacet
facet normal -0.8857978125390392 0.46407136875813937 0.0
  outer loop
    vertex 23.425004516554015 6.955489530280217 0.0
    vertex 23.51206352392996 7.12166370840674 3.175
    vertex 23.51206352392996 7.12166370840674 0.0
  endloop
endfacet
facet normal -0.9576724342679935 0.2878602241422314 0.0
  outer loop
    vertex 23.566987796189373 7.3043894103400495 3.175
    vertex 23.51206352392996 7.12166370840674 0.0
    vertex 23.51206352392996 7.12166370840674 3.175
  endloop
endfacet
facet normal -0.9576724342679935 0.2878602241422314 0.0
  outer loop
    vertex 23.51206352392996 7.12166370840674 0.0
    vertex 23.566987796189373 7.3043894103400495 3.175
    vertex 23.566987796189373 7.3043894103400495 0.0
  endloop
endfacet
facet normal -0.9952554678947825 0.09729621588498609 0.0
  outer loop
    vertex 23.586110695377016 7.499999998124889 3.175
    vertex 23.566987796189373 7.3043894103400495 0.0
    vertex 23.566987796189373 7.3043894103400495 3.175
  endloop
endfacet
facet normal -0.9952554678947825 0.09729621588498609 0.0
  outer loop
    vertex 23.566987796189373 7.3043894103400495 0.0
    vertex 23.586110695377016 7.499999998124889 3.175
    vertex 23.586110695377016 7.499999998124889 0.0
  endloop
endfacet
facet normal -0.9952554678947723 -0.09729621588508866 -0.0
  outer loop
    vertex 23.56698779618935 7.695610585909751 3.175
    vertex 23.586110695377016 7.499999998124889 0.0
    vertex 23.586110695377016 7.499999998124889 3.175
  endloop
endfacet
facet normal -0.9952554678947723 -0.09729621588508866 -0.0
  outer loop
    vertex 23.586110695377016 7.499999998124889 0.0
    vertex 23.56698779618935 7.695610585909751 3.175
    vertex 23.56698779618935 7.695610585909751 0.0
  endloop
endfacet
facet normal -0.9576724342680163 -0.28786022414215556 -0.0
  outer loop
    vertex 23.51206352392996 7.878336287843037 3.175
    vertex 23.56698779618935 7.695610585909751 0.0
    vertex 23.56698779618935 7.695610585909751 3.175
  endloop
endfacet
facet normal -0.9576724342680163 -0.28786022414215556 -0.0
  outer loop
    vertex 23.56698779618935 7.695610585909751 0.0
    vertex 23.51206352392996 7.878336287843037 3.175
    vertex 23.51206352392996 7.878336287843037 0.0
  endloop
endfacet
facet normal -0.8857978125390134 -0.46407136875818883 -0.0
  outer loop
    vertex 23.425004516554015 8.044510465969537 3.175
    vertex 23.51206352392996 7.878336287843037 0.0
    vertex 23.51206352392996 7.878336287843037 3.175
  endloop
endfacet
facet normal -0.8857978125390134 -0.46407136875818883 -0.0
  outer loop
    vertex 23.51206352392996 7.878336287843037 0.0
    vertex 23.425004516554015 8.044510465969537 3.175
    vertex 23.425004516554015 8.044510465969537 0.0
  endloop
endfacet
facet normal -0.7841017919138844 -0.6206322420865961 -0.0
  outer loop
    vertex 23.30947741201672 8.19046648233402 3.175
    vertex 23.425004516554015 8.044510465969537 0.0
    vertex 23.425004516554015 8.044510465969537 3.175
  endloop
endfacet
facet normal -0.7841017919138844 -0.6206322420865961 -0.0
  outer loop
    vertex 23.425004516554015 8.044510465969537 0.0
    vertex 23.30947741201672 8.19046648233402 3.175
    vertex 23.30947741201672 8.19046648233402 0.0
  endloop
endfacet
facet normal -0.6563206942065684 -0.754482038458311 -0.0
  outer loop
    vertex 23.30947741201672 8.19046648233402 3.175
    vertex 23.169148848273327 8.312537698981227 0.0
    vertex 23.30947741201672 8.19046648233402 0.0
  endloop
endfacet
facet normal -0.6563206942065684 -0.754482038458311 -0.0
  outer loop
    vertex 23.169148848273327 8.312537698981227 0.0
    vertex 23.30947741201672 8.19046648233402 3.175
    vertex 23.169148848273327 8.312537698981227 3.175
  endloop
endfacet
facet normal -0.5051976199377042 -0.8630036875988879 -0.0
  outer loop
    vertex 23.169148848273327 8.312537698981227 3.175
    vertex 23.007685463279078 8.407057477955908 0.0
    vertex 23.169148848273327 8.312537698981227 0.0
  endloop
endfacet
facet normal -0.5051976199377042 -0.8630036875988879 -0.0
  outer loop
    vertex 23.007685463279078 8.407057477955908 0.0
    vertex 23.169148848273327 8.312537698981227 3.175
    vertex 23.007685463279078 8.407057477955908 3.175
  endloop
endfacet
facet normal -0.33351991353150384 -0.942743054749245 -0.0
  outer loop
    vertex 23.007685463279078 8.407057477955908 3.175
    vertex 22.82875389498918 8.470359181302825 0.0
    vertex 23.007685463279078 8.407057477955908 0.0
  endloop
endfacet
facet normal -0.33351991353150384 -0.942743054749245 -0.0
  outer loop
    vertex 22.82875389498918 8.470359181302825 0.0
    vertex 23.007685463279078 8.407057477955908 3.175
    vertex 22.82875389498918 8.470359181302825 3.175
  endloop
endfacet
facet normal -0.14586520488157922 -0.9893044738627511 -0.0
  outer loop
    vertex 7.328753851511788 8.470359181302825 3.175
    vertex 7.136020737881549 8.498776171066726 0.0
    vertex 7.328753851511788 8.470359181302825 0.0
  endloop
endfacet
facet normal -0.14586520488157922 -0.9893044738627511 -0.0
  outer loop
    vertex 7.136020737881549 8.498776171066726 0.0
    vertex 7.328753851511788 8.470359181302825 3.175
    vertex 7.136020737881549 8.498776171066726 3.175
  endloop
endfacet
facet normal 0.04859996258528826 -0.998818323638843 0.0
  outer loop
    vertex 7.136020737881549 8.498776171066726 3.175
    vertex 6.938337981307849 8.489157430254846 0.0
    vertex 7.136020737881549 8.498776171066726 0.0
  endloop
endfacet
facet normal 0.04859996258528826 -0.998818323638843 0.0
  outer loop
    vertex 6.938337981307849 8.489157430254846 0.0
    vertex 7.136020737881549 8.498776171066726 3.175
    vertex 6.938337981307849 8.489157430254846 3.175
  endloop
endfacet
facet normal 0.24128522071776118 -0.9704542453218394 0.0
  outer loop
    vertex 6.938337981307849 8.489157430254846 3.175
    vertex 6.752047310603364 8.442839753955038 0.0
    vertex 6.938337981307849 8.489157430254846 0.0
  endloop
endfacet
facet normal 0.24128522071776118 -0.9704542453218394 0.0
  outer loop
    vertex 6.752047310603364 8.442839753955038 0.0
    vertex 6.938337981307849 8.489157430254846 3.175
    vertex 6.752047310603364 8.442839753955038 3.175
  endloop
endfacet
facet normal 0.4217057511998406 -0.9067327386859803 0.0
  outer loop
    vertex 6.752047310603364 8.442839753955038 3.175
    vertex 6.581391504216846 8.36347068304983 0.0
    vertex 6.752047310603364 8.442839753955038 0.0
  endloop
endfacet
facet normal 0.4217057511998406 -0.9067327386859803 0.0
  outer loop
    vertex 6.581391504216846 8.36347068304983 0.0
    vertex 6.752047310603364 8.442839753955038 3.175
    vertex 6.581391504216846 8.36347068304983 3.175
  endloop
endfacet
facet normal 0.5835225528689143 -0.8120969340499601 0.0
  outer loop
    vertex 6.581391504216846 8.36347068304983 3.175
    vertex 6.430037200103561 8.254716855494499 0.0
    vertex 6.581391504216846 8.36347068304983 0.0
  endloop
endfacet
facet normal 0.5835225528689143 -0.8120969340499601 0.0
  outer loop
    vertex 6.430037200103561 8.254716855494499 0.0
    vertex 6.581391504216846 8.36347068304983 3.175
    vertex 6.430037200103561 8.254716855494499 3.175
  endloop
endfacet
facet normal 0.7232841377927346 -0.6905505455920085 0.0
  outer loop
    vertex 6.430037200103561 8.254716855494499 0.0
    vertex 6.301651036218752 8.120244909244233 3.175
    vertex 6.301651036218752 8.120244909244233 0.0
  endloop
endfacet
facet normal 0.7232841377927346 -0.6905505455920085 0.0
  outer loop
    vertex 6.301651036218752 8.120244909244233 3.175
    vertex 6.430037200103561 8.254716855494499 0.0
    vertex 6.430037200103561 8.254716855494499 3.175
  endloop
endfacet
facet normal 0.8384163044779331 -0.5450303664802225 0.0
  outer loop
    vertex 6.301651036218752 8.120244909244233 0.0
    vertex 6.199899650517642 7.963721482254355 3.175
    vertex 6.199899650517642 7.963721482254355 0.0
  endloop
endfacet
facet normal 0.8384163044779331 -0.5450303664802225 0.0
  outer loop
    vertex 6.199899650517642 7.963721482254355 3.175
    vertex 6.301651036218752 8.120244909244233 0.0
    vertex 6.301651036218752 8.120244909244233 3.175
  endloop
endfacet
facet normal 0.9257386478415802 -0.3781639272755172 0.0
  outer loop
    vertex 6.199899650517642 7.963721482254355 0.0
    vertex 6.128449680955451 7.788813212480029 3.175
    vertex 6.128449680955451 7.788813212480029 0.0
  endloop
endfacet
facet normal 0.9257386478415802 -0.3781639272755172 0.0
  outer loop
    vertex 6.128449680955451 7.788813212480029 3.175
    vertex 6.199899650517642 7.963721482254355 0.0
    vertex 6.199899650517642 7.963721482254355 3.175
  endloop
endfacet
facet normal 0.9810193092120598 -0.1939100692411119 0.0
  outer loop
    vertex 6.128449680955451 7.788813212480029 0.0
    vertex 6.090967765487503 7.5991867378765345 3.175
    vertex 6.090967765487503 7.5991867378765345 0.0
  endloop
endfacet
facet normal 0.9810193092120598 -0.1939100692411119 0.0
  outer loop
    vertex 6.090967765487503 7.5991867378765345 3.175
    vertex 6.128449680955451 7.788813212480029 0.0
    vertex 6.128449680955451 7.788813212480029 3.175
  endloop
endfacet
facet normal 1.0 -5.686176377222451e-14 0.0
  outer loop
    vertex 6.090967765487503 7.5991867378765345 0.0
    vertex 6.090967765487491 7.400813258373222 3.175
    vertex 6.090967765487491 7.400813258373222 0.0
  endloop
endfacet
facet normal 1.0 -5.686176377222451e-14 0.0
  outer loop
    vertex 6.090967765487491 7.400813258373222 3.175
    vertex 6.090967765487503 7.5991867378765345 0.0
    vertex 6.090967765487503 7.5991867378765345 3.175
  endloop
endfacet
facet normal 0.9810193092120333 0.19391006924124643 0.0
  outer loop
    vertex 6.090967765487491 7.400813258373222 0.0
    vertex 6.1284496809554625 7.211186783769748 3.175
    vertex 6.1284496809554625 7.211186783769748 0.0
  endloop
endfacet
facet normal 0.9810193092120333 0.19391006924124643 0.0
  outer loop
    vertex 6.1284496809554625 7.211186783769748 3.175
    vertex 6.090967765487491 7.400813258373222 0.0
    vertex 6.090967765487491 7.400813258373222 3.175
  endloop
endfacet
facet normal 0.9257386478416049 0.3781639272754566 0.0
  outer loop
    vertex 6.1284496809554625 7.211186783769748 0.0
    vertex 6.19989965051763 7.036278513995446 3.175
    vertex 6.19989965051763 7.036278513995446 0.0
  endloop
endfacet
facet normal 0.9257386478416049 0.3781639272754566 0.0
  outer loop
    vertex 6.19989965051763 7.036278513995446 3.175
    vertex 6.1284496809554625 7.211186783769748 0.0
    vertex 6.1284496809554625 7.211186783769748 3.175
  endloop
endfacet
facet normal 0.838416304478005 0.5450303664801122 0.0
  outer loop
    vertex 6.19989965051763 7.036278513995446 0.0
    vertex 6.301651036218741 6.879755087005522 3.175
    vertex 6.301651036218741 6.879755087005522 0.0
  endloop
endfacet
facet normal 0.838416304478005 0.5450303664801122 0.0
  outer loop
    vertex 6.301651036218741 6.879755087005522 3.175
    vertex 6.19989965051763 7.036278513995446 0.0
    vertex 6.19989965051763 7.036278513995446 3.175
  endloop
endfacet
facet normal 0.7232841377925279 0.6905505455922248 0.0
  outer loop
    vertex 6.301651036218741 6.879755087005522 0.0
    vertex 6.430037200103583 6.745283140755301 3.175
    vertex 6.430037200103583 6.745283140755301 0.0
  endloop
endfacet
facet normal 0.7232841377925279 0.6905505455922248 0.0
  outer loop
    vertex 6.430037200103583 6.745283140755301 3.175
    vertex 6.301651036218741 6.879755087005522 0.0
    vertex 6.301651036218741 6.879755087005522 3.175
  endloop
endfacet
facet normal 0.583522552868994 0.8120969340499027 0.0
  outer loop
    vertex 6.430037200103583 6.745283140755301 3.175
    vertex 6.581391504216868 6.636529313199948 0.0
    vertex 6.430037200103583 6.745283140755301 0.0
  endloop
endfacet
facet normal 0.583522552868994 0.8120969340499027 0.0
  outer loop
    vertex 6.581391504216868 6.636529313199948 0.0
    vertex 6.430037200103583 6.745283140755301 3.175
    vertex 6.581391504216868 6.636529313199948 3.175
  endloop
endfacet
facet normal 0.4217057511998406 0.9067327386859803 0.0
  outer loop
    vertex 6.581391504216868 6.636529313199948 3.175
    vertex 6.752047310603387 6.5571602422947395 0.0
    vertex 6.581391504216868 6.636529313199948 0.0
  endloop
endfacet
facet normal 0.4217057511998406 0.9067327386859803 0.0
  outer loop
    vertex 6.752047310603387 6.5571602422947395 0.0
    vertex 6.581391504216868 6.636529313199948 3.175
    vertex 6.752047310603387 6.5571602422947395 3.175
  endloop
endfacet
facet normal 0.24128522071777497 0.9704542453218361 0.0
  outer loop
    vertex 6.752047310603387 6.5571602422947395 3.175
    vertex 6.9383379813078605 6.510842565994932 0.0
    vertex 6.752047310603387 6.5571602422947395 0.0
  endloop
endfacet
facet normal 0.24128522071777497 0.9704542453218361 0.0
  outer loop
    vertex 6.9383379813078605 6.510842565994932 0.0
    vertex 6.752047310603387 6.5571602422947395 3.175
    vertex 6.9383379813078605 6.510842565994932 3.175
  endloop
endfacet
facet normal 0.04859996258529102 0.9988183236388429 0.0
  outer loop
    vertex 6.9383379813078605 6.510842565994932 3.175
    vertex 7.136020737881549 6.501223825183052 0.0
    vertex 6.9383379813078605 6.510842565994932 0.0
  endloop
endfacet
facet normal 0.04859996258529102 0.9988183236388429 0.0
  outer loop
    vertex 7.136020737881549 6.501223825183052 0.0
    vertex 6.9383379813078605 6.510842565994932 3.175
    vertex 7.136020737881549 6.501223825183052 3.175
  endloop
endfacet
facet normal -0.14586520488157087 0.9893044738627523 0.0
  outer loop
    vertex 7.136020737881549 6.501223825183052 3.175
    vertex 7.3287538515118 6.529640814946953 0.0
    vertex 7.136020737881549 6.501223825183052 0.0
  endloop
endfacet
facet normal -0.14586520488157087 0.9893044738627523 0.0
  outer loop
    vertex 7.3287538515118 6.529640814946953 0.0
    vertex 7.136020737881549 6.501223825183052 3.175
    vertex 7.3287538515118 6.529640814946953 3.175
  endloop
endfacet
facet normal -0.33351991353150384 0.942743054749245 0.0
  outer loop
    vertex 7.3287538515118 6.529640814946953 3.175
    vertex 7.5076854198017 6.592942518293871 0.0
    vertex 7.3287538515118 6.529640814946953 0.0
  endloop
endfacet
facet normal -0.33351991353150384 0.942743054749245 0.0
  outer loop
    vertex 7.5076854198017 6.592942518293871 0.0
    vertex 7.3287538515118 6.529640814946953 3.175
    vertex 7.5076854198017 6.592942518293871 3.175
  endloop
endfacet
facet normal -0.5051976199375464 0.8630036875989803 0.0
  outer loop
    vertex 7.5076854198017 6.592942518293871 3.175
    vertex 7.669148804796016 6.68746229726855 0.0
    vertex 7.5076854198017 6.592942518293871 0.0
  endloop
endfacet
facet normal -0.5051976199375464 0.8630036875989803 0.0
  outer loop
    vertex 7.669148804796016 6.68746229726855 0.0
    vertex 7.5076854198017 6.592942518293871 3.175
    vertex 7.669148804796016 6.68746229726855 3.175
  endloop
endfacet
facet normal -0.6563206942064181 0.7544820384584415 0.0
  outer loop
    vertex 7.669148804796016 6.68746229726855 3.175
    vertex 7.809477368539461 6.809533513915758 0.0
    vertex 7.669148804796016 6.68746229726855 0.0
  endloop
endfacet
facet normal -0.6563206942064181 0.7544820384584415 0.0
  outer loop
    vertex 7.809477368539461 6.809533513915758 0.0
    vertex 7.669148804796016 6.68746229726855 3.175
    vertex 7.809477368539461 6.809533513915758 3.175
  endloop
endfacet
facet normal -0.7841017919136315 0.6206322420869159 0.0
  outer loop
    vertex 7.925004473076837 6.955489530280217 3.175
    vertex 7.809477368539461 6.809533513915758 0.0
    vertex 7.809477368539461 6.809533513915758 3.175
  endloop
endfacet
facet normal -0.7841017919136315 0.6206322420869159 0.0
  outer loop
    vertex 7.809477368539461 6.809533513915758 0.0
    vertex 7.925004473076837 6.955489530280217 3.175
    vertex 7.925004473076837 6.955489530280217 0.0
  endloop
endfacet
facet normal -0.8857978125388168 0.464071368758564 0.0
  outer loop
    vertex 8.012063480452886 7.12166370840674 3.175
    vertex 7.925004473076837 6.955489530280217 0.0
    vertex 7.925004473076837 6.955489530280217 3.175
  endloop
endfacet
facet normal -0.8857978125388168 0.464071368758564 0.0
  outer loop
    vertex 7.925004473076837 6.955489530280217 0.0
    vertex 8.012063480452886 7.12166370840674 3.175
    vertex 8.012063480452886 7.12166370840674 0.0
  endloop
endfacet
facet normal -0.9576724342678957 0.28786022414255674 0.0
  outer loop
    vertex 8.066987752712365 7.3043894103400495 3.175
    vertex 8.012063480452886 7.12166370840674 0.0
    vertex 8.012063480452886 7.12166370840674 3.175
  endloop
endfacet
facet normal -0.9576724342678957 0.28786022414255674 0.0
  outer loop
    vertex 8.012063480452886 7.12166370840674 0.0
    vertex 8.066987752712365 7.3043894103400495 3.175
    vertex 8.066987752712365 7.3043894103400495 0.0
  endloop
endfacet
facet normal -0.9952554678947767 0.09729621588504293 0.0
  outer loop
    vertex 8.08611065190002 7.499999998124889 3.175
    vertex 8.066987752712365 7.3043894103400495 0.0
    vertex 8.066987752712365 7.3043894103400495 3.175
  endloop
endfacet
facet normal -0.9952554678947767 0.09729621588504293 0.0
  outer loop
    vertex 8.066987752712365 7.3043894103400495 0.0
    vertex 8.08611065190002 7.499999998124889 3.175
    vertex 8.08611065190002 7.499999998124889 0.0
  endloop
endfacet
facet normal -0.9952554678947779 -0.09729621588503182 -0.0
  outer loop
    vertex 8.066987752712365 7.695610585909751 3.175
    vertex 8.08611065190002 7.499999998124889 0.0
    vertex 8.08611065190002 7.499999998124889 3.175
  endloop
endfacet
facet normal -0.9952554678947779 -0.09729621588503182 -0.0
  outer loop
    vertex 8.08611065190002 7.499999998124889 0.0
    vertex 8.066987752712365 7.695610585909751 3.175
    vertex 8.066987752712365 7.695610585909751 0.0
  endloop
endfacet
facet normal -0.9576724342678858 -0.28786022414258927 -0.0
  outer loop
    vertex 8.012063480452886 7.878336287843037 3.175
    vertex 8.066987752712365 7.695610585909751 0.0
    vertex 8.066987752712365 7.695610585909751 3.175
  endloop
endfacet
facet normal -0.9576724342678858 -0.28786022414258927 -0.0
  outer loop
    vertex 8.066987752712365 7.695610585909751 0.0
    vertex 8.012063480452886 7.878336287843037 3.175
    vertex 8.012063480452886 7.878336287843037 0.0
  endloop
endfacet
facet normal -0.8857978125388405 -0.4640713687585191 -0.0
  outer loop
    vertex 7.925004473076859 8.044510465969537 3.175
    vertex 8.012063480452886 7.878336287843037 0.0
    vertex 8.012063480452886 7.878336287843037 3.175
  endloop
endfacet
facet normal -0.8857978125388405 -0.4640713687585191 -0.0
  outer loop
    vertex 8.012063480452886 7.878336287843037 0.0
    vertex 7.925004473076859 8.044510465969537 3.175
    vertex 7.925004473076859 8.044510465969537 0.0
  endloop
endfacet
facet normal -0.7841017919136486 -0.6206322420868942 -0.0
  outer loop
    vertex 7.809477368539473 8.19046648233402 3.175
    vertex 7.925004473076859 8.044510465969537 0.0
    vertex 7.925004473076859 8.044510465969537 3.175
  endloop
endfacet
facet normal -0.7841017919136486 -0.6206322420868942 -0.0
  outer loop
    vertex 7.925004473076859 8.044510465969537 0.0
    vertex 7.809477368539473 8.19046648233402 3.175
    vertex 7.809477368539473 8.19046648233402 0.0
  endloop
endfacet
facet normal -0.656320694206289 -0.7544820384585539 -0.0
  outer loop
    vertex 7.809477368539473 8.19046648233402 3.175
    vertex 7.669148804796005 8.312537698981206 0.0
    vertex 7.809477368539473 8.19046648233402 0.0
  endloop
endfacet
facet normal -0.656320694206289 -0.7544820384585539 -0.0
  outer loop
    vertex 7.669148804796005 8.312537698981206 0.0
    vertex 7.809477368539473 8.19046648233402 3.175
    vertex 7.669148804796005 8.312537698981206 3.175
  endloop
endfacet
facet normal -0.5051976199376889 -0.8630036875988969 -0.0
  outer loop
    vertex 7.669148804796005 8.312537698981206 3.175
    vertex 7.50768541980171 8.407057477955908 0.0
    vertex 7.669148804796005 8.312537698981206 0.0
  endloop
endfacet
facet normal -0.5051976199376889 -0.8630036875988969 -0.0
  outer loop
    vertex 7.50768541980171 8.407057477955908 0.0
    vertex 7.669148804796005 8.312537698981206 3.175
    vertex 7.50768541980171 8.407057477955908 3.175
  endloop
endfacet
facet normal -0.33351991353146654 -0.9427430547492583 -0.0
  outer loop
    vertex 7.50768541980171 8.407057477955908 3.175
    vertex 7.328753851511788 8.470359181302825 0.0
    vertex 7.50768541980171 8.407057477955908 0.0
  endloop
endfacet
facet normal -0.33351991353146654 -0.9427430547492583 -0.0
  outer loop
    vertex 7.328753851511788 8.470359181302825 0.0
    vertex 7.50768541980171 8.407057477955908 3.175
    vertex 7.328753851511788 8.470359181302825 3.175
  endloop
endfacet
endsolid body-bottom-wheelmount-test
