solid body-wheel
facet normal 0.0 0.0 -1.0
  outer loop
    vertex 1.366226756226592 46.93294981680893 0.0
    vertex 1.127986593019159e-14 32.79046145978771 0.0
    vertex 0.0 40.02116326314518 0.0
  endloop
endfacet
facet normal 0.0 0.0 -1.0
  outer loop
    vertex 1.127986593019159e-14 32.79046145978771 0.0
    vertex 1.366226756226592 46.93294981680893 0.0
    vertex 1.366226756226626 25.878476454512835 0.0
  endloop
endfacet
facet normal 0.0 0.0 -1.0
  outer loop
    vertex 1.366226756226626 25.878476454512835 0.0
    vertex 1.366226756226592 46.93294981680893 0.0
    vertex 3.9705924084333177 53.30829617359539 0.0
  endloop
endfacet
facet normal 0.0 0.0 -1.0
  outer loop
    vertex 1.366226756226626 25.878476454512835 0.0
    vertex 3.9705924084333177 53.30829617359539 0.0
    vertex 3.970592408433374 19.502982535171128 0.0
  endloop
endfacet
facet normal 0.0 0.0 -1.0
  outer loop
    vertex 3.970592408433374 19.502982535171128 0.0
    vertex 3.9705924084333177 53.30829617359539 0.0
    vertex 7.679440058971751 59.013545432479596 0.0
  endloop
endfacet
facet normal 0.0 0.0 -1.0
  outer loop
    vertex 3.970592408433374 19.502982535171128 0.0
    vertex 7.679440058971751 59.013545432479596 0.0
    vertex 7.679440058971796 13.797629063668042 0.0
  endloop
endfacet
facet normal 0.0 0.0 -1.0
  outer loop
    vertex 7.679440058971796 13.797629063668042 0.0
    vertex 7.679440058971751 59.013545432479596 0.0
    vertex 12.359112810193363 63.91504069243664 0.0
  endloop
endfacet
facet normal 0.0 0.0 -1.0
  outer loop
    vertex 7.679440058971796 13.797629063668042 0.0
    vertex 12.359112810193363 63.91504069243664 0.0
    vertex 12.359112810193453 8.896065401909178 0.0
  endloop
endfacet
facet normal 0.0 0.0 -1.0
  outer loop
    vertex 12.359112810193453 8.896065401909178 0.0
    vertex 12.359112810193363 63.91504069243664 0.0
    vertex 17.875953764449726 67.87912505244158 0.0
  endloop
endfacet
facet normal 0.0 0.0 -1.0
  outer loop
    vertex 12.359112810193453 8.896065401909178 0.0
    vertex 17.875953764449726 67.87912505244158 0.0
    vertex 17.87595376444983 4.9319409118000435 0.0
  endloop
endfacet
facet normal 0.0 0.0 -1.0
  outer loop
    vertex 17.87595376444983 4.9319409118000435 0.0
    vertex 17.875953764449726 67.87912505244158 0.0
    vertex 24.096306024092385 70.77214161146954 0.0
  endloop
endfacet
facet normal 0.0 0.0 -1.0
  outer loop
    vertex 17.87595376444983 4.9319409118000435 0.0
    vertex 24.096306024092385 70.77214161146954 0.0
    vertex 24.0963060240925 2.0389049552462346 0.0
  endloop
endfacet
facet normal 0.0 0.0 -1.0
  outer loop
    vertex 24.0963060240925 2.0389049552462346 0.0
    vertex 24.096306024092385 70.77214161146954 0.0
    vertex 30.88651269147284 72.4604334684956 0.0
  endloop
endfacet
facet normal 0.0 0.0 -1.0
  outer loop
    vertex 24.0963060240925 2.0389049552462346 0.0
    vertex 30.88651269147284 72.4604334684956 0.0
    vertex 30.88651269147293 0.35060689415323515 0.0
  endloop
endfacet
facet normal 0.0 0.0 -1.0
  outer loop
    vertex 30.88651269147293 0.35060689415323515 0.0
    vertex 30.88651269147284 72.4604334684956 0.0
    vertex 38.09198190900579 72.8110398521876 0.0
  endloop
endfacet
facet normal 0.0 0.0 -1.0
  outer loop
    vertex 30.88651269147293 0.35060689415323515 0.0
    vertex 38.09198190900579 72.8110398521876 0.0
    vertex 34.86882780591725 36.54547555914176 0.0
  endloop
endfacet
facet normal 0.0 0.0 -1.0
  outer loop
    vertex 34.86882780591725 36.54547555914176 0.0
    vertex 38.09198190900579 72.8110398521876 0.0
    vertex 34.921722423236886 36.81304954719608 0.0
  endloop
endfacet
facet normal 0.0 0.0 -1.0
  outer loop
    vertex 34.921722423236886 36.81304954719608 0.0
    vertex 38.09198190900579 72.8110398521876 0.0
    vertex 35.0225517027724 37.05986080046969 0.0
  endloop
endfacet
facet normal 0.0 0.0 -1.0
  outer loop
    vertex 35.0225517027724 37.05986080046969 0.0
    vertex 38.09198190900579 72.8110398521876 0.0
    vertex 35.16614003919815 37.2807337135062 0.0
  endloop
endfacet
facet normal 0.0 0.0 -1.0
  outer loop
    vertex 35.16614003919815 37.2807337135062 0.0
    vertex 38.09198190900579 72.8110398521876 0.0
    vertex 35.34731182718847 37.47049268084918 0.0
  endloop
endfacet
facet normal 0.0 0.0 -1.0
  outer loop
    vertex 35.34731182718847 37.47049268084918 0.0
    vertex 38.09198190900579 72.8110398521876 0.0
    vertex 35.560891461417654 37.62396209704229 0.0
  endloop
endfacet
facet normal 0.0 0.0 -1.0
  outer loop
    vertex 35.560891461417654 37.62396209704229 0.0
    vertex 38.09198190900579 72.8110398521876 0.0
    vertex 35.801703336560124 37.73596635662909 0.0
  endloop
endfacet
facet normal 0.0 0.0 -1.0
  outer loop
    vertex 35.801703336560124 37.73596635662909 0.0
    vertex 38.09198190900579 72.8110398521876 0.0
    vertex 36.064571847290175 37.801329854153174 0.0
  endloop
endfacet
facet normal 0.0 0.0 -1.0
  outer loop
    vertex 36.064571847290175 37.801329854153174 0.0
    vertex 38.09198190900579 72.8110398521876 0.0
    vertex 36.34350893039043 37.81490394043657 0.0
  endloop
endfacet
facet normal 0.0 0.0 -1.0
  outer loop
    vertex 36.34350893039043 37.81490394043657 0.0
    vertex 38.09198190900579 72.8110398521876 0.0
    vertex 36.61546490691715 37.77480167599001 0.0
  endloop
endfacet
facet normal 0.0 0.0 -1.0
  outer loop
    vertex 36.61546490691715 37.77480167599001 0.0
    vertex 38.09198190900579 72.8110398521876 0.0
    vertex 36.86795205051913 37.685470846752494 0.0
  endloop
endfacet
facet normal 0.0 0.0 -1.0
  outer loop
    vertex 36.86795205051913 37.685470846752494 0.0
    vertex 38.09198190900579 72.8110398521876 0.0
    vertex 37.095794755870656 37.552087058180504 0.0
  endloop
endfacet
facet normal 0.0 0.0 -1.0
  outer loop
    vertex 37.095794755870656 37.552087058180504 0.0
    vertex 38.09198190900579 72.8110398521876 0.0
    vertex 37.29381741764614 37.3798259157304 0.0
  endloop
endfacet
facet normal 0.0 0.0 -1.0
  outer loop
    vertex 37.29381741764614 37.3798259157304 0.0
    vertex 38.09198190900579 72.8110398521876 0.0
    vertex 37.456844430519865 37.1738630248586 0.0
  endloop
endfacet
facet normal 0.0 0.0 -1.0
  outer loop
    vertex 37.456844430519865 37.1738630248586 0.0
    vertex 38.09198190900579 72.8110398521876 0.0
    vertex 37.57970018916619 36.93937399102152 0.0
  endloop
endfacet
facet normal 0.0 0.0 -1.0
  outer loop
    vertex 37.57970018916619 36.93937399102152 0.0
    vertex 38.09198190900579 72.8110398521876 0.0
    vertex 37.65720908825948 36.68153441967547 0.0
  endloop
endfacet
facet normal 0.0 0.0 -1.0
  outer loop
    vertex 37.65720908825948 36.68153441967547 0.0
    vertex 38.09198190900579 72.8110398521876 0.0
    vertex 37.68419552247408 36.40551991627695 0.0
  endloop
endfacet
facet normal 0.0 0.0 -1.0
  outer loop
    vertex 30.88651269147293 0.35060689415323515 0.0
    vertex 34.86882780591725 36.265507671117454 0.0
    vertex 38.0919819090059 0.0 0.0
  endloop
endfacet
facet normal 0.0 0.0 -1.0
  outer loop
    vertex 34.86882780591725 36.265507671117454 0.0
    vertex 30.88651269147293 0.35060689415323515 0.0
    vertex 34.86882780591725 36.54547555914176 0.0
  endloop
endfacet
facet normal 0.0 0.0 -1.0
  outer loop
    vertex 38.0919819090059 0.0 0.0
    vertex 34.86882780591725 36.265507671117454 0.0
    vertex 34.921722423236886 35.99786147243537 0.0
  endloop
endfacet
facet normal 0.0 0.0 -1.0
  outer loop
    vertex 38.0919819090059 0.0 0.0
    vertex 34.921722423236886 35.99786147243537 0.0
    vertex 35.02255170277242 35.75102324325024 0.0
  endloop
endfacet
facet normal 0.0 0.0 -1.0
  outer loop
    vertex 38.0919819090059 0.0 0.0
    vertex 35.02255170277242 35.75102324325024 0.0
    vertex 35.16614003919815 35.530157280339374 0.0
  endloop
endfacet
facet normal 0.0 0.0 -1.0
  outer loop
    vertex 38.0919819090059 0.0 0.0
    vertex 35.16614003919815 35.530157280339374 0.0
    vertex 35.34731182718847 35.34042788048014 0.0
  endloop
endfacet
facet normal 0.0 0.0 -1.0
  outer loop
    vertex 38.0919819090059 0.0 0.0
    vertex 35.34731182718847 35.34042788048014 0.0
    vertex 35.560891461417654 35.186999340449866 0.0
  endloop
endfacet
facet normal 0.0 0.0 -1.0
  outer loop
    vertex 38.0919819090059 0.0 0.0
    vertex 35.560891461417654 35.186999340449866 0.0
    vertex 35.801703336560124 35.07503595702592 0.0
  endloop
endfacet
facet normal 0.0 0.0 -1.0
  outer loop
    vertex 38.0919819090059 0.0 0.0
    vertex 35.801703336560124 35.07503595702592 0.0
    vertex 36.064571847290196 35.009702026985586 0.0
  endloop
endfacet
facet normal 0.0 0.0 -1.0
  outer loop
    vertex 38.0919819090059 0.0 0.0
    vertex 36.064571847290196 35.009702026985586 0.0
    vertex 36.34350893039045 34.996134949727235 0.0
  endloop
endfacet
facet normal 0.0 0.0 -1.0
  outer loop
    vertex 38.0919819090059 0.0 0.0
    vertex 36.34350893039045 34.996134949727235 0.0
    vertex 36.615464906917175 35.036217541784225 0.0
  endloop
endfacet
facet normal 0.0 0.0 -1.0
  outer loop
    vertex 38.0919819090059 0.0 0.0
    vertex 36.615464906917175 35.036217541784225 0.0
    vertex 36.86795205051913 35.12551173561355 0.0
  endloop
endfacet
facet normal 0.0 0.0 -1.0
  outer loop
    vertex 38.0919819090059 0.0 0.0
    vertex 36.86795205051913 35.12551173561355 0.0
    vertex 37.09579475587068 35.25885323443783 0.0
  endloop
endfacet
facet normal 0.0 0.0 -1.0
  outer loop
    vertex 38.0919819090059 0.0 0.0
    vertex 37.09579475587068 35.25885323443783 0.0
    vertex 37.29381741764614 35.43107774147972 0.0
  endloop
endfacet
facet normal 0.0 0.0 -1.0
  outer loop
    vertex 38.0919819090059 0.0 0.0
    vertex 37.29381741764614 35.43107774147972 0.0
    vertex 37.456844430519865 35.63702095996194 0.0
  endloop
endfacet
facet normal 0.0 0.0 -1.0
  outer loop
    vertex 38.0919819090059 0.0 0.0
    vertex 37.456844430519865 35.63702095996194 0.0
    vertex 37.57970018916621 35.87151859310711 0.0
  endloop
endfacet
facet normal 0.0 0.0 -1.0
  outer loop
    vertex 38.0919819090059 0.0 0.0
    vertex 37.57970018916621 35.87151859310711 0.0
    vertex 37.65720908825948 36.1294063441379 0.0
  endloop
endfacet
facet normal 0.0 0.0 -1.0
  outer loop
    vertex 38.0919819090059 0.0 0.0
    vertex 37.65720908825948 36.1294063441379 0.0
    vertex 37.68419552247408 36.40551991627695 0.0
  endloop
endfacet
facet normal 0.0 0.0 -1.0
  outer loop
    vertex 38.0919819090059 0.0 0.0
    vertex 37.68419552247408 36.40551991627695 0.0
    vertex 38.09198190900579 72.8110398521876 0.0
  endloop
endfacet
facet normal 0.0 0.0 -1.0
  outer loop
    vertex 38.0919819090059 0.0 0.0
    vertex 38.09198190900579 72.8110398521876 0.0
    vertex 45.117206795494205 71.77523168404693 0.0
  endloop
endfacet
facet normal 0.0 0.0 -1.0
  outer loop
    vertex 38.0919819090059 0.0 0.0
    vertex 45.117206795494205 71.77523168404693 0.0
    vertex 45.11720679549434 1.035810602647993 0.0
  endloop
endfacet
facet normal 0.0 0.0 -1.0
  outer loop
    vertex 45.11720679549434 1.035810602647993 0.0
    vertex 45.117206795494205 71.77523168404693 0.0
    vertex 51.63935294923474 69.46787036339185 0.0
  endloop
endfacet
facet normal 0.0 0.0 -1.0
  outer loop
    vertex 45.11720679549434 1.035810602647993 0.0
    vertex 51.63935294923474 69.46787036339185 0.0
    vertex 51.63935294923485 3.343183781709628 0.0
  endloop
endfacet
facet normal 0.0 0.0 -1.0
  outer loop
    vertex 51.63935294923485 3.343183781709628 0.0
    vertex 51.63935294923474 69.46787036339185 0.0
    vertex 57.52477101169804 66.02261279124731 0.0
  endloop
endfacet
facet normal 0.0 0.0 -1.0
  outer loop
    vertex 51.63935294923485 3.343183781709628 0.0
    vertex 57.52477101169804 66.02261279124731 0.0
    vertex 57.52477101169816 6.788470175279263 0.0
  endloop
endfacet
facet normal 0.0 0.0 -1.0
  outer loop
    vertex 57.52477101169816 6.788470175279263 0.0
    vertex 57.52477101169804 66.02261279124731 0.0
    vertex 62.63981162435492 61.57311586863822 0.0
  endloop
endfacet
facet normal 0.0 0.0 -1.0
  outer loop
    vertex 57.52477101169816 6.788470175279263 0.0
    vertex 62.63981162435492 61.57311586863822 0.0
    vertex 62.63981162435496 11.238020421451504 0.0
  endloop
endfacet
facet normal 0.0 0.0 -1.0
  outer loop
    vertex 62.63981162435496 11.238020421451504 0.0
    vertex 62.63981162435492 61.57311586863822 0.0
    vertex 66.85082542867599 56.25303649658948 0.0
  endloop
endfacet
facet normal 0.0 0.0 -1.0
  outer loop
    vertex 62.63981162435496 11.238020421451504 0.0
    vertex 66.85082542867599 56.25303649658948 0.0
    vertex 66.85082542867603 16.558185158320665 0.0
  endloop
endfacet
facet normal 0.0 0.0 -1.0
  outer loop
    vertex 66.85082542867603 16.558185158320665 0.0
    vertex 66.85082542867599 56.25303649658948 0.0
    vertex 70.02416306613202 50.19603157612608 0.0
  endloop
endfacet
facet normal 0.0 0.0 -1.0
  outer loop
    vertex 66.85082542867603 16.558185158320665 0.0
    vertex 70.02416306613202 50.19603157612608 0.0
    vertex 70.02416306613212 22.615315023981303 0.0
  endloop
endfacet
facet normal 0.0 0.0 -1.0
  outer loop
    vertex 70.02416306613212 22.615315023981303 0.0
    vertex 70.02416306613202 50.19603157612608 0.0
    vertex 72.02617517819387 43.53575800827287 0.0
  endloop
endfacet
facet normal 0.0 0.0 -1.0
  outer loop
    vertex 70.02416306613212 22.615315023981303 0.0
    vertex 72.02617517819387 43.53575800827287 0.0
    vertex 72.02617517819388 29.275760656527826 0.0
  endloop
endfacet
facet normal 0.0 0.0 -1.0
  outer loop
    vertex 72.02617517819388 29.275760656527826 0.0
    vertex 72.02617517819387 43.53575800827287 0.0
    vertex 72.72321240633207 36.40587269405463 0.0
  endloop
endfacet
facet normal -0.0 -0.0 1.0
  outer loop
    vertex 38.0919819090059 0.0 3.175
    vertex 34.86882780591725 36.265507671117454 3.175
    vertex 30.88651269147293 0.35060689415323515 3.175
  endloop
endfacet
facet normal -0.0 -0.0 1.0
  outer loop
    vertex 34.86882780591725 36.265507671117454 3.175
    vertex 38.0919819090059 0.0 3.175
    vertex 34.921722423236886 35.99786147243537 3.175
  endloop
endfacet
facet normal -0.0 -0.0 1.0
  outer loop
    vertex 34.921722423236886 35.99786147243537 3.175
    vertex 38.0919819090059 0.0 3.175
    vertex 35.02255170277242 35.75102324325024 3.175
  endloop
endfacet
facet normal -0.0 -0.0 1.0
  outer loop
    vertex 35.02255170277242 35.75102324325024 3.175
    vertex 38.0919819090059 0.0 3.175
    vertex 35.16614003919815 35.530157280339374 3.175
  endloop
endfacet
facet normal -0.0 -0.0 1.0
  outer loop
    vertex 35.16614003919815 35.530157280339374 3.175
    vertex 38.0919819090059 0.0 3.175
    vertex 35.34731182718847 35.34042788048014 3.175
  endloop
endfacet
facet normal -0.0 -0.0 1.0
  outer loop
    vertex 35.34731182718847 35.34042788048014 3.175
    vertex 38.0919819090059 0.0 3.175
    vertex 35.560891461417654 35.186999340449866 3.175
  endloop
endfacet
facet normal -0.0 -0.0 1.0
  outer loop
    vertex 35.560891461417654 35.186999340449866 3.175
    vertex 38.0919819090059 0.0 3.175
    vertex 35.801703336560124 35.07503595702592 3.175
  endloop
endfacet
facet normal -0.0 -0.0 1.0
  outer loop
    vertex 35.801703336560124 35.07503595702592 3.175
    vertex 38.0919819090059 0.0 3.175
    vertex 36.064571847290196 35.009702026985586 3.175
  endloop
endfacet
facet normal -0.0 -0.0 1.0
  outer loop
    vertex 36.064571847290196 35.009702026985586 3.175
    vertex 38.0919819090059 0.0 3.175
    vertex 36.34350893039045 34.996134949727235 3.175
  endloop
endfacet
facet normal -0.0 -0.0 1.0
  outer loop
    vertex 36.34350893039045 34.996134949727235 3.175
    vertex 38.0919819090059 0.0 3.175
    vertex 36.615464906917175 35.036217541784225 3.175
  endloop
endfacet
facet normal -0.0 -0.0 1.0
  outer loop
    vertex 36.615464906917175 35.036217541784225 3.175
    vertex 38.0919819090059 0.0 3.175
    vertex 36.86795205051913 35.12551173561355 3.175
  endloop
endfacet
facet normal -0.0 -0.0 1.0
  outer loop
    vertex 36.86795205051913 35.12551173561355 3.175
    vertex 38.0919819090059 0.0 3.175
    vertex 37.09579475587068 35.25885323443783 3.175
  endloop
endfacet
facet normal -0.0 -0.0 1.0
  outer loop
    vertex 37.09579475587068 35.25885323443783 3.175
    vertex 38.0919819090059 0.0 3.175
    vertex 37.29381741764614 35.43107774147972 3.175
  endloop
endfacet
facet normal -0.0 -0.0 1.0
  outer loop
    vertex 37.29381741764614 35.43107774147972 3.175
    vertex 38.0919819090059 0.0 3.175
    vertex 37.456844430519865 35.63702095996194 3.175
  endloop
endfacet
facet normal -0.0 -0.0 1.0
  outer loop
    vertex 37.456844430519865 35.63702095996194 3.175
    vertex 38.0919819090059 0.0 3.175
    vertex 37.57970018916621 35.87151859310711 3.175
  endloop
endfacet
facet normal -0.0 -0.0 1.0
  outer loop
    vertex 37.57970018916621 35.87151859310711 3.175
    vertex 38.0919819090059 0.0 3.175
    vertex 37.65720908825948 36.1294063441379 3.175
  endloop
endfacet
facet normal -0.0 -0.0 1.0
  outer loop
    vertex 37.65720908825948 36.1294063441379 3.175
    vertex 38.0919819090059 0.0 3.175
    vertex 37.68419552247408 36.40551991627695 3.175
  endloop
endfacet
facet normal -0.0 -0.0 1.0
  outer loop
    vertex 37.68419552247408 36.40551991627695 3.175
    vertex 38.0919819090059 0.0 3.175
    vertex 38.09198190900579 72.8110398521876 3.175
  endloop
endfacet
facet normal -0.0 -0.0 1.0
  outer loop
    vertex 38.09198190900579 72.8110398521876 3.175
    vertex 38.0919819090059 0.0 3.175
    vertex 45.117206795494205 71.77523168404693 3.175
  endloop
endfacet
facet normal -0.0 -0.0 1.0
  outer loop
    vertex 45.117206795494205 71.77523168404693 3.175
    vertex 38.0919819090059 0.0 3.175
    vertex 45.11720679549434 1.035810602647993 3.175
  endloop
endfacet
facet normal -0.0 -0.0 1.0
  outer loop
    vertex 45.117206795494205 71.77523168404693 3.175
    vertex 45.11720679549434 1.035810602647993 3.175
    vertex 51.63935294923474 69.46787036339185 3.175
  endloop
endfacet
facet normal -0.0 -0.0 1.0
  outer loop
    vertex 51.63935294923474 69.46787036339185 3.175
    vertex 45.11720679549434 1.035810602647993 3.175
    vertex 51.63935294923485 3.343183781709628 3.175
  endloop
endfacet
facet normal -0.0 -0.0 1.0
  outer loop
    vertex 51.63935294923474 69.46787036339185 3.175
    vertex 51.63935294923485 3.343183781709628 3.175
    vertex 57.52477101169804 66.02261279124731 3.175
  endloop
endfacet
facet normal -0.0 -0.0 1.0
  outer loop
    vertex 57.52477101169804 66.02261279124731 3.175
    vertex 51.63935294923485 3.343183781709628 3.175
    vertex 57.52477101169816 6.788470175279263 3.175
  endloop
endfacet
facet normal -0.0 -0.0 1.0
  outer loop
    vertex 57.52477101169804 66.02261279124731 3.175
    vertex 57.52477101169816 6.788470175279263 3.175
    vertex 62.63981162435492 61.57311586863822 3.175
  endloop
endfacet
facet normal -0.0 -0.0 1.0
  outer loop
    vertex 62.63981162435492 61.57311586863822 3.175
    vertex 57.52477101169816 6.788470175279263 3.175
    vertex 62.63981162435496 11.238020421451504 3.175
  endloop
endfacet
facet normal -0.0 -0.0 1.0
  outer loop
    vertex 62.63981162435492 61.57311586863822 3.175
    vertex 62.63981162435496 11.238020421451504 3.175
    vertex 66.85082542867599 56.25303649658948 3.175
  endloop
endfacet
facet normal -0.0 -0.0 1.0
  outer loop
    vertex 66.85082542867599 56.25303649658948 3.175
    vertex 62.63981162435496 11.238020421451504 3.175
    vertex 66.85082542867603 16.558185158320665 3.175
  endloop
endfacet
facet normal -0.0 -0.0 1.0
  outer loop
    vertex 66.85082542867599 56.25303649658948 3.175
    vertex 66.85082542867603 16.558185158320665 3.175
    vertex 70.02416306613202 50.19603157612608 3.175
  endloop
endfacet
facet normal -0.0 -0.0 1.0
  outer loop
    vertex 70.02416306613202 50.19603157612608 3.175
    vertex 66.85082542867603 16.558185158320665 3.175
    vertex 70.02416306613212 22.615315023981303 3.175
  endloop
endfacet
facet normal -0.0 -0.0 1.0
  outer loop
    vertex 70.02416306613202 50.19603157612608 3.175
    vertex 70.02416306613212 22.615315023981303 3.175
    vertex 72.02617517819387 43.53575800827287 3.175
  endloop
endfacet
facet normal -0.0 -0.0 1.0
  outer loop
    vertex 72.02617517819387 43.53575800827287 3.175
    vertex 70.02416306613212 22.615315023981303 3.175
    vertex 72.02617517819388 29.275760656527826 3.175
  endloop
endfacet
facet normal -0.0 -0.0 1.0
  outer loop
    vertex 72.02617517819387 43.53575800827287 3.175
    vertex 72.02617517819388 29.275760656527826 3.175
    vertex 72.72321240633207 36.40587269405463 3.175
  endloop
endfacet
facet normal -0.0 -0.0 1.0
  outer loop
    vertex 1.127986593019159e-14 32.79046145978771 3.175
    vertex 1.366226756226592 46.93294981680893 3.175
    vertex 0.0 40.02116326314518 3.175
  endloop
endfacet
facet normal -0.0 -0.0 1.0
  outer loop
    vertex 1.366226756226592 46.93294981680893 3.175
    vertex 1.127986593019159e-14 32.79046145978771 3.175
    vertex 1.366226756226626 25.878476454512835 3.175
  endloop
endfacet
facet normal -0.0 -0.0 1.0
  outer loop
    vertex 1.366226756226592 46.93294981680893 3.175
    vertex 1.366226756226626 25.878476454512835 3.175
    vertex 3.9705924084333177 53.30829617359539 3.175
  endloop
endfacet
facet normal -0.0 -0.0 1.0
  outer loop
    vertex 3.9705924084333177 53.30829617359539 3.175
    vertex 1.366226756226626 25.878476454512835 3.175
    vertex 3.970592408433374 19.502982535171128 3.175
  endloop
endfacet
facet normal -0.0 -0.0 1.0
  outer loop
    vertex 3.9705924084333177 53.30829617359539 3.175
    vertex 3.970592408433374 19.502982535171128 3.175
    vertex 7.679440058971751 59.013545432479596 3.175
  endloop
endfacet
facet normal -0.0 -0.0 1.0
  outer loop
    vertex 7.679440058971751 59.013545432479596 3.175
    vertex 3.970592408433374 19.502982535171128 3.175
    vertex 7.679440058971796 13.797629063668042 3.175
  endloop
endfacet
facet normal -0.0 -0.0 1.0
  outer loop
    vertex 7.679440058971751 59.013545432479596 3.175
    vertex 7.679440058971796 13.797629063668042 3.175
    vertex 12.359112810193363 63.91504069243664 3.175
  endloop
endfacet
facet normal -0.0 -0.0 1.0
  outer loop
    vertex 12.359112810193363 63.91504069243664 3.175
    vertex 7.679440058971796 13.797629063668042 3.175
    vertex 12.359112810193453 8.896065401909178 3.175
  endloop
endfacet
facet normal -0.0 -0.0 1.0
  outer loop
    vertex 12.359112810193363 63.91504069243664 3.175
    vertex 12.359112810193453 8.896065401909178 3.175
    vertex 17.875953764449726 67.87912505244158 3.175
  endloop
endfacet
facet normal -0.0 -0.0 1.0
  outer loop
    vertex 17.875953764449726 67.87912505244158 3.175
    vertex 12.359112810193453 8.896065401909178 3.175
    vertex 17.87595376444983 4.9319409118000435 3.175
  endloop
endfacet
facet normal -0.0 -0.0 1.0
  outer loop
    vertex 17.875953764449726 67.87912505244158 3.175
    vertex 17.87595376444983 4.9319409118000435 3.175
    vertex 24.096306024092385 70.77214161146954 3.175
  endloop
endfacet
facet normal -0.0 -0.0 1.0
  outer loop
    vertex 24.096306024092385 70.77214161146954 3.175
    vertex 17.87595376444983 4.9319409118000435 3.175
    vertex 24.0963060240925 2.0389049552462346 3.175
  endloop
endfacet
facet normal -0.0 -0.0 1.0
  outer loop
    vertex 24.096306024092385 70.77214161146954 3.175
    vertex 24.0963060240925 2.0389049552462346 3.175
    vertex 30.88651269147284 72.4604334684956 3.175
  endloop
endfacet
facet normal -0.0 -0.0 1.0
  outer loop
    vertex 30.88651269147284 72.4604334684956 3.175
    vertex 24.0963060240925 2.0389049552462346 3.175
    vertex 30.88651269147293 0.35060689415323515 3.175
  endloop
endfacet
facet normal -0.0 -0.0 1.0
  outer loop
    vertex 30.88651269147284 72.4604334684956 3.175
    vertex 30.88651269147293 0.35060689415323515 3.175
    vertex 38.09198190900579 72.8110398521876 3.175
  endloop
endfacet
facet normal -0.0 -0.0 1.0
  outer loop
    vertex 38.09198190900579 72.8110398521876 3.175
    vertex 30.88651269147293 0.35060689415323515 3.175
    vertex 34.86882780591725 36.54547555914176 3.175
  endloop
endfacet
facet normal -0.0 -0.0 1.0
  outer loop
    vertex 34.86882780591725 36.54547555914176 3.175
    vertex 30.88651269147293 0.35060689415323515 3.175
    vertex 34.86882780591725 36.265507671117454 3.175
  endloop
endfacet
facet normal -0.0 -0.0 1.0
  outer loop
    vertex 38.09198190900579 72.8110398521876 3.175
    vertex 34.86882780591725 36.54547555914176 3.175
    vertex 34.921722423236886 36.81304954719608 3.175
  endloop
endfacet
facet normal -0.0 -0.0 1.0
  outer loop
    vertex 38.09198190900579 72.8110398521876 3.175
    vertex 34.921722423236886 36.81304954719608 3.175
    vertex 35.0225517027724 37.05986080046969 3.175
  endloop
endfacet
facet normal -0.0 -0.0 1.0
  outer loop
    vertex 38.09198190900579 72.8110398521876 3.175
    vertex 35.0225517027724 37.05986080046969 3.175
    vertex 35.16614003919815 37.2807337135062 3.175
  endloop
endfacet
facet normal -0.0 -0.0 1.0
  outer loop
    vertex 38.09198190900579 72.8110398521876 3.175
    vertex 35.16614003919815 37.2807337135062 3.175
    vertex 35.34731182718847 37.47049268084918 3.175
  endloop
endfacet
facet normal -0.0 -0.0 1.0
  outer loop
    vertex 38.09198190900579 72.8110398521876 3.175
    vertex 35.34731182718847 37.47049268084918 3.175
    vertex 35.560891461417654 37.62396209704229 3.175
  endloop
endfacet
facet normal -0.0 -0.0 1.0
  outer loop
    vertex 38.09198190900579 72.8110398521876 3.175
    vertex 35.560891461417654 37.62396209704229 3.175
    vertex 35.801703336560124 37.73596635662909 3.175
  endloop
endfacet
facet normal -0.0 -0.0 1.0
  outer loop
    vertex 38.09198190900579 72.8110398521876 3.175
    vertex 35.801703336560124 37.73596635662909 3.175
    vertex 36.064571847290175 37.801329854153174 3.175
  endloop
endfacet
facet normal -0.0 -0.0 1.0
  outer loop
    vertex 38.09198190900579 72.8110398521876 3.175
    vertex 36.064571847290175 37.801329854153174 3.175
    vertex 36.34350893039043 37.81490394043657 3.175
  endloop
endfacet
facet normal -0.0 -0.0 1.0
  outer loop
    vertex 38.09198190900579 72.8110398521876 3.175
    vertex 36.34350893039043 37.81490394043657 3.175
    vertex 36.61546490691715 37.77480167599001 3.175
  endloop
endfacet
facet normal -0.0 -0.0 1.0
  outer loop
    vertex 38.09198190900579 72.8110398521876 3.175
    vertex 36.61546490691715 37.77480167599001 3.175
    vertex 36.86795205051913 37.685470846752494 3.175
  endloop
endfacet
facet normal -0.0 -0.0 1.0
  outer loop
    vertex 38.09198190900579 72.8110398521876 3.175
    vertex 36.86795205051913 37.685470846752494 3.175
    vertex 37.095794755870656 37.552087058180504 3.175
  endloop
endfacet
facet normal -0.0 -0.0 1.0
  outer loop
    vertex 38.09198190900579 72.8110398521876 3.175
    vertex 37.095794755870656 37.552087058180504 3.175
    vertex 37.29381741764614 37.3798259157304 3.175
  endloop
endfacet
facet normal -0.0 -0.0 1.0
  outer loop
    vertex 38.09198190900579 72.8110398521876 3.175
    vertex 37.29381741764614 37.3798259157304 3.175
    vertex 37.456844430519865 37.1738630248586 3.175
  endloop
endfacet
facet normal -0.0 -0.0 1.0
  outer loop
    vertex 38.09198190900579 72.8110398521876 3.175
    vertex 37.456844430519865 37.1738630248586 3.175
    vertex 37.57970018916619 36.93937399102152 3.175
  endloop
endfacet
facet normal -0.0 -0.0 1.0
  outer loop
    vertex 38.09198190900579 72.8110398521876 3.175
    vertex 37.57970018916619 36.93937399102152 3.175
    vertex 37.65720908825948 36.68153441967547 3.175
  endloop
endfacet
facet normal -0.0 -0.0 1.0
  outer loop
    vertex 38.09198190900579 72.8110398521876 3.175
    vertex 37.65720908825948 36.68153441967547 3.175
    vertex 37.68419552247408 36.40551991627695 3.175
  endloop
endfacet
facet normal 0.33351915288462464 -0.9427433238475479 0.0
  outer loop
    vertex 51.63935294923485 3.343183781709628 3.175
    vertex 45.11720679549434 1.035810602647993 0.0
    vertex 51.63935294923485 3.343183781709628 0.0
  endloop
endfacet
facet normal 0.33351915288462464 -0.9427433238475479 0.0
  outer loop
    vertex 45.11720679549434 1.035810602647993 0.0
    vertex 51.63935294923485 3.343183781709628 3.175
    vertex 45.11720679549434 1.035810602647993 3.175
  endloop
endfacet
facet normal 0.14586467490653293 -0.9893045520032805 0.0
  outer loop
    vertex 45.11720679549434 1.035810602647993 3.175
    vertex 38.0919819090059 0.0 0.0
    vertex 45.11720679549434 1.035810602647993 0.0
  endloop
endfacet
facet normal 0.14586467490653293 -0.9893045520032805 0.0
  outer loop
    vertex 38.0919819090059 0.0 0.0
    vertex 45.11720679549434 1.035810602647993 3.175
    vertex 38.0919819090059 0.0 3.175
  endloop
endfacet
facet normal -0.04860093951356055 -0.9988182761035159 -0.0
  outer loop
    vertex 38.0919819090059 0.0 3.175
    vertex 30.88651269147293 0.35060689415323515 0.0
    vertex 38.0919819090059 0.0 0.0
  endloop
endfacet
facet normal -0.04860093951356055 -0.9988182761035159 -0.0
  outer loop
    vertex 30.88651269147293 0.35060689415323515 0.0
    vertex 38.0919819090059 0.0 3.175
    vertex 30.88651269147293 0.35060689415323515 3.175
  endloop
endfacet
facet normal -0.24129070011213033 -0.9704528829569202 -0.0
  outer loop
    vertex 30.88651269147293 0.35060689415323515 3.175
    vertex 24.0963060240925 2.0389049552462346 0.0
    vertex 30.88651269147293 0.35060689415323515 0.0
  endloop
endfacet
facet normal -0.24129070011213033 -0.9704528829569202 -0.0
  outer loop
    vertex 24.0963060240925 2.0389049552462346 0.0
    vertex 30.88651269147293 0.35060689415323515 3.175
    vertex 24.0963060240925 2.0389049552462346 3.175
  endloop
endfacet
facet normal -0.4217126365475094 -0.9067295363977883 -0.0
  outer loop
    vertex 24.0963060240925 2.0389049552462346 3.175
    vertex 17.87595376444983 4.9319409118000435 0.0
    vertex 24.0963060240925 2.0389049552462346 0.0
  endloop
endfacet
facet normal -0.4217126365475094 -0.9067295363977883 -0.0
  outer loop
    vertex 17.87595376444983 4.9319409118000435 0.0
    vertex 24.0963060240925 2.0389049552462346 3.175
    vertex 17.87595376444983 4.9319409118000435 3.175
  endloop
endfacet
facet normal -0.5835287962308171 -0.8120924479204407 -0.0
  outer loop
    vertex 17.87595376444983 4.9319409118000435 3.175
    vertex 12.359112810193453 8.896065401909178 0.0
    vertex 17.87595376444983 4.9319409118000435 0.0
  endloop
endfacet
facet normal -0.5835287962308171 -0.8120924479204407 -0.0
  outer loop
    vertex 12.359112810193453 8.896065401909178 0.0
    vertex 17.87595376444983 4.9319409118000435 3.175
    vertex 12.359112810193453 8.896065401909178 3.175
  endloop
endfacet
facet normal -0.7232886610864308 -0.690545807853323 -0.0
  outer loop
    vertex 7.679440058971796 13.797629063668042 3.175
    vertex 12.359112810193453 8.896065401909178 0.0
    vertex 12.359112810193453 8.896065401909178 3.175
  endloop
endfacet
facet normal -0.7232886610864308 -0.690545807853323 -0.0
  outer loop
    vertex 12.359112810193453 8.896065401909178 0.0
    vertex 7.679440058971796 13.797629063668042 3.175
    vertex 7.679440058971796 13.797629063668042 0.0
  endloop
endfacet
facet normal -0.8384189117185394 -0.5450263557597009 -0.0
  outer loop
    vertex 3.970592408433374 19.502982535171128 3.175
    vertex 7.679440058971796 13.797629063668042 0.0
    vertex 7.679440058971796 13.797629063668042 3.175
  endloop
endfacet
facet normal -0.8384189117185394 -0.5450263557597009 -0.0
  outer loop
    vertex 7.679440058971796 13.797629063668042 0.0
    vertex 3.970592408433374 19.502982535171128 3.175
    vertex 3.970592408433374 19.502982535171128 0.0
  endloop
endfacet
facet normal -0.9257397395402848 -0.37816125480525575 -0.0
  outer loop
    vertex 1.366226756226626 25.878476454512835 3.175
    vertex 3.970592408433374 19.502982535171128 0.0
    vertex 3.970592408433374 19.502982535171128 3.175
  endloop
endfacet
facet normal -0.9257397395402848 -0.37816125480525575 -0.0
  outer loop
    vertex 3.970592408433374 19.502982535171128 0.0
    vertex 1.366226756226626 25.878476454512835 3.175
    vertex 1.366226756226626 25.878476454512835 0.0
  endloop
endfacet
facet normal -0.9810195476137923 -0.1939088631280953 -0.0
  outer loop
    vertex 1.127986593019159e-14 32.79046145978771 3.175
    vertex 1.366226756226626 25.878476454512835 0.0
    vertex 1.366226756226626 25.878476454512835 3.175
  endloop
endfacet
facet normal -0.9810195476137923 -0.1939088631280953 -0.0
  outer loop
    vertex 1.366226756226626 25.878476454512835 0.0
    vertex 1.127986593019159e-14 32.79046145978771 3.175
    vertex 1.127986593019159e-14 32.79046145978771 0.0
  endloop
endfacet
facet normal -1.0 -1.5599960054989329e-15 -0.0
  outer loop
    vertex 0.0 40.02116326314518 3.175
    vertex 1.127986593019159e-14 32.79046145978771 0.0
    vertex 1.127986593019159e-14 32.79046145978771 3.175
  endloop
endfacet
facet normal -1.0 -1.5599960054989329e-15 -0.0
  outer loop
    vertex 1.127986593019159e-14 32.79046145978771 0.0
    vertex 0.0 40.02116326314518 3.175
    vertex 0.0 40.02116326314518 0.0
  endloop
endfacet
facet normal -0.9810184884995125 0.19391422129934718 0.0
  outer loop
    vertex 1.366226756226592 46.93294981680893 3.175
    vertex 0.0 40.02116326314518 0.0
    vertex 0.0 40.02116326314518 3.175
  endloop
endfacet
facet normal -0.9810184884995125 0.19391422129934718 0.0
  outer loop
    vertex 0.0 40.02116326314518 0.0
    vertex 1.366226756226592 46.93294981680893 3.175
    vertex 1.366226756226592 46.93294981680893 0.0
  endloop
endfacet
facet normal -0.9257366753324361 0.37816875590726434 0.0
  outer loop
    vertex 3.9705924084333177 53.30829617359539 3.175
    vertex 1.366226756226592 46.93294981680893 0.0
    vertex 1.366226756226592 46.93294981680893 3.175
  endloop
endfacet
facet normal -0.9257366753324361 0.37816875590726434 0.0
  outer loop
    vertex 1.366226756226592 46.93294981680893 0.0
    vertex 3.9705924084333177 53.30829617359539 3.175
    vertex 3.9705924084333177 53.30829617359539 0.0
  endloop
endfacet
facet normal -0.8384143624435216 0.545033353886185 0.0
  outer loop
    vertex 7.679440058971751 59.013545432479596 3.175
    vertex 3.9705924084333177 53.30829617359539 0.0
    vertex 3.9705924084333177 53.30829617359539 3.175
  endloop
endfacet
facet normal -0.8384143624435216 0.545033353886185 0.0
  outer loop
    vertex 3.9705924084333177 53.30829617359539 0.0
    vertex 7.679440058971751 59.013545432479596 3.175
    vertex 7.679440058971751 59.013545432479596 0.0
  endloop
endfacet
facet normal -0.7232838478821659 0.6905508492448388 0.0
  outer loop
    vertex 12.359112810193363 63.91504069243664 3.175
    vertex 7.679440058971751 59.013545432479596 0.0
    vertex 7.679440058971751 59.013545432479596 3.175
  endloop
endfacet
facet normal -0.7232838478821659 0.6905508492448388 0.0
  outer loop
    vertex 7.679440058971751 59.013545432479596 0.0
    vertex 12.359112810193363 63.91504069243664 3.175
    vertex 12.359112810193363 63.91504069243664 0.0
  endloop
endfacet
facet normal -0.5835249004143913 0.8120952472440499 0.0
  outer loop
    vertex 12.359112810193363 63.91504069243664 3.175
    vertex 17.875953764449726 67.87912505244158 0.0
    vertex 12.359112810193363 63.91504069243664 0.0
  endloop
endfacet
facet normal -0.5835249004143913 0.8120952472440499 0.0
  outer loop
    vertex 17.875953764449726 67.87912505244158 0.0
    vertex 12.359112810193363 63.91504069243664 3.175
    vertex 17.875953764449726 67.87912505244158 3.175
  endloop
endfacet
facet normal -0.4217103118554866 0.9067306175897825 0.0
  outer loop
    vertex 17.875953764449726 67.87912505244158 3.175
    vertex 24.096306024092385 70.77214161146954 0.0
    vertex 17.875953764449726 67.87912505244158 0.0
  endloop
endfacet
facet normal -0.4217103118554866 0.9067306175897825 0.0
  outer loop
    vertex 24.096306024092385 70.77214161146954 0.0
    vertex 17.875953764449726 67.87912505244158 3.175
    vertex 24.096306024092385 70.77214161146954 3.175
  endloop
endfacet
facet normal -0.24128986505346686 0.9704530905831975 0.0
  outer loop
    vertex 24.096306024092385 70.77214161146954 3.175
    vertex 30.88651269147284 72.4604334684956 0.0
    vertex 24.096306024092385 70.77214161146954 0.0
  endloop
endfacet
facet normal -0.24128986505346686 0.9704530905831975 0.0
  outer loop
    vertex 30.88651269147284 72.4604334684956 0.0
    vertex 24.096306024092385 70.77214161146954 3.175
    vertex 30.88651269147284 72.4604334684956 3.175
  endloop
endfacet
facet normal -0.048600868920838584 0.9988182795384452 0.0
  outer loop
    vertex 30.88651269147284 72.4604334684956 3.175
    vertex 38.09198190900579 72.8110398521876 0.0
    vertex 30.88651269147284 72.4604334684956 0.0
  endloop
endfacet
facet normal -0.048600868920838584 0.9988182795384452 0.0
  outer loop
    vertex 38.09198190900579 72.8110398521876 0.0
    vertex 30.88651269147284 72.4604334684956 3.175
    vertex 38.09198190900579 72.8110398521876 3.175
  endloop
endfacet
facet normal 0.1458643393691544 0.9893046014754 0.0
  outer loop
    vertex 38.09198190900579 72.8110398521876 3.175
    vertex 45.117206795494205 71.77523168404693 0.0
    vertex 38.09198190900579 72.8110398521876 0.0
  endloop
endfacet
facet normal 0.1458643393691544 0.9893046014754 0.0
  outer loop
    vertex 45.117206795494205 71.77523168404693 0.0
    vertex 38.09198190900579 72.8110398521876 3.175
    vertex 45.117206795494205 71.77523168404693 3.175
  endloop
endfacet
facet normal 0.333517629475409 0.9427438627904738 0.0
  outer loop
    vertex 45.117206795494205 71.77523168404693 3.175
    vertex 51.63935294923474 69.46787036339185 0.0
    vertex 45.117206795494205 71.77523168404693 0.0
  endloop
endfacet
facet normal 0.333517629475409 0.9427438627904738 0.0
  outer loop
    vertex 51.63935294923474 69.46787036339185 0.0
    vertex 45.117206795494205 71.77523168404693 3.175
    vertex 51.63935294923474 69.46787036339185 3.175
  endloop
endfacet
facet normal 0.5051939237711824 0.8630058513038464 0.0
  outer loop
    vertex 51.63935294923474 69.46787036339185 3.175
    vertex 57.52477101169804 66.02261279124731 0.0
    vertex 51.63935294923474 69.46787036339185 0.0
  endloop
endfacet
facet normal 0.5051939237711824 0.8630058513038464 0.0
  outer loop
    vertex 57.52477101169804 66.02261279124731 0.0
    vertex 51.63935294923474 69.46787036339185 3.175
    vertex 57.52477101169804 66.02261279124731 3.175
  endloop
endfacet
facet normal 0.6563160759907172 0.754486055799673 0.0
  outer loop
    vertex 57.52477101169804 66.02261279124731 3.175
    vertex 62.63981162435492 61.57311586863822 0.0
    vertex 57.52477101169804 66.02261279124731 0.0
  endloop
endfacet
facet normal 0.6563160759907172 0.754486055799673 0.0
  outer loop
    vertex 62.63981162435492 61.57311586863822 0.0
    vertex 57.52477101169804 66.02261279124731 3.175
    vertex 62.63981162435492 61.57311586863822 3.175
  endloop
endfacet
facet normal 0.7840971560227272 0.6206380989893153 0.0
  outer loop
    vertex 62.63981162435492 61.57311586863822 0.0
    vertex 66.85082542867599 56.25303649658948 3.175
    vertex 66.85082542867599 56.25303649658948 0.0
  endloop
endfacet
facet normal 0.7840971560227272 0.6206380989893153 0.0
  outer loop
    vertex 66.85082542867599 56.25303649658948 3.175
    vertex 62.63981162435492 61.57311586863822 0.0
    vertex 62.63981162435492 61.57311586863822 3.175
  endloop
endfacet
facet normal 0.885794217338307 0.46407823104517204 0.0
  outer loop
    vertex 66.85082542867599 56.25303649658948 0.0
    vertex 70.02416306613202 50.19603157612608 3.175
    vertex 70.02416306613202 50.19603157612608 0.0
  endloop
endfacet
facet normal 0.885794217338307 0.46407823104517204 0.0
  outer loop
    vertex 70.02416306613202 50.19603157612608 3.175
    vertex 66.85082542867599 56.25303649658948 0.0
    vertex 66.85082542867599 56.25303649658948 3.175
  endloop
endfacet
facet normal 0.9576706142582454 0.2878662790016142 0.0
  outer loop
    vertex 70.02416306613202 50.19603157612608 0.0
    vertex 72.02617517819387 43.53575800827287 3.175
    vertex 72.02617517819387 43.53575800827287 0.0
  endloop
endfacet
facet normal 0.9576706142582454 0.2878662790016142 0.0
  outer loop
    vertex 72.02617517819387 43.53575800827287 3.175
    vertex 70.02416306613202 50.19603157612608 0.0
    vertex 70.02416306613202 50.19603157612608 3.175
  endloop
endfacet
facet normal 0.9952552064219302 0.097298890487206 0.0
  outer loop
    vertex 72.02617517819387 43.53575800827287 0.0
    vertex 72.72321240633207 36.40587269405463 3.175
    vertex 72.72321240633207 36.40587269405463 0.0
  endloop
endfacet
facet normal 0.9952552064219302 0.097298890487206 0.0
  outer loop
    vertex 72.72321240633207 36.40587269405463 3.175
    vertex 72.02617517819387 43.53575800827287 0.0
    vertex 72.02617517819387 43.53575800827287 3.175
  endloop
endfacet
facet normal 0.9952555060229878 -0.09729582586589455 0.0
  outer loop
    vertex 72.72321240633207 36.40587269405463 0.0
    vertex 72.02617517819388 29.275760656527826 3.175
    vertex 72.02617517819388 29.275760656527826 0.0
  endloop
endfacet
facet normal 0.9952555060229878 -0.09729582586589455 0.0
  outer loop
    vertex 72.02617517819388 29.275760656527826 3.175
    vertex 72.72321240633207 36.40587269405463 0.0
    vertex 72.72321240633207 36.40587269405463 3.175
  endloop
endfacet
facet normal 0.9576726643911311 -0.2878594585522458 0.0
  outer loop
    vertex 72.02617517819388 29.275760656527826 0.0
    vertex 70.02416306613212 22.615315023981303 3.175
    vertex 70.02416306613212 22.615315023981303 0.0
  endloop
endfacet
facet normal 0.9576726643911311 -0.2878594585522458 0.0
  outer loop
    vertex 70.02416306613212 22.615315023981303 3.175
    vertex 72.02617517819388 29.275760656527826 0.0
    vertex 72.02617517819388 29.275760656527826 3.175
  endloop
endfacet
facet normal 0.8857981525339728 -0.464070719791069 0.0
  outer loop
    vertex 70.02416306613212 22.615315023981303 0.0
    vertex 66.85082542867603 16.558185158320665 3.175
    vertex 66.85082542867603 16.558185158320665 0.0
  endloop
endfacet
facet normal 0.8857981525339728 -0.464070719791069 0.0
  outer loop
    vertex 66.85082542867603 16.558185158320665 3.175
    vertex 70.02416306613212 22.615315023981303 0.0
    vertex 70.02416306613212 22.615315023981303 3.175
  endloop
endfacet
facet normal 0.7841020022205203 -0.6206319763867884 0.0
  outer loop
    vertex 66.85082542867603 16.558185158320665 0.0
    vertex 62.63981162435496 11.238020421451504 3.175
    vertex 62.63981162435496 11.238020421451504 0.0
  endloop
endfacet
facet normal 0.7841020022205203 -0.6206319763867884 0.0
  outer loop
    vertex 62.63981162435496 11.238020421451504 3.175
    vertex 66.85082542867603 16.558185158320665 0.0
    vertex 66.85082542867603 16.558185158320665 3.175
  endloop
endfacet
facet normal 0.6563205533337185 -0.7544821610029767 0.0
  outer loop
    vertex 62.63981162435496 11.238020421451504 3.175
    vertex 57.52477101169816 6.788470175279263 0.0
    vertex 62.63981162435496 11.238020421451504 0.0
  endloop
endfacet
facet normal 0.6563205533337185 -0.7544821610029767 0.0
  outer loop
    vertex 57.52477101169816 6.788470175279263 0.0
    vertex 62.63981162435496 11.238020421451504 3.175
    vertex 57.52477101169816 6.788470175279263 3.175
  endloop
endfacet
facet normal 0.5051970713597786 -0.8630040087331591 0.0
  outer loop
    vertex 57.52477101169816 6.788470175279263 3.175
    vertex 51.63935294923485 3.343183781709628 0.0
    vertex 57.52477101169816 6.788470175279263 0.0
  endloop
endfacet
facet normal 0.5051970713597786 -0.8630040087331591 0.0
  outer loop
    vertex 51.63935294923485 3.343183781709628 0.0
    vertex 57.52477101169816 6.788470175279263 3.175
    vertex 51.63935294923485 3.343183781709628 3.175
  endloop
endfacet
facet normal -0.14588116705445245 -0.9893021202336679 -0.0
  outer loop
    vertex 36.61546490691715 37.77480167599001 3.175
    vertex 36.34350893039043 37.81490394043657 0.0
    vertex 36.61546490691715 37.77480167599001 0.0
  endloop
endfacet
facet normal -0.14588116705445245 -0.9893021202336679 -0.0
  outer loop
    vertex 36.34350893039043 37.81490394043657 0.0
    vertex 36.61546490691715 37.77480167599001 3.175
    vertex 36.34350893039043 37.81490394043657 3.175
  endloop
endfacet
facet normal 0.04860609391171453 -0.9988180252852096 0.0
  outer loop
    vertex 36.34350893039043 37.81490394043657 3.175
    vertex 36.064571847290175 37.801329854153174 0.0
    vertex 36.34350893039043 37.81490394043657 0.0
  endloop
endfacet
facet normal 0.04860609391171453 -0.9988180252852096 0.0
  outer loop
    vertex 36.064571847290175 37.801329854153174 0.0
    vertex 36.34350893039043 37.81490394043657 3.175
    vertex 36.064571847290175 37.801329854153174 3.175
  endloop
endfacet
facet normal 0.24130670615543567 -0.970448903118765 0.0
  outer loop
    vertex 36.064571847290175 37.801329854153174 3.175
    vertex 35.801703336560124 37.73596635662909 0.0
    vertex 36.064571847290175 37.801329854153174 0.0
  endloop
endfacet
facet normal 0.24130670615543567 -0.970448903118765 0.0
  outer loop
    vertex 35.801703336560124 37.73596635662909 0.0
    vertex 36.064571847290175 37.801329854153174 3.175
    vertex 35.801703336560124 37.73596635662909 3.175
  endloop
endfacet
facet normal 0.4217268376988794 -0.9067229314208962 0.0
  outer loop
    vertex 35.801703336560124 37.73596635662909 3.175
    vertex 35.560891461417654 37.62396209704229 0.0
    vertex 35.801703336560124 37.73596635662909 0.0
  endloop
endfacet
facet normal 0.4217268376988794 -0.9067229314208962 0.0
  outer loop
    vertex 35.560891461417654 37.62396209704229 0.0
    vertex 35.801703336560124 37.73596635662909 3.175
    vertex 35.560891461417654 37.62396209704229 3.175
  endloop
endfacet
facet normal 0.5835333878313914 -0.8120891486074784 0.0
  outer loop
    vertex 35.560891461417654 37.62396209704229 3.175
    vertex 35.34731182718847 37.47049268084918 0.0
    vertex 35.560891461417654 37.62396209704229 0.0
  endloop
endfacet
facet normal 0.5835333878313914 -0.8120891486074784 0.0
  outer loop
    vertex 35.34731182718847 37.47049268084918 0.0
    vertex 35.560891461417654 37.62396209704229 3.175
    vertex 35.34731182718847 37.47049268084918 3.175
  endloop
endfacet
facet normal 0.723282763735224 -0.6905519847799555 0.0
  outer loop
    vertex 35.34731182718847 37.47049268084918 0.0
    vertex 35.16614003919815 37.2807337135062 3.175
    vertex 35.16614003919815 37.2807337135062 0.0
  endloop
endfacet
facet normal 0.723282763735224 -0.6905519847799555 0.0
  outer loop
    vertex 35.16614003919815 37.2807337135062 3.175
    vertex 35.34731182718847 37.47049268084918 0.0
    vertex 35.34731182718847 37.47049268084918 3.175
  endloop
endfacet
facet normal 0.8384072889410967 -0.5450442347648862 0.0
  outer loop
    vertex 35.16614003919815 37.2807337135062 0.0
    vertex 35.0225517027724 37.05986080046969 3.175
    vertex 35.0225517027724 37.05986080046969 0.0
  endloop
endfacet
facet normal 0.8384072889410967 -0.5450442347648862 0.0
  outer loop
    vertex 35.0225517027724 37.05986080046969 3.175
    vertex 35.16614003919815 37.2807337135062 0.0
    vertex 35.16614003919815 37.2807337135062 3.175
  endloop
endfacet
facet normal 0.9257295016225634 -0.37818631628555804 0.0
  outer loop
    vertex 35.0225517027724 37.05986080046969 0.0
    vertex 34.921722423236886 36.81304954719608 3.175
    vertex 34.921722423236886 36.81304954719608 0.0
  endloop
endfacet
facet normal 0.9257295016225634 -0.37818631628555804 0.0
  outer loop
    vertex 34.921722423236886 36.81304954719608 3.175
    vertex 35.0225517027724 37.05986080046969 0.0
    vertex 35.0225517027724 37.05986080046969 3.175
  endloop
endfacet
facet normal 0.9810155052200924 -0.19392931319882237 0.0
  outer loop
    vertex 34.921722423236886 36.81304954719608 0.0
    vertex 34.86882780591725 36.54547555914176 3.175
    vertex 34.86882780591725 36.54547555914176 0.0
  endloop
endfacet
facet normal 0.9810155052200924 -0.19392931319882237 0.0
  outer loop
    vertex 34.86882780591725 36.54547555914176 3.175
    vertex 34.921722423236886 36.81304954719608 0.0
    vertex 34.921722423236886 36.81304954719608 3.175
  endloop
endfacet
facet normal 1.0 0.0 0.0
  outer loop
    vertex 34.86882780591725 36.54547555914176 0.0
    vertex 34.86882780591725 36.265507671117454 3.175
    vertex 34.86882780591725 36.265507671117454 0.0
  endloop
endfacet
facet normal 1.0 0.0 0.0
  outer loop
    vertex 34.86882780591725 36.265507671117454 3.175
    vertex 34.86882780591725 36.54547555914176 0.0
    vertex 34.86882780591725 36.54547555914176 3.175
  endloop
endfacet
facet normal 0.981025458147821 0.19387895828546728 0.0
  outer loop
    vertex 34.86882780591725 36.265507671117454 0.0
    vertex 34.921722423236886 35.99786147243537 3.175
    vertex 34.921722423236886 35.99786147243537 0.0
  endloop
endfacet
facet normal 0.981025458147821 0.19387895828546728 0.0
  outer loop
    vertex 34.921722423236886 35.99786147243537 3.175
    vertex 34.86882780591725 36.265507671117454 0.0
    vertex 34.86882780591725 36.265507671117454 3.175
  endloop
endfacet
facet normal 0.9257439708679444 0.378150896338552 0.0
  outer loop
    vertex 34.921722423236886 35.99786147243537 0.0
    vertex 35.02255170277242 35.75102324325024 3.175
    vertex 35.02255170277242 35.75102324325024 0.0
  endloop
endfacet
facet normal 0.9257439708679444 0.378150896338552 0.0
  outer loop
    vertex 35.02255170277242 35.75102324325024 3.175
    vertex 34.921722423236886 35.99786147243537 0.0
    vertex 34.921722423236886 35.99786147243537 3.175
  endloop
endfacet
facet normal 0.8383994513401091 0.5450562906641885 0.0
  outer loop
    vertex 35.02255170277242 35.75102324325024 0.0
    vertex 35.16614003919815 35.530157280339374 3.175
    vertex 35.16614003919815 35.530157280339374 0.0
  endloop
endfacet
facet normal 0.8383994513401091 0.5450562906641885 0.0
  outer loop
    vertex 35.16614003919815 35.530157280339374 3.175
    vertex 35.02255170277242 35.75102324325024 0.0
    vertex 35.02255170277242 35.75102324325024 3.175
  endloop
endfacet
facet normal 0.7232290152743724 0.6906082764239518 0.0
  outer loop
    vertex 35.16614003919815 35.530157280339374 0.0
    vertex 35.34731182718847 35.34042788048014 3.175
    vertex 35.34731182718847 35.34042788048014 0.0
  endloop
endfacet
facet normal 0.7232290152743724 0.6906082764239518 0.0
  outer loop
    vertex 35.34731182718847 35.34042788048014 3.175
    vertex 35.16614003919815 35.530157280339374 0.0
    vertex 35.16614003919815 35.530157280339374 3.175
  endloop
endfacet
facet normal 0.5834308744672514 0.8121628006245905 0.0
  outer loop
    vertex 35.34731182718847 35.34042788048014 3.175
    vertex 35.560891461417654 35.186999340449866 0.0
    vertex 35.34731182718847 35.34042788048014 0.0
  endloop
endfacet
facet normal 0.5834308744672514 0.8121628006245905 0.0
  outer loop
    vertex 35.560891461417654 35.186999340449866 0.0
    vertex 35.34731182718847 35.34042788048014 3.175
    vertex 35.560891461417654 35.186999340449866 3.175
  endloop
endfacet
facet normal 0.42160028882043116 0.9067817799595055 0.0
  outer loop
    vertex 35.560891461417654 35.186999340449866 3.175
    vertex 35.801703336560124 35.07503595702592 0.0
    vertex 35.560891461417654 35.186999340449866 0.0
  endloop
endfacet
facet normal 0.42160028882043116 0.9067817799595055 0.0
  outer loop
    vertex 35.801703336560124 35.07503595702592 0.0
    vertex 35.560891461417654 35.186999340449866 3.175
    vertex 35.801703336560124 35.07503595702592 3.175
  endloop
endfacet
facet normal 0.24120390192662985 0.9704744600943235 0.0
  outer loop
    vertex 35.801703336560124 35.07503595702592 3.175
    vertex 36.064571847290196 35.009702026985586 0.0
    vertex 35.801703336560124 35.07503595702592 0.0
  endloop
endfacet
facet normal 0.24120390192662985 0.9704744600943235 0.0
  outer loop
    vertex 36.064571847290196 35.009702026985586 0.0
    vertex 35.801703336560124 35.07503595702592 3.175
    vertex 36.064571847290196 35.009702026985586 3.175
  endloop
endfacet
facet normal 0.048581055241203826 0.9988192434428018 0.0
  outer loop
    vertex 36.064571847290196 35.009702026985586 3.175
    vertex 36.34350893039045 34.996134949727235 0.0
    vertex 36.064571847290196 35.009702026985586 0.0
  endloop
endfacet
facet normal 0.048581055241203826 0.9988192434428018 0.0
  outer loop
    vertex 36.34350893039045 34.996134949727235 0.0
    vertex 36.064571847290196 35.009702026985586 3.175
    vertex 36.34350893039045 34.996134949727235 3.175
  endloop
endfacet
facet normal -0.14581112608833097 0.9893124458475455 0.0
  outer loop
    vertex 36.34350893039045 34.996134949727235 3.175
    vertex 36.615464906917175 35.036217541784225 0.0
    vertex 36.34350893039045 34.996134949727235 0.0
  endloop
endfacet
facet normal -0.14581112608833097 0.9893124458475455 0.0
  outer loop
    vertex 36.615464906917175 35.036217541784225 0.0
    vertex 36.34350893039045 34.996134949727235 3.175
    vertex 36.615464906917175 35.036217541784225 3.175
  endloop
endfacet
facet normal -0.3334213144570841 0.9427779309390469 0.0
  outer loop
    vertex 36.615464906917175 35.036217541784225 3.175
    vertex 36.86795205051913 35.12551173561355 0.0
    vertex 36.615464906917175 35.036217541784225 0.0
  endloop
endfacet
facet normal -0.3334213144570841 0.9427779309390469 0.0
  outer loop
    vertex 36.86795205051913 35.12551173561355 0.0
    vertex 36.615464906917175 35.036217541784225 3.175
    vertex 36.86795205051913 35.12551173561355 3.175
  endloop
endfacet
facet normal -0.5050950100925587 0.8630637466488776 0.0
  outer loop
    vertex 36.86795205051913 35.12551173561355 3.175
    vertex 37.09579475587068 35.25885323443783 0.0
    vertex 36.86795205051913 35.12551173561355 0.0
  endloop
endfacet
facet normal -0.5050950100925587 0.8630637466488776 0.0
  outer loop
    vertex 37.09579475587068 35.25885323443783 0.0
    vertex 36.86795205051913 35.12551173561355 3.175
    vertex 37.09579475587068 35.25885323443783 3.175
  endloop
endfacet
facet normal -0.6562457320845362 0.7545472411458618 0.0
  outer loop
    vertex 37.09579475587068 35.25885323443783 3.175
    vertex 37.29381741764614 35.43107774147972 0.0
    vertex 37.09579475587068 35.25885323443783 0.0
  endloop
endfacet
facet normal -0.6562457320845362 0.7545472411458618 0.0
  outer loop
    vertex 37.29381741764614 35.43107774147972 0.0
    vertex 37.09579475587068 35.25885323443783 3.175
    vertex 37.29381741764614 35.43107774147972 3.175
  endloop
endfacet
facet normal -0.7840668875404674 0.6206763374437633 0.0
  outer loop
    vertex 37.456844430519865 35.63702095996194 3.175
    vertex 37.29381741764614 35.43107774147972 0.0
    vertex 37.29381741764614 35.43107774147972 3.175
  endloop
endfacet
facet normal -0.7840668875404674 0.6206763374437633 0.0
  outer loop
    vertex 37.29381741764614 35.43107774147972 0.0
    vertex 37.456844430519865 35.63702095996194 3.175
    vertex 37.456844430519865 35.63702095996194 0.0
  endloop
endfacet
facet normal -0.8857947891690527 0.46407713958021396 0.0
  outer loop
    vertex 37.57970018916621 35.87151859310711 3.175
    vertex 37.456844430519865 35.63702095996194 0.0
    vertex 37.456844430519865 35.63702095996194 3.175
  endloop
endfacet
facet normal -0.8857947891690527 0.46407713958021396 0.0
  outer loop
    vertex 37.456844430519865 35.63702095996194 0.0
    vertex 37.57970018916621 35.87151859310711 3.175
    vertex 37.57970018916621 35.87151859310711 0.0
  endloop
endfacet
facet normal -0.9576804403197711 0.28783358773591633 0.0
  outer loop
    vertex 37.65720908825948 36.1294063441379 3.175
    vertex 37.57970018916621 35.87151859310711 0.0
    vertex 37.57970018916621 35.87151859310711 3.175
  endloop
endfacet
facet normal -0.9576804403197711 0.28783358773591633 0.0
  outer loop
    vertex 37.57970018916621 35.87151859310711 0.0
    vertex 37.65720908825948 36.1294063441379 3.175
    vertex 37.65720908825948 36.1294063441379 0.0
  endloop
endfacet
facet normal -0.995257715486537 0.09727322223777404 0.0
  outer loop
    vertex 37.68419552247408 36.40551991627695 3.175
    vertex 37.65720908825948 36.1294063441379 0.0
    vertex 37.65720908825948 36.1294063441379 3.175
  endloop
endfacet
facet normal -0.995257715486537 0.09727322223777404 0.0
  outer loop
    vertex 37.65720908825948 36.1294063441379 0.0
    vertex 37.68419552247408 36.40551991627695 3.175
    vertex 37.68419552247408 36.40551991627695 0.0
  endloop
endfacet
facet normal -0.995254334817807 -0.09730780557778801 -0.0
  outer loop
    vertex 37.65720908825948 36.68153441967547 3.175
    vertex 37.68419552247408 36.40551991627695 0.0
    vertex 37.68419552247408 36.40551991627695 3.175
  endloop
endfacet
facet normal -0.995254334817807 -0.09730780557778801 -0.0
  outer loop
    vertex 37.68419552247408 36.40551991627695 0.0
    vertex 37.65720908825948 36.68153441967547 3.175
    vertex 37.65720908825948 36.68153441967547 0.0
  endloop
endfacet
facet normal -0.9576656134855435 -0.28788291499732627 -0.0
  outer loop
    vertex 37.57970018916619 36.93937399102152 3.175
    vertex 37.65720908825948 36.68153441967547 0.0
    vertex 37.65720908825948 36.68153441967547 3.175
  endloop
endfacet
facet normal -0.9576656134855435 -0.28788291499732627 -0.0
  outer loop
    vertex 37.65720908825948 36.68153441967547 0.0
    vertex 37.57970018916619 36.93937399102152 3.175
    vertex 37.57970018916619 36.93937399102152 0.0
  endloop
endfacet
facet normal -0.8857877930488858 -0.4640904929920287 -0.0
  outer loop
    vertex 37.456844430519865 37.1738630248586 3.175
    vertex 37.57970018916619 36.93937399102152 0.0
    vertex 37.57970018916619 36.93937399102152 3.175
  endloop
endfacet
facet normal -0.8857877930488858 -0.4640904929920287 -0.0
  outer loop
    vertex 37.57970018916619 36.93937399102152 0.0
    vertex 37.456844430519865 37.1738630248586 3.175
    vertex 37.456844430519865 37.1738630248586 0.0
  endloop
endfacet
facet normal -0.7840957381409753 -0.6206398902980367 -0.0
  outer loop
    vertex 37.29381741764614 37.3798259157304 3.175
    vertex 37.456844430519865 37.1738630248586 0.0
    vertex 37.456844430519865 37.1738630248586 3.175
  endloop
endfacet
facet normal -0.7840957381409753 -0.6206398902980367 -0.0
  outer loop
    vertex 37.456844430519865 37.1738630248586 0.0
    vertex 37.29381741764614 37.3798259157304 3.175
    vertex 37.29381741764614 37.3798259157304 0.0
  endloop
endfacet
facet normal -0.6563251988928146 -0.7544781198274125 -0.0
  outer loop
    vertex 37.29381741764614 37.3798259157304 3.175
    vertex 37.095794755870656 37.552087058180504 0.0
    vertex 37.29381741764614 37.3798259157304 0.0
  endloop
endfacet
facet normal -0.6563251988928146 -0.7544781198274125 -0.0
  outer loop
    vertex 37.095794755870656 37.552087058180504 0.0
    vertex 37.29381741764614 37.3798259157304 3.175
    vertex 37.095794755870656 37.552087058180504 3.175
  endloop
endfacet
facet normal -0.5052143198264509 -0.8629939113587629 -0.0
  outer loop
    vertex 37.095794755870656 37.552087058180504 3.175
    vertex 36.86795205051913 37.685470846752494 0.0
    vertex 37.095794755870656 37.552087058180504 0.0
  endloop
endfacet
facet normal -0.5052143198264509 -0.8629939113587629 -0.0
  outer loop
    vertex 36.86795205051913 37.685470846752494 0.0
    vertex 37.095794755870656 37.552087058180504 3.175
    vertex 36.86795205051913 37.685470846752494 3.175
  endloop
endfacet
facet normal -0.3335428939348214 -0.9427349245178014 -0.0
  outer loop
    vertex 36.86795205051913 37.685470846752494 3.175
    vertex 36.61546490691715 37.77480167599001 0.0
    vertex 36.86795205051913 37.685470846752494 0.0
  endloop
endfacet
facet normal -0.3335428939348214 -0.9427349245178014 -0.0
  outer loop
    vertex 36.61546490691715 37.77480167599001 0.0
    vertex 36.86795205051913 37.685470846752494 3.175
    vertex 36.61546490691715 37.77480167599001 3.175
  endloop
endfacet
endsolid body-wheel
